ISO-10303-21;
HEADER;
/* Generated by software containing ST-Developer
 * from STEP Tools, Inc. (www.steptools.com) 
 */
/* OPTION: using custom renumber hook */

FILE_DESCRIPTION(
/* description */ ('STEP AP242 Edition 2',
'CAx-IF Rec.Pracs.---Representation and Presentation of Product Manufa
cturing Information (PMI)---4.0---2014-10-13',
'CAx-IF Rec.Pracs.---3D Tessellated Geometry---0.4---2014-09-14','2;1',
'CAx-IF Rec.Pracs.---User Defined Attributes---1.5---2016-08-15'),
/* implementation_level */ '2;1');

FILE_NAME(
/* name */ 'Plot Platter Part Studio - Dovetail Connector',
/* time_stamp */ '2026-08-02T03:40:09Z',
/* author */ (''),
/* organization */ (''),
/* preprocessor_version */ 'ST-DEVELOPER v20',
/* originating_system */ 'ONSHAPE BY PTC INC, 1.218',
/* authorisation */ '  ');

FILE_SCHEMA (('AP242_MANAGED_MODEL_BASED_3D_ENGINEERING_MIM_LF { 1 0 10303 442 3 1 4 }'));
ENDSEC;

DATA;
#10=SHAPE_REPRESENTATION_RELATIONSHIP('','',#154,#11);
#11=ADVANCED_BREP_SHAPE_REPRESENTATION('',(#152),#246);
#12=CYLINDRICAL_SURFACE('',#166,0.002);
#13=CYLINDRICAL_SURFACE('',#167,0.0016);
#14=CIRCLE('',#159,0.0016);
#15=CIRCLE('',#161,0.0016);
#16=ELLIPSE('',#157,0.00230940107675851,0.002);
#17=ELLIPSE('',#163,0.00230940107675851,0.002);
#18=ORIENTED_EDGE('',*,*,#52,.F.);
#19=ORIENTED_EDGE('',*,*,#53,.T.);
#20=ORIENTED_EDGE('',*,*,#54,.T.);
#21=ORIENTED_EDGE('',*,*,#55,.T.);
#22=ORIENTED_EDGE('',*,*,#56,.F.);
#23=ORIENTED_EDGE('',*,*,#57,.F.);
#24=ORIENTED_EDGE('',*,*,#54,.F.);
#25=ORIENTED_EDGE('',*,*,#58,.T.);
#26=ORIENTED_EDGE('',*,*,#59,.T.);
#27=ORIENTED_EDGE('',*,*,#60,.F.);
#28=ORIENTED_EDGE('',*,*,#61,.T.);
#29=ORIENTED_EDGE('',*,*,#62,.F.);
#30=ORIENTED_EDGE('',*,*,#63,.F.);
#31=ORIENTED_EDGE('',*,*,#56,.T.);
#32=ORIENTED_EDGE('',*,*,#64,.T.);
#33=ORIENTED_EDGE('',*,*,#59,.F.);
#34=ORIENTED_EDGE('',*,*,#65,.T.);
#35=ORIENTED_EDGE('',*,*,#66,.F.);
#36=ORIENTED_EDGE('',*,*,#62,.T.);
#37=ORIENTED_EDGE('',*,*,#67,.T.);
#38=ORIENTED_EDGE('',*,*,#60,.T.);
#39=ORIENTED_EDGE('',*,*,#67,.F.);
#40=ORIENTED_EDGE('',*,*,#64,.F.);
#41=ORIENTED_EDGE('',*,*,#55,.F.);
#42=ORIENTED_EDGE('',*,*,#66,.T.);
#43=ORIENTED_EDGE('',*,*,#68,.T.);
#44=ORIENTED_EDGE('',*,*,#52,.T.);
#45=ORIENTED_EDGE('',*,*,#63,.T.);
#46=ORIENTED_EDGE('',*,*,#53,.F.);
#47=ORIENTED_EDGE('',*,*,#68,.F.);
#48=ORIENTED_EDGE('',*,*,#65,.F.);
#49=ORIENTED_EDGE('',*,*,#58,.F.);
#50=ORIENTED_EDGE('',*,*,#57,.T.);
#51=ORIENTED_EDGE('',*,*,#61,.F.);
#52=EDGE_CURVE('',#69,#70,#81,.T.);
#53=EDGE_CURVE('',#69,#71,#16,.F.);
#54=EDGE_CURVE('',#71,#72,#82,.T.);
#55=EDGE_CURVE('',#72,#73,#83,.T.);
#56=EDGE_CURVE('',#70,#73,#84,.T.);
#57=EDGE_CURVE('',#74,#74,#14,.T.);
#58=EDGE_CURVE('',#71,#75,#85,.T.);
#59=EDGE_CURVE('',#75,#76,#86,.T.);
#60=EDGE_CURVE('',#72,#76,#87,.T.);
#61=EDGE_CURVE('',#77,#77,#15,.T.);
#62=EDGE_CURVE('',#78,#79,#88,.T.);
#63=EDGE_CURVE('',#70,#78,#89,.T.);
#64=EDGE_CURVE('',#73,#79,#90,.T.);
#65=EDGE_CURVE('',#75,#80,#17,.F.);
#66=EDGE_CURVE('',#78,#80,#91,.T.);
#67=EDGE_CURVE('',#79,#76,#92,.T.);
#68=EDGE_CURVE('',#80,#69,#93,.F.);
#69=VERTEX_POINT('',#210);
#70=VERTEX_POINT('',#211);
#71=VERTEX_POINT('',#213);
#72=VERTEX_POINT('',#215);
#73=VERTEX_POINT('',#217);
#74=VERTEX_POINT('',#221);
#75=VERTEX_POINT('',#223);
#76=VERTEX_POINT('',#225);
#77=VERTEX_POINT('',#229);
#78=VERTEX_POINT('',#231);
#79=VERTEX_POINT('',#232);
#80=VERTEX_POINT('',#237);
#81=LINE('',#209,#94);
#82=LINE('',#214,#95);
#83=LINE('',#216,#96);
#84=LINE('',#218,#97);
#85=LINE('',#222,#98);
#86=LINE('',#224,#99);
#87=LINE('',#226,#100);
#88=LINE('',#230,#101);
#89=LINE('',#233,#102);
#90=LINE('',#234,#103);
#91=LINE('',#238,#104);
#92=LINE('',#239,#105);
#93=LINE('',#242,#106);
#94=VECTOR('',#172,1.);
#95=VECTOR('',#175,1.);
#96=VECTOR('',#176,1.);
#97=VECTOR('',#177,1.);
#98=VECTOR('',#182,1.);
#99=VECTOR('',#183,1.);
#100=VECTOR('',#184,1.);
#101=VECTOR('',#189,1.);
#102=VECTOR('',#190,1.);
#103=VECTOR('',#191,1.);
#104=VECTOR('',#196,1.);
#105=VECTOR('',#197,1.);
#106=VECTOR('',#202,1.);
#107=EDGE_LOOP('',(#18,#19,#20,#21,#22));
#108=EDGE_LOOP('',(#23));
#109=EDGE_LOOP('',(#24,#25,#26,#27));
#110=EDGE_LOOP('',(#28));
#111=EDGE_LOOP('',(#29,#30,#31,#32));
#112=EDGE_LOOP('',(#33,#34,#35,#36,#37));
#113=EDGE_LOOP('',(#38,#39,#40,#41));
#114=EDGE_LOOP('',(#42,#43,#44,#45));
#115=EDGE_LOOP('',(#46,#47,#48,#49));
#116=EDGE_LOOP('',(#50));
#117=EDGE_LOOP('',(#51));
#118=FACE_BOUND('',#107,.T.);
#119=FACE_BOUND('',#108,.T.);
#120=FACE_BOUND('',#109,.T.);
#121=FACE_BOUND('',#110,.T.);
#122=FACE_BOUND('',#111,.T.);
#123=FACE_BOUND('',#112,.T.);
#124=FACE_BOUND('',#113,.T.);
#125=FACE_BOUND('',#114,.T.);
#126=FACE_BOUND('',#115,.T.);
#127=FACE_BOUND('',#116,.T.);
#128=FACE_BOUND('',#117,.T.);
#129=PLANE('',#156);
#130=PLANE('',#158);
#131=PLANE('',#160);
#132=PLANE('',#162);
#133=PLANE('',#164);
#134=PLANE('',#165);
#135=ADVANCED_FACE('',(#118),#129,.F.);
#136=ADVANCED_FACE('',(#119,#120),#130,.T.);
#137=ADVANCED_FACE('',(#121,#122),#131,.F.);
#138=ADVANCED_FACE('',(#123),#132,.F.);
#139=ADVANCED_FACE('',(#124),#133,.F.);
#140=ADVANCED_FACE('',(#125),#134,.T.);
#141=ADVANCED_FACE('',(#126),#12,.T.);
#142=ADVANCED_FACE('',(#127,#128),#13,.F.);
#143=CLOSED_SHELL('',(#135,#136,#137,#138,#139,#140,#141,#142));
#144=STYLED_ITEM('',(#145),#152);
#145=PRESENTATION_STYLE_ASSIGNMENT((#146));
#146=SURFACE_STYLE_USAGE(.BOTH.,#147);
#147=SURFACE_SIDE_STYLE('',(#148));
#148=SURFACE_STYLE_FILL_AREA(#149);
#149=FILL_AREA_STYLE('',(#150));
#150=FILL_AREA_STYLE_COLOUR('',#151);
#151=COLOUR_RGB('',0.917647058823529,0.917647058823529,0.917647058823529);
#152=MANIFOLD_SOLID_BREP('Dovetail Connector',#143);
#153=SHAPE_DEFINITION_REPRESENTATION(#251,#154);
#154=SHAPE_REPRESENTATION('Dovetail Connector',(#155),#246);
#155=AXIS2_PLACEMENT_3D('',#207,#168,#169);
#156=AXIS2_PLACEMENT_3D('',#208,#170,#171);
#157=AXIS2_PLACEMENT_3D('',#212,#173,#174);
#158=AXIS2_PLACEMENT_3D('',#219,#178,#179);
#159=AXIS2_PLACEMENT_3D('',#220,#180,#181);
#160=AXIS2_PLACEMENT_3D('',#227,#185,#186);
#161=AXIS2_PLACEMENT_3D('',#228,#187,#188);
#162=AXIS2_PLACEMENT_3D('',#235,#192,#193);
#163=AXIS2_PLACEMENT_3D('',#236,#194,#195);
#164=AXIS2_PLACEMENT_3D('',#240,#198,#199);
#165=AXIS2_PLACEMENT_3D('',#241,#200,#201);
#166=AXIS2_PLACEMENT_3D('',#243,#203,#204);
#167=AXIS2_PLACEMENT_3D('',#244,#205,#206);
#168=DIRECTION('',(0.,0.,1.));
#169=DIRECTION('',(1.,0.,0.));
#170=DIRECTION('',(0.866025403784439,0.,0.5));
#171=DIRECTION('',(0.5,0.,-0.866025403784439));
#172=DIRECTION('',(-0.5,-1.25539198919374E-16,0.866025403784439));
#173=DIRECTION('',(0.866025403784439,0.,0.5));
#174=DIRECTION('',(0.5,5.02156795677497E-16,-0.866025403784439));
#175=DIRECTION('',(0.,-1.,0.));
#176=DIRECTION('',(-0.5,-1.16816395688674E-16,0.866025403784439));
#177=DIRECTION('',(0.,-1.,0.));
#178=DIRECTION('',(0.,0.,-1.));
#179=DIRECTION('',(0.,1.,0.));
#180=DIRECTION('',(0.,0.,-1.));
#181=DIRECTION('',(0.,1.,0.));
#182=DIRECTION('',(1.,2.51078397838749E-16,0.));
#183=DIRECTION('',(0.,-1.,0.));
#184=DIRECTION('',(1.,2.33632791377348E-16,0.));
#185=DIRECTION('',(0.,0.,-1.));
#186=DIRECTION('',(0.,1.,0.));
#187=DIRECTION('',(0.,0.,-1.));
#188=DIRECTION('',(0.,1.,0.));
#189=DIRECTION('',(0.,-1.,0.));
#190=DIRECTION('',(1.,2.51078397838749E-16,0.));
#191=DIRECTION('',(1.,2.33632791377348E-16,0.));
#192=DIRECTION('',(-0.866025403784439,0.,0.5));
#193=DIRECTION('',(0.5,0.,0.866025403784439));
#194=DIRECTION('',(-0.866025403784439,0.,0.5));
#195=DIRECTION('',(0.5,5.02156795677497E-16,0.866025403784439));
#196=DIRECTION('',(-0.5,-1.25539198919374E-16,-0.866025403784439));
#197=DIRECTION('',(-0.5,-1.16816395688674E-16,-0.866025403784439));
#198=DIRECTION('',(-2.33632791377348E-16,1.,0.));
#199=DIRECTION('',(1.,2.33632791377348E-16,0.));
#200=DIRECTION('',(-2.51078397838749E-16,1.,0.));
#201=DIRECTION('',(1.,2.51078397838749E-16,0.));
#202=DIRECTION('',(1.,2.51078397838749E-16,0.));
#203=DIRECTION('',(1.,2.51078397838749E-16,0.));
#204=DIRECTION('',(2.51078397838749E-16,-1.,0.));
#205=DIRECTION('',(0.,0.,-1.));
#206=DIRECTION('',(0.,1.,0.));
#207=CARTESIAN_POINT('',(0.,0.,0.));
#208=CARTESIAN_POINT('',(-0.006,0.001609965,0.00259807621135332));
#209=CARTESIAN_POINT('',(-0.006,0.001607965,0.00259807621135332));
#210=CARTESIAN_POINT('',(-0.00565470053837925,0.001607965,0.002));
#211=CARTESIAN_POINT('',(-0.0075,0.001607965,0.00519615242270663));
#212=CARTESIAN_POINT('',(-0.00565470053837925,-0.000392035,0.002));
#213=CARTESIAN_POINT('',(-0.0045,-0.000392035,0.));
#214=CARTESIAN_POINT('',(-0.0045,0.001609965,0.));
#215=CARTESIAN_POINT('',(-0.0045,-0.022607965,0.));
#216=CARTESIAN_POINT('',(-0.006,-0.022607965,0.00259807621135331));
#217=CARTESIAN_POINT('',(-0.0075,-0.022607965,0.00519615242270663));
#218=CARTESIAN_POINT('',(-0.0075,0.001609965,0.00519615242270663));
#219=CARTESIAN_POINT('',(0.,0.001609965,0.));
#220=CARTESIAN_POINT('',(0.,-0.017182965,0.));
#221=CARTESIAN_POINT('',(0.,-0.015582965,0.));
#222=CARTESIAN_POINT('',(5.02658952473175E-19,-0.000392035,0.));
#223=CARTESIAN_POINT('',(0.0045,-0.000392034999999995,0.));
#224=CARTESIAN_POINT('',(0.0045,0.001609965,0.));
#225=CARTESIAN_POINT('',(0.0045,-0.022607965,0.));
#226=CARTESIAN_POINT('',(5.65810258728121E-18,-0.022607965,0.));
#227=CARTESIAN_POINT('',(1.7347234759768E-18,0.001609965,0.00519615242270663));
#228=CARTESIAN_POINT('',(0.,-0.017182965,0.0051961524227066));
#229=CARTESIAN_POINT('',(0.,-0.015582965,0.0051961524227066));
#230=CARTESIAN_POINT('',(0.0075,0.001609965,0.00519615242270662));
#231=CARTESIAN_POINT('',(0.0075,0.001607965,0.00519615242270662));
#232=CARTESIAN_POINT('',(0.0075,-0.022607965,0.00519615242270662));
#233=CARTESIAN_POINT('',(1.73522563277248E-18,0.001607965,0.00519615242270663));
#234=CARTESIAN_POINT('',(7.39282606325802E-18,-0.022607965,0.00519615242270663));
#235=CARTESIAN_POINT('',(0.006,0.001609965,0.00259807621135331));
#236=CARTESIAN_POINT('',(0.00565470053837925,-0.000392034999999995,0.002));
#237=CARTESIAN_POINT('',(0.00565470053837925,0.001607965,0.002));
#238=CARTESIAN_POINT('',(0.006,0.001607965,0.00259807621135331));
#239=CARTESIAN_POINT('',(0.006,-0.022607965,0.00259807621135332));
#240=CARTESIAN_POINT('',(1.7347234759768E-18,-0.022607965,0.11));
#241=CARTESIAN_POINT('',(-3.46944695195361E-18,0.001607965,0.010002));
#242=CARTESIAN_POINT('',(-3.46944695195361E-18,0.001607965,0.002));
#243=CARTESIAN_POINT('',(5.02658952473175E-19,-0.000392035,0.002));
#244=CARTESIAN_POINT('',(0.,-0.017182965,0.45));
#245=MECHANICAL_DESIGN_GEOMETRIC_PRESENTATION_REPRESENTATION('',(#144),
#246);
#246=(
GEOMETRIC_REPRESENTATION_CONTEXT(3)
GLOBAL_UNCERTAINTY_ASSIGNED_CONTEXT((#247))
GLOBAL_UNIT_ASSIGNED_CONTEXT((#250,#249,#248))
REPRESENTATION_CONTEXT('Dovetail Connector','TOP_LEVEL_ASSEMBLY_PART')
);
#247=UNCERTAINTY_MEASURE_WITH_UNIT(LENGTH_MEASURE(1.E-8),#250,
'DISTANCE_ACCURACY_VALUE','Maximum Tolerance applied to model');
#248=(
NAMED_UNIT(*)
SI_UNIT($,.STERADIAN.)
SOLID_ANGLE_UNIT()
);
#249=(
NAMED_UNIT(*)
PLANE_ANGLE_UNIT()
SI_UNIT($,.RADIAN.)
);
#250=(
LENGTH_UNIT()
NAMED_UNIT(*)
SI_UNIT($,.METRE.)
);
#251=PRODUCT_DEFINITION_SHAPE('','',#252);
#252=PRODUCT_DEFINITION('','',#254,#253);
#253=PRODUCT_DEFINITION_CONTEXT('',#260,'design');
#254=PRODUCT_DEFINITION_FORMATION_WITH_SPECIFIED_SOURCE('','',#256,
 .NOT_KNOWN.);
#255=PRODUCT_RELATED_PRODUCT_CATEGORY('','',(#256));
#256=PRODUCT('Dovetail Connector','Dovetail Connector',
'Dovetail Connector',(#258));
#257=PRODUCT_CATEGORY('','');
#258=PRODUCT_CONTEXT('',#260,'mechanical');
#259=APPLICATION_PROTOCOL_DEFINITION('international standard',
'ap242_managed_model_based_3d_engineering',2020,#260);
#260=APPLICATION_CONTEXT('managed model based 3d engineering');
ENDSEC;
END-ISO-10303-21;
