ISO-10303-21;
HEADER;
/* Generated by software containing ST-Developer
 * from STEP Tools, Inc. (www.steptools.com) 
 */
/* OPTION: using custom renumber hook */

FILE_DESCRIPTION(
/* description */ ('STEP AP242 Edition 2',
'CAx-IF Rec.Pracs.---Representation and Presentation of Product Manufa
cturing Information (PMI)---4.0---2014-10-13',
'CAx-IF Rec.Pracs.---3D Tessellated Geometry---0.4---2014-09-14','2;1',
'CAx-IF Rec.Pracs.---User Defined Attributes---1.5---2016-08-15'),
/* implementation_level */ '2;1');

FILE_NAME(
/* name */ 'Plot Platter Part Studio - Linear Rail',
/* time_stamp */ '2026-08-02T03:40:04Z',
/* author */ (''),
/* organization */ (''),
/* preprocessor_version */ 'ST-DEVELOPER v20',
/* originating_system */ 'ONSHAPE BY PTC INC, 1.218',
/* authorisation */ '  ');

FILE_SCHEMA (('AP242_MANAGED_MODEL_BASED_3D_ENGINEERING_MIM_LF { 1 0 10303 442 3 1 4 }'));
ENDSEC;

DATA;
#10=SHAPE_REPRESENTATION_RELATIONSHIP('','',#429,#11);
#11=ADVANCED_BREP_SHAPE_REPRESENTATION('',(#427),#673);
#12=CYLINDRICAL_SURFACE('',#453,0.0016);
#13=CIRCLE('',#447,0.0016);
#14=CIRCLE('',#451,0.0016);
#15=ORIENTED_EDGE('',*,*,#127,.F.);
#16=ORIENTED_EDGE('',*,*,#128,.F.);
#17=ORIENTED_EDGE('',*,*,#129,.T.);
#18=ORIENTED_EDGE('',*,*,#130,.T.);
#19=ORIENTED_EDGE('',*,*,#131,.T.);
#20=ORIENTED_EDGE('',*,*,#132,.T.);
#21=ORIENTED_EDGE('',*,*,#133,.T.);
#22=ORIENTED_EDGE('',*,*,#134,.F.);
#23=ORIENTED_EDGE('',*,*,#135,.T.);
#24=ORIENTED_EDGE('',*,*,#136,.F.);
#25=ORIENTED_EDGE('',*,*,#137,.F.);
#26=ORIENTED_EDGE('',*,*,#138,.T.);
#27=ORIENTED_EDGE('',*,*,#139,.T.);
#28=ORIENTED_EDGE('',*,*,#140,.T.);
#29=ORIENTED_EDGE('',*,*,#141,.F.);
#30=ORIENTED_EDGE('',*,*,#142,.T.);
#31=ORIENTED_EDGE('',*,*,#128,.T.);
#32=ORIENTED_EDGE('',*,*,#143,.T.);
#33=ORIENTED_EDGE('',*,*,#144,.F.);
#34=ORIENTED_EDGE('',*,*,#145,.F.);
#35=ORIENTED_EDGE('',*,*,#146,.T.);
#36=ORIENTED_EDGE('',*,*,#133,.F.);
#37=ORIENTED_EDGE('',*,*,#147,.F.);
#38=ORIENTED_EDGE('',*,*,#148,.T.);
#39=ORIENTED_EDGE('',*,*,#149,.T.);
#40=ORIENTED_EDGE('',*,*,#150,.T.);
#41=ORIENTED_EDGE('',*,*,#151,.T.);
#42=ORIENTED_EDGE('',*,*,#152,.T.);
#43=ORIENTED_EDGE('',*,*,#153,.T.);
#44=ORIENTED_EDGE('',*,*,#154,.F.);
#45=ORIENTED_EDGE('',*,*,#155,.F.);
#46=ORIENTED_EDGE('',*,*,#141,.T.);
#47=ORIENTED_EDGE('',*,*,#156,.T.);
#48=ORIENTED_EDGE('',*,*,#148,.F.);
#49=ORIENTED_EDGE('',*,*,#157,.F.);
#50=ORIENTED_EDGE('',*,*,#158,.F.);
#51=ORIENTED_EDGE('',*,*,#159,.F.);
#52=ORIENTED_EDGE('',*,*,#160,.F.);
#53=ORIENTED_EDGE('',*,*,#129,.F.);
#54=ORIENTED_EDGE('',*,*,#142,.F.);
#55=ORIENTED_EDGE('',*,*,#160,.T.);
#56=ORIENTED_EDGE('',*,*,#161,.T.);
#57=ORIENTED_EDGE('',*,*,#162,.F.);
#58=ORIENTED_EDGE('',*,*,#163,.F.);
#59=ORIENTED_EDGE('',*,*,#164,.T.);
#60=ORIENTED_EDGE('',*,*,#136,.T.);
#61=ORIENTED_EDGE('',*,*,#165,.F.);
#62=ORIENTED_EDGE('',*,*,#166,.F.);
#63=ORIENTED_EDGE('',*,*,#167,.T.);
#64=ORIENTED_EDGE('',*,*,#163,.T.);
#65=ORIENTED_EDGE('',*,*,#168,.F.);
#66=ORIENTED_EDGE('',*,*,#169,.F.);
#67=ORIENTED_EDGE('',*,*,#170,.T.);
#68=ORIENTED_EDGE('',*,*,#166,.T.);
#69=ORIENTED_EDGE('',*,*,#171,.F.);
#70=ORIENTED_EDGE('',*,*,#153,.F.);
#71=ORIENTED_EDGE('',*,*,#172,.T.);
#72=ORIENTED_EDGE('',*,*,#169,.T.);
#73=ORIENTED_EDGE('',*,*,#132,.F.);
#74=ORIENTED_EDGE('',*,*,#173,.F.);
#75=ORIENTED_EDGE('',*,*,#157,.T.);
#76=ORIENTED_EDGE('',*,*,#147,.T.);
#77=ORIENTED_EDGE('',*,*,#131,.F.);
#78=ORIENTED_EDGE('',*,*,#174,.F.);
#79=ORIENTED_EDGE('',*,*,#158,.T.);
#80=ORIENTED_EDGE('',*,*,#173,.T.);
#81=ORIENTED_EDGE('',*,*,#130,.F.);
#82=ORIENTED_EDGE('',*,*,#161,.F.);
#83=ORIENTED_EDGE('',*,*,#159,.T.);
#84=ORIENTED_EDGE('',*,*,#174,.T.);
#85=ORIENTED_EDGE('',*,*,#175,.F.);
#86=ORIENTED_EDGE('',*,*,#137,.T.);
#87=ORIENTED_EDGE('',*,*,#164,.F.);
#88=ORIENTED_EDGE('',*,*,#167,.F.);
#89=ORIENTED_EDGE('',*,*,#170,.F.);
#90=ORIENTED_EDGE('',*,*,#172,.F.);
#91=ORIENTED_EDGE('',*,*,#152,.F.);
#92=ORIENTED_EDGE('',*,*,#135,.F.);
#93=ORIENTED_EDGE('',*,*,#176,.T.);
#94=ORIENTED_EDGE('',*,*,#154,.T.);
#95=ORIENTED_EDGE('',*,*,#171,.T.);
#96=ORIENTED_EDGE('',*,*,#168,.T.);
#97=ORIENTED_EDGE('',*,*,#165,.T.);
#98=ORIENTED_EDGE('',*,*,#162,.T.);
#99=ORIENTED_EDGE('',*,*,#138,.F.);
#100=ORIENTED_EDGE('',*,*,#175,.T.);
#101=ORIENTED_EDGE('',*,*,#151,.F.);
#102=ORIENTED_EDGE('',*,*,#177,.F.);
#103=ORIENTED_EDGE('',*,*,#178,.F.);
#104=ORIENTED_EDGE('',*,*,#139,.F.);
#105=ORIENTED_EDGE('',*,*,#177,.T.);
#106=ORIENTED_EDGE('',*,*,#150,.F.);
#107=ORIENTED_EDGE('',*,*,#179,.F.);
#108=ORIENTED_EDGE('',*,*,#140,.F.);
#109=ORIENTED_EDGE('',*,*,#179,.T.);
#110=ORIENTED_EDGE('',*,*,#149,.F.);
#111=ORIENTED_EDGE('',*,*,#156,.F.);
#112=ORIENTED_EDGE('',*,*,#155,.T.);
#113=ORIENTED_EDGE('',*,*,#176,.F.);
#114=ORIENTED_EDGE('',*,*,#134,.T.);
#115=ORIENTED_EDGE('',*,*,#180,.T.);
#116=ORIENTED_EDGE('',*,*,#181,.T.);
#117=ORIENTED_EDGE('',*,*,#145,.T.);
#118=ORIENTED_EDGE('',*,*,#180,.F.);
#119=ORIENTED_EDGE('',*,*,#144,.T.);
#120=ORIENTED_EDGE('',*,*,#182,.T.);
#121=ORIENTED_EDGE('',*,*,#182,.F.);
#122=ORIENTED_EDGE('',*,*,#143,.F.);
#123=ORIENTED_EDGE('',*,*,#127,.T.);
#124=ORIENTED_EDGE('',*,*,#146,.F.);
#125=ORIENTED_EDGE('',*,*,#178,.T.);
#126=ORIENTED_EDGE('',*,*,#181,.F.);
#127=EDGE_CURVE('',#183,#184,#221,.T.);
#128=EDGE_CURVE('',#185,#183,#222,.T.);
#129=EDGE_CURVE('',#185,#186,#223,.T.);
#130=EDGE_CURVE('',#186,#187,#224,.T.);
#131=EDGE_CURVE('',#187,#188,#225,.T.);
#132=EDGE_CURVE('',#188,#189,#226,.T.);
#133=EDGE_CURVE('',#189,#184,#227,.T.);
#134=EDGE_CURVE('',#190,#191,#228,.T.);
#135=EDGE_CURVE('',#190,#192,#229,.T.);
#136=EDGE_CURVE('',#193,#192,#230,.T.);
#137=EDGE_CURVE('',#194,#193,#231,.T.);
#138=EDGE_CURVE('',#194,#195,#232,.T.);
#139=EDGE_CURVE('',#195,#196,#233,.T.);
#140=EDGE_CURVE('',#196,#197,#234,.T.);
#141=EDGE_CURVE('',#198,#197,#235,.T.);
#142=EDGE_CURVE('',#198,#185,#236,.T.);
#143=EDGE_CURVE('',#183,#199,#237,.T.);
#144=EDGE_CURVE('',#191,#199,#238,.T.);
#145=EDGE_CURVE('',#200,#201,#239,.T.);
#146=EDGE_CURVE('',#200,#184,#240,.T.);
#147=EDGE_CURVE('',#202,#189,#241,.T.);
#148=EDGE_CURVE('',#202,#203,#242,.T.);
#149=EDGE_CURVE('',#203,#204,#243,.T.);
#150=EDGE_CURVE('',#204,#205,#244,.T.);
#151=EDGE_CURVE('',#205,#206,#245,.T.);
#152=EDGE_CURVE('',#206,#207,#246,.T.);
#153=EDGE_CURVE('',#207,#208,#247,.T.);
#154=EDGE_CURVE('',#209,#208,#248,.T.);
#155=EDGE_CURVE('',#201,#209,#249,.T.);
#156=EDGE_CURVE('',#197,#203,#250,.T.);
#157=EDGE_CURVE('',#210,#202,#251,.T.);
#158=EDGE_CURVE('',#211,#210,#252,.T.);
#159=EDGE_CURVE('',#212,#211,#253,.T.);
#160=EDGE_CURVE('',#198,#212,#254,.T.);
#161=EDGE_CURVE('',#212,#186,#255,.T.);
#162=EDGE_CURVE('',#213,#192,#256,.T.);
#163=EDGE_CURVE('',#214,#213,#257,.T.);
#164=EDGE_CURVE('',#214,#193,#258,.T.);
#165=EDGE_CURVE('',#215,#213,#259,.T.);
#166=EDGE_CURVE('',#216,#215,#260,.T.);
#167=EDGE_CURVE('',#216,#214,#261,.T.);
#168=EDGE_CURVE('',#217,#215,#262,.T.);
#169=EDGE_CURVE('',#218,#217,#263,.T.);
#170=EDGE_CURVE('',#218,#216,#264,.T.);
#171=EDGE_CURVE('',#208,#217,#265,.T.);
#172=EDGE_CURVE('',#207,#218,#266,.T.);
#173=EDGE_CURVE('',#210,#188,#267,.T.);
#174=EDGE_CURVE('',#211,#187,#268,.T.);
#175=EDGE_CURVE('',#194,#206,#269,.T.);
#176=EDGE_CURVE('',#190,#209,#270,.T.);
#177=EDGE_CURVE('',#195,#205,#271,.T.);
#178=EDGE_CURVE('',#219,#219,#13,.T.);
#179=EDGE_CURVE('',#196,#204,#272,.T.);
#180=EDGE_CURVE('',#191,#201,#273,.T.);
#181=EDGE_CURVE('',#220,#220,#14,.T.);
#182=EDGE_CURVE('',#199,#200,#274,.T.);
#183=VERTEX_POINT('',#559);
#184=VERTEX_POINT('',#560);
#185=VERTEX_POINT('',#562);
#186=VERTEX_POINT('',#564);
#187=VERTEX_POINT('',#566);
#188=VERTEX_POINT('',#568);
#189=VERTEX_POINT('',#570);
#190=VERTEX_POINT('',#574);
#191=VERTEX_POINT('',#575);
#192=VERTEX_POINT('',#577);
#193=VERTEX_POINT('',#579);
#194=VERTEX_POINT('',#581);
#195=VERTEX_POINT('',#583);
#196=VERTEX_POINT('',#585);
#197=VERTEX_POINT('',#587);
#198=VERTEX_POINT('',#589);
#199=VERTEX_POINT('',#592);
#200=VERTEX_POINT('',#596);
#201=VERTEX_POINT('',#597);
#202=VERTEX_POINT('',#600);
#203=VERTEX_POINT('',#602);
#204=VERTEX_POINT('',#604);
#205=VERTEX_POINT('',#606);
#206=VERTEX_POINT('',#608);
#207=VERTEX_POINT('',#610);
#208=VERTEX_POINT('',#612);
#209=VERTEX_POINT('',#614);
#210=VERTEX_POINT('',#619);
#211=VERTEX_POINT('',#621);
#212=VERTEX_POINT('',#623);
#213=VERTEX_POINT('',#629);
#214=VERTEX_POINT('',#631);
#215=VERTEX_POINT('',#635);
#216=VERTEX_POINT('',#637);
#217=VERTEX_POINT('',#641);
#218=VERTEX_POINT('',#643);
#219=VERTEX_POINT('',#661);
#220=VERTEX_POINT('',#668);
#221=LINE('',#558,#275);
#222=LINE('',#561,#276);
#223=LINE('',#563,#277);
#224=LINE('',#565,#278);
#225=LINE('',#567,#279);
#226=LINE('',#569,#280);
#227=LINE('',#571,#281);
#228=LINE('',#573,#282);
#229=LINE('',#576,#283);
#230=LINE('',#578,#284);
#231=LINE('',#580,#285);
#232=LINE('',#582,#286);
#233=LINE('',#584,#287);
#234=LINE('',#586,#288);
#235=LINE('',#588,#289);
#236=LINE('',#590,#290);
#237=LINE('',#591,#291);
#238=LINE('',#593,#292);
#239=LINE('',#595,#293);
#240=LINE('',#598,#294);
#241=LINE('',#599,#295);
#242=LINE('',#601,#296);
#243=LINE('',#603,#297);
#244=LINE('',#605,#298);
#245=LINE('',#607,#299);
#246=LINE('',#609,#300);
#247=LINE('',#611,#301);
#248=LINE('',#613,#302);
#249=LINE('',#615,#303);
#250=LINE('',#617,#304);
#251=LINE('',#618,#305);
#252=LINE('',#620,#306);
#253=LINE('',#622,#307);
#254=LINE('',#624,#308);
#255=LINE('',#626,#309);
#256=LINE('',#628,#310);
#257=LINE('',#630,#311);
#258=LINE('',#632,#312);
#259=LINE('',#634,#313);
#260=LINE('',#636,#314);
#261=LINE('',#638,#315);
#262=LINE('',#640,#316);
#263=LINE('',#642,#317);
#264=LINE('',#644,#318);
#265=LINE('',#646,#319);
#266=LINE('',#647,#320);
#267=LINE('',#649,#321);
#268=LINE('',#651,#322);
#269=LINE('',#654,#323);
#270=LINE('',#656,#324);
#271=LINE('',#658,#325);
#272=LINE('',#662,#326);
#273=LINE('',#665,#327);
#274=LINE('',#669,#328);
#275=VECTOR('',#458,1.);
#276=VECTOR('',#459,1.);
#277=VECTOR('',#460,1.);
#278=VECTOR('',#461,1.);
#279=VECTOR('',#462,1.);
#280=VECTOR('',#463,1.);
#281=VECTOR('',#464,1.);
#282=VECTOR('',#467,1.);
#283=VECTOR('',#468,1.);
#284=VECTOR('',#469,1.);
#285=VECTOR('',#470,1.);
#286=VECTOR('',#471,1.);
#287=VECTOR('',#472,1.);
#288=VECTOR('',#473,1.);
#289=VECTOR('',#474,1.);
#290=VECTOR('',#475,1.);
#291=VECTOR('',#476,1.);
#292=VECTOR('',#477,1.);
#293=VECTOR('',#480,1.);
#294=VECTOR('',#481,1.);
#295=VECTOR('',#482,1.);
#296=VECTOR('',#483,1.);
#297=VECTOR('',#484,1.);
#298=VECTOR('',#485,1.);
#299=VECTOR('',#486,1.);
#300=VECTOR('',#487,1.);
#301=VECTOR('',#488,1.);
#302=VECTOR('',#489,1.);
#303=VECTOR('',#490,1.);
#304=VECTOR('',#493,1.);
#305=VECTOR('',#494,1.);
#306=VECTOR('',#495,1.);
#307=VECTOR('',#496,1.);
#308=VECTOR('',#497,1.);
#309=VECTOR('',#500,1.);
#310=VECTOR('',#503,1.);
#311=VECTOR('',#504,1.);
#312=VECTOR('',#505,1.);
#313=VECTOR('',#508,1.);
#314=VECTOR('',#509,1.);
#315=VECTOR('',#510,1.);
#316=VECTOR('',#513,1.);
#317=VECTOR('',#514,1.);
#318=VECTOR('',#515,1.);
#319=VECTOR('',#518,1.);
#320=VECTOR('',#519,1.);
#321=VECTOR('',#522,1.);
#322=VECTOR('',#525,1.);
#323=VECTOR('',#530,1.);
#324=VECTOR('',#533,1.);
#325=VECTOR('',#536,1.);
#326=VECTOR('',#541,1.);
#327=VECTOR('',#546,1.);
#328=VECTOR('',#551,1.);
#329=EDGE_LOOP('',(#15,#16,#17,#18,#19,#20,#21));
#330=EDGE_LOOP('',(#22,#23,#24,#25,#26,#27,#28,#29,#30,#31,#32,#33));
#331=EDGE_LOOP('',(#34,#35,#36,#37,#38,#39,#40,#41,#42,#43,#44,#45));
#332=EDGE_LOOP('',(#46,#47,#48,#49,#50,#51,#52));
#333=EDGE_LOOP('',(#53,#54,#55,#56));
#334=EDGE_LOOP('',(#57,#58,#59,#60));
#335=EDGE_LOOP('',(#61,#62,#63,#64));
#336=EDGE_LOOP('',(#65,#66,#67,#68));
#337=EDGE_LOOP('',(#69,#70,#71,#72));
#338=EDGE_LOOP('',(#73,#74,#75,#76));
#339=EDGE_LOOP('',(#77,#78,#79,#80));
#340=EDGE_LOOP('',(#81,#82,#83,#84));
#341=EDGE_LOOP('',(#85,#86,#87,#88,#89,#90,#91));
#342=EDGE_LOOP('',(#92,#93,#94,#95,#96,#97,#98));
#343=EDGE_LOOP('',(#99,#100,#101,#102));
#344=EDGE_LOOP('',(#103));
#345=EDGE_LOOP('',(#104,#105,#106,#107));
#346=EDGE_LOOP('',(#108,#109,#110,#111));
#347=EDGE_LOOP('',(#112,#113,#114,#115));
#348=EDGE_LOOP('',(#116));
#349=EDGE_LOOP('',(#117,#118,#119,#120));
#350=EDGE_LOOP('',(#121,#122,#123,#124));
#351=EDGE_LOOP('',(#125));
#352=EDGE_LOOP('',(#126));
#353=FACE_BOUND('',#329,.T.);
#354=FACE_BOUND('',#330,.T.);
#355=FACE_BOUND('',#331,.T.);
#356=FACE_BOUND('',#332,.T.);
#357=FACE_BOUND('',#333,.T.);
#358=FACE_BOUND('',#334,.T.);
#359=FACE_BOUND('',#335,.T.);
#360=FACE_BOUND('',#336,.T.);
#361=FACE_BOUND('',#337,.T.);
#362=FACE_BOUND('',#338,.T.);
#363=FACE_BOUND('',#339,.T.);
#364=FACE_BOUND('',#340,.T.);
#365=FACE_BOUND('',#341,.T.);
#366=FACE_BOUND('',#342,.T.);
#367=FACE_BOUND('',#343,.T.);
#368=FACE_BOUND('',#344,.T.);
#369=FACE_BOUND('',#345,.T.);
#370=FACE_BOUND('',#346,.T.);
#371=FACE_BOUND('',#347,.T.);
#372=FACE_BOUND('',#348,.T.);
#373=FACE_BOUND('',#349,.T.);
#374=FACE_BOUND('',#350,.T.);
#375=FACE_BOUND('',#351,.T.);
#376=FACE_BOUND('',#352,.T.);
#377=PLANE('',#431);
#378=PLANE('',#432);
#379=PLANE('',#433);
#380=PLANE('',#434);
#381=PLANE('',#435);
#382=PLANE('',#436);
#383=PLANE('',#437);
#384=PLANE('',#438);
#385=PLANE('',#439);
#386=PLANE('',#440);
#387=PLANE('',#441);
#388=PLANE('',#442);
#389=PLANE('',#443);
#390=PLANE('',#444);
#391=PLANE('',#445);
#392=PLANE('',#446);
#393=PLANE('',#448);
#394=PLANE('',#449);
#395=PLANE('',#450);
#396=PLANE('',#452);
#397=ADVANCED_FACE('',(#353),#377,.F.);
#398=ADVANCED_FACE('',(#354),#378,.F.);
#399=ADVANCED_FACE('',(#355),#379,.T.);
#400=ADVANCED_FACE('',(#356),#380,.T.);
#401=ADVANCED_FACE('',(#357),#381,.T.);
#402=ADVANCED_FACE('',(#358),#382,.T.);
#403=ADVANCED_FACE('',(#359),#383,.T.);
#404=ADVANCED_FACE('',(#360),#384,.T.);
#405=ADVANCED_FACE('',(#361),#385,.T.);
#406=ADVANCED_FACE('',(#362),#386,.T.);
#407=ADVANCED_FACE('',(#363),#387,.T.);
#408=ADVANCED_FACE('',(#364),#388,.T.);
#409=ADVANCED_FACE('',(#365),#389,.T.);
#410=ADVANCED_FACE('',(#366),#390,.F.);
#411=ADVANCED_FACE('',(#367),#391,.T.);
#412=ADVANCED_FACE('',(#368,#369),#392,.T.);
#413=ADVANCED_FACE('',(#370),#393,.T.);
#414=ADVANCED_FACE('',(#371),#394,.F.);
#415=ADVANCED_FACE('',(#372,#373),#395,.F.);
#416=ADVANCED_FACE('',(#374),#396,.T.);
#417=ADVANCED_FACE('',(#375,#376),#12,.F.);
#418=CLOSED_SHELL('',(#397,#398,#399,#400,#401,#402,#403,#404,#405,#406,
#407,#408,#409,#410,#411,#412,#413,#414,#415,#416,#417));
#419=STYLED_ITEM('',(#420),#427);
#420=PRESENTATION_STYLE_ASSIGNMENT((#421));
#421=SURFACE_STYLE_USAGE(.BOTH.,#422);
#422=SURFACE_SIDE_STYLE('',(#423));
#423=SURFACE_STYLE_FILL_AREA(#424);
#424=FILL_AREA_STYLE('',(#425));
#425=FILL_AREA_STYLE_COLOUR('',#426);
#426=COLOUR_RGB('',0.498039215686275,0.498039215686275,0.498039215686275);
#427=MANIFOLD_SOLID_BREP('Linear Rail',#418);
#428=SHAPE_DEFINITION_REPRESENTATION(#678,#429);
#429=SHAPE_REPRESENTATION('Linear Rail',(#430),#673);
#430=AXIS2_PLACEMENT_3D('',#556,#454,#455);
#431=AXIS2_PLACEMENT_3D('',#557,#456,#457);
#432=AXIS2_PLACEMENT_3D('',#572,#465,#466);
#433=AXIS2_PLACEMENT_3D('',#594,#478,#479);
#434=AXIS2_PLACEMENT_3D('',#616,#491,#492);
#435=AXIS2_PLACEMENT_3D('',#625,#498,#499);
#436=AXIS2_PLACEMENT_3D('',#627,#501,#502);
#437=AXIS2_PLACEMENT_3D('',#633,#506,#507);
#438=AXIS2_PLACEMENT_3D('',#639,#511,#512);
#439=AXIS2_PLACEMENT_3D('',#645,#516,#517);
#440=AXIS2_PLACEMENT_3D('',#648,#520,#521);
#441=AXIS2_PLACEMENT_3D('',#650,#523,#524);
#442=AXIS2_PLACEMENT_3D('',#652,#526,#527);
#443=AXIS2_PLACEMENT_3D('',#653,#528,#529);
#444=AXIS2_PLACEMENT_3D('',#655,#531,#532);
#445=AXIS2_PLACEMENT_3D('',#657,#534,#535);
#446=AXIS2_PLACEMENT_3D('',#659,#537,#538);
#447=AXIS2_PLACEMENT_3D('',#660,#539,#540);
#448=AXIS2_PLACEMENT_3D('',#663,#542,#543);
#449=AXIS2_PLACEMENT_3D('',#664,#544,#545);
#450=AXIS2_PLACEMENT_3D('',#666,#547,#548);
#451=AXIS2_PLACEMENT_3D('',#667,#549,#550);
#452=AXIS2_PLACEMENT_3D('',#670,#552,#553);
#453=AXIS2_PLACEMENT_3D('',#671,#554,#555);
#454=DIRECTION('',(0.,0.,1.));
#455=DIRECTION('',(1.,0.,0.));
#456=DIRECTION('',(0.,0.,1.));
#457=DIRECTION('',(1.,0.,0.));
#458=DIRECTION('',(0.,1.,0.));
#459=DIRECTION('',(1.,2.33632791377348E-16,0.));
#460=DIRECTION('',(-3.33907138797863E-16,1.,0.));
#461=DIRECTION('',(0.707106781186548,0.707106781186547,0.));
#462=DIRECTION('',(-0.707106781186547,0.707106781186548,0.));
#463=DIRECTION('',(0.,1.,0.));
#464=DIRECTION('',(1.,0.,0.));
#465=DIRECTION('',(-2.33632791377348E-16,1.,0.));
#466=DIRECTION('',(1.,2.33632791377348E-16,0.));
#467=DIRECTION('',(0.5,1.16816395688674E-16,0.866025403784438));
#468=DIRECTION('',(1.,2.33632791377348E-16,0.));
#469=DIRECTION('',(0.,0.,-1.));
#470=DIRECTION('',(1.,2.33632791377348E-16,0.));
#471=DIRECTION('',(0.5,1.16816395688674E-16,0.866025403784438));
#472=DIRECTION('',(-1.,-2.33632791377348E-16,0.));
#473=DIRECTION('',(0.5,1.16816395688674E-16,-0.866025403784439));
#474=DIRECTION('',(1.,2.33632791377348E-16,0.));
#475=DIRECTION('',(0.,0.,-1.));
#476=DIRECTION('',(-0.5,-1.16816395688674E-16,0.866025403784439));
#477=DIRECTION('',(-1.,-2.33632791377348E-16,0.));
#478=DIRECTION('',(0.,1.,0.));
#479=DIRECTION('',(1.,0.,0.));
#480=DIRECTION('',(1.,0.,0.));
#481=DIRECTION('',(0.5,0.,-0.866025403784439));
#482=DIRECTION('',(0.,0.,-1.));
#483=DIRECTION('',(1.,0.,0.));
#484=DIRECTION('',(-0.5,0.,0.866025403784439));
#485=DIRECTION('',(1.,0.,0.));
#486=DIRECTION('',(-0.5,0.,-0.866025403784438));
#487=DIRECTION('',(1.,0.,0.));
#488=DIRECTION('',(0.,0.,-1.));
#489=DIRECTION('',(1.,0.,0.));
#490=DIRECTION('',(-0.5,0.,-0.866025403784438));
#491=DIRECTION('',(0.,0.,1.));
#492=DIRECTION('',(1.,0.,0.));
#493=DIRECTION('',(0.,1.,0.));
#494=DIRECTION('',(0.,1.,0.));
#495=DIRECTION('',(-0.707106781186547,0.707106781186548,0.));
#496=DIRECTION('',(0.707106781186548,0.707106781186547,0.));
#497=DIRECTION('',(-3.33907138797863E-16,1.,0.));
#498=DIRECTION('',(-1.,-3.33907138797863E-16,0.));
#499=DIRECTION('',(-3.33907138797863E-16,1.,0.));
#500=DIRECTION('',(0.,0.,-1.));
#501=DIRECTION('',(1.,0.,0.));
#502=DIRECTION('',(0.,-1.,0.));
#503=DIRECTION('',(0.,-1.,0.));
#504=DIRECTION('',(0.,0.,-1.));
#505=DIRECTION('',(0.,-1.,0.));
#506=DIRECTION('',(0.707106781186547,0.707106781186548,0.));
#507=DIRECTION('',(0.707106781186548,-0.707106781186547,0.));
#508=DIRECTION('',(0.707106781186548,-0.707106781186547,0.));
#509=DIRECTION('',(0.,0.,-1.));
#510=DIRECTION('',(0.707106781186548,-0.707106781186547,0.));
#511=DIRECTION('',(0.707106781186549,-0.707106781186547,0.));
#512=DIRECTION('',(-0.707106781186547,-0.707106781186549,0.));
#513=DIRECTION('',(-0.707106781186547,-0.707106781186549,0.));
#514=DIRECTION('',(0.,0.,-1.));
#515=DIRECTION('',(-0.707106781186547,-0.707106781186549,0.));
#516=DIRECTION('',(1.,0.,0.));
#517=DIRECTION('',(0.,-1.,0.));
#518=DIRECTION('',(0.,-1.,0.));
#519=DIRECTION('',(0.,-1.,0.));
#520=DIRECTION('',(-1.,0.,0.));
#521=DIRECTION('',(0.,1.,0.));
#522=DIRECTION('',(0.,0.,-1.));
#523=DIRECTION('',(-0.707106781186548,-0.707106781186547,0.));
#524=DIRECTION('',(-0.707106781186547,0.707106781186548,0.));
#525=DIRECTION('',(0.,0.,-1.));
#526=DIRECTION('',(-0.707106781186547,0.707106781186548,0.));
#527=DIRECTION('',(0.707106781186548,0.707106781186547,0.));
#528=DIRECTION('',(0.,0.,1.));
#529=DIRECTION('',(1.,0.,0.));
#530=DIRECTION('',(0.,1.,0.));
#531=DIRECTION('',(0.,0.,1.));
#532=DIRECTION('',(1.,0.,0.));
#533=DIRECTION('',(0.,1.,0.));
#534=DIRECTION('',(0.866025403784438,0.,-0.5));
#535=DIRECTION('',(-0.5,0.,-0.866025403784438));
#536=DIRECTION('',(0.,1.,0.));
#537=DIRECTION('',(0.,0.,1.));
#538=DIRECTION('',(0.,-1.,0.));
#539=DIRECTION('',(0.,0.,1.));
#540=DIRECTION('',(0.,-1.,0.));
#541=DIRECTION('',(0.,1.,0.));
#542=DIRECTION('',(-0.866025403784439,0.,-0.5));
#543=DIRECTION('',(-0.5,0.,0.866025403784439));
#544=DIRECTION('',(0.866025403784438,0.,-0.5));
#545=DIRECTION('',(-0.5,0.,-0.866025403784438));
#546=DIRECTION('',(0.,1.,0.));
#547=DIRECTION('',(0.,0.,1.));
#548=DIRECTION('',(0.,-1.,0.));
#549=DIRECTION('',(0.,0.,1.));
#550=DIRECTION('',(0.,-1.,0.));
#551=DIRECTION('',(0.,1.,0.));
#552=DIRECTION('',(0.866025403784439,0.,0.5));
#553=DIRECTION('',(0.5,0.,-0.866025403784439));
#554=DIRECTION('',(0.,0.,-1.));
#555=DIRECTION('',(0.,1.,0.));
#556=CARTESIAN_POINT('',(0.,0.,0.));
#557=CARTESIAN_POINT('',(0.,1.04083408558608E-17,0.));
#558=CARTESIAN_POINT('',(-0.00467320508075689,-0.022609965,0.));
#559=CARTESIAN_POINT('',(-0.00467320508075689,-0.022607965,0.));
#560=CARTESIAN_POINT('',(-0.00467320508075689,-0.011757965,0.));
#561=CARTESIAN_POINT('',(1.7347234759768E-18,-0.022607965,0.));
#562=CARTESIAN_POINT('',(-0.01485,-0.022607965,0.));
#563=CARTESIAN_POINT('',(-0.01485,-0.0200103513607376,0.));
#564=CARTESIAN_POINT('',(-0.01485,-0.0174127377214753,0.));
#565=CARTESIAN_POINT('',(-0.0137582738110422,-0.0163210115325175,0.));
#566=CARTESIAN_POINT('',(-0.0126665476220844,-0.0152292853435597,0.));
#567=CARTESIAN_POINT('',(-0.0137582738110422,-0.0141375591546018,0.));
#568=CARTESIAN_POINT('',(-0.01485,-0.013045832965644,0.));
#569=CARTESIAN_POINT('',(-0.01485,-0.012401898982822,0.));
#570=CARTESIAN_POINT('',(-0.01485,-0.011757965,0.));
#571=CARTESIAN_POINT('',(0.,-0.011757965,0.));
#572=CARTESIAN_POINT('',(1.7347234759768E-18,-0.022607965,0.11));
#573=CARTESIAN_POINT('',(0.0061948557158515,-0.022607965,0.00263557621135331));
#574=CARTESIAN_POINT('',(0.00467320508075689,-0.022607965,0.));
#575=CARTESIAN_POINT('',(0.00771650635094611,-0.022607965,0.00527115242270663));
#576=CARTESIAN_POINT('',(1.7347234759768E-18,-0.022607965,0.));
#577=CARTESIAN_POINT('',(0.01485,-0.022607965,0.));
#578=CARTESIAN_POINT('',(0.01485,-0.022607965,0.11));
#579=CARTESIAN_POINT('',(0.01485,-0.022607965,0.11));
#580=CARTESIAN_POINT('',(1.7347234759768E-18,-0.022607965,0.11));
#581=CARTESIAN_POINT('',(0.0045,-0.022607965,0.11));
#582=CARTESIAN_POINT('',(0.006,-0.022607965,0.112598076211353));
#583=CARTESIAN_POINT('',(0.0075,-0.022607965,0.115196152422707));
#584=CARTESIAN_POINT('',(4.33213603411446E-19,-0.022607965,0.115196152422707));
#585=CARTESIAN_POINT('',(-0.0075,-0.022607965,0.115196152422707));
#586=CARTESIAN_POINT('',(-0.006,-0.022607965,0.112598076211353));
#587=CARTESIAN_POINT('',(-0.0045,-0.022607965,0.11));
#588=CARTESIAN_POINT('',(1.7347234759768E-18,-0.022607965,0.11));
#589=CARTESIAN_POINT('',(-0.01485,-0.022607965,0.11));
#590=CARTESIAN_POINT('',(-0.01485,-0.022607965,0.11));
#591=CARTESIAN_POINT('',(-0.0061948557158515,-0.022607965,0.00263557621135332));
#592=CARTESIAN_POINT('',(-0.00771650635094611,-0.022607965,0.00527115242270663));
#593=CARTESIAN_POINT('',(8.66894472405648E-19,-0.022607965,0.00527115242270663));
#594=CARTESIAN_POINT('',(0.,-0.011757965,0.11));
#595=CARTESIAN_POINT('',(0.,-0.011757965,0.00527115242270664));
#596=CARTESIAN_POINT('',(-0.00771650635094611,-0.011757965,0.00527115242270663));
#597=CARTESIAN_POINT('',(0.00771650635094611,-0.011757965,0.00527115242270662));
#598=CARTESIAN_POINT('',(-0.0511363010187118,-0.011757965,0.080476442841485));
#599=CARTESIAN_POINT('',(-0.01485,-0.011757965,0.11));
#600=CARTESIAN_POINT('',(-0.01485,-0.011757965,0.11));
#601=CARTESIAN_POINT('',(0.,-0.011757965,0.11));
#602=CARTESIAN_POINT('',(-0.0045,-0.011757965,0.11));
#603=CARTESIAN_POINT('',(-0.006,-0.011757965,0.112598076211353));
#604=CARTESIAN_POINT('',(-0.0075,-0.011757965,0.115196152422707));
#605=CARTESIAN_POINT('',(4.33680868994202E-19,-0.011757965,0.115196152422707));
#606=CARTESIAN_POINT('',(0.0075,-0.011757965,0.115196152422707));
#607=CARTESIAN_POINT('',(0.006,-0.011757965,0.112598076211353));
#608=CARTESIAN_POINT('',(0.0045,-0.011757965,0.11));
#609=CARTESIAN_POINT('',(0.,-0.011757965,0.11));
#610=CARTESIAN_POINT('',(0.01485,-0.011757965,0.11));
#611=CARTESIAN_POINT('',(0.01485,-0.011757965,0.11));
#612=CARTESIAN_POINT('',(0.01485,-0.011757965,0.));
#613=CARTESIAN_POINT('',(0.,-0.011757965,0.));
#614=CARTESIAN_POINT('',(0.00467320508075689,-0.011757965,0.));
#615=CARTESIAN_POINT('',(0.0511363010187118,-0.011757965,0.080476442841485));
#616=CARTESIAN_POINT('',(0.,1.04083408558608E-17,0.11));
#617=CARTESIAN_POINT('',(-0.0045,-0.022609965,0.11));
#618=CARTESIAN_POINT('',(-0.01485,-0.012401898982822,0.11));
#619=CARTESIAN_POINT('',(-0.01485,-0.013045832965644,0.11));
#620=CARTESIAN_POINT('',(-0.0137582738110422,-0.0141375591546018,0.11));
#621=CARTESIAN_POINT('',(-0.0126665476220844,-0.0152292853435597,0.11));
#622=CARTESIAN_POINT('',(-0.0137582738110422,-0.0163210115325175,0.11));
#623=CARTESIAN_POINT('',(-0.01485,-0.0174127377214753,0.11));
#624=CARTESIAN_POINT('',(-0.01485,-0.0200103513607376,0.11));
#625=CARTESIAN_POINT('',(-0.01485,-0.0200103513607376,0.11));
#626=CARTESIAN_POINT('',(-0.01485,-0.0174127377214753,0.11));
#627=CARTESIAN_POINT('',(0.01485,-0.0200103513607376,0.11));
#628=CARTESIAN_POINT('',(0.01485,-0.0200103513607376,0.));
#629=CARTESIAN_POINT('',(0.01485,-0.0174127377214753,0.));
#630=CARTESIAN_POINT('',(0.01485,-0.0174127377214753,0.11));
#631=CARTESIAN_POINT('',(0.01485,-0.0174127377214753,0.11));
#632=CARTESIAN_POINT('',(0.01485,-0.0200103513607376,0.11));
#633=CARTESIAN_POINT('',(0.0137582738110422,-0.0163210115325175,0.11));
#634=CARTESIAN_POINT('',(0.0137582738110422,-0.0163210115325175,0.));
#635=CARTESIAN_POINT('',(0.0126665476220844,-0.0152292853435597,0.));
#636=CARTESIAN_POINT('',(0.0126665476220844,-0.0152292853435597,0.11));
#637=CARTESIAN_POINT('',(0.0126665476220844,-0.0152292853435597,0.11));
#638=CARTESIAN_POINT('',(0.0137582738110422,-0.0163210115325175,0.11));
#639=CARTESIAN_POINT('',(0.0137582738110422,-0.0141375591546018,0.11));
#640=CARTESIAN_POINT('',(0.0137582738110422,-0.0141375591546018,0.));
#641=CARTESIAN_POINT('',(0.01485,-0.013045832965644,0.));
#642=CARTESIAN_POINT('',(0.01485,-0.013045832965644,0.11));
#643=CARTESIAN_POINT('',(0.01485,-0.013045832965644,0.11));
#644=CARTESIAN_POINT('',(0.0137582738110422,-0.0141375591546018,0.11));
#645=CARTESIAN_POINT('',(0.01485,-0.012401898982822,0.11));
#646=CARTESIAN_POINT('',(0.01485,-0.012401898982822,0.));
#647=CARTESIAN_POINT('',(0.01485,-0.012401898982822,0.11));
#648=CARTESIAN_POINT('',(-0.01485,-0.012401898982822,0.11));
#649=CARTESIAN_POINT('',(-0.01485,-0.013045832965644,0.11));
#650=CARTESIAN_POINT('',(-0.0137582738110422,-0.0141375591546018,0.11));
#651=CARTESIAN_POINT('',(-0.0126665476220844,-0.0152292853435597,0.11));
#652=CARTESIAN_POINT('',(-0.0137582738110422,-0.0163210115325175,0.11));
#653=CARTESIAN_POINT('',(0.,1.04083408558608E-17,0.11));
#654=CARTESIAN_POINT('',(0.0045,-0.022609965,0.11));
#655=CARTESIAN_POINT('',(0.,1.04083408558608E-17,0.));
#656=CARTESIAN_POINT('',(0.00467320508075689,-0.022609965,0.));
#657=CARTESIAN_POINT('',(0.006,-0.022609965,0.112598076211353));
#658=CARTESIAN_POINT('',(0.0075,-0.022609965,0.115196152422707));
#659=CARTESIAN_POINT('',(4.33680868994202E-19,-0.022609965,0.115196152422707));
#660=CARTESIAN_POINT('',(0.,-0.017182965,0.115196152422707));
#661=CARTESIAN_POINT('',(0.,-0.018782965,0.115196152422707));
#662=CARTESIAN_POINT('',(-0.0075,-0.022609965,0.115196152422707));
#663=CARTESIAN_POINT('',(-0.006,-0.022609965,0.112598076211353));
#664=CARTESIAN_POINT('',(0.0061948557158515,-0.022609965,0.00263557621135331));
#665=CARTESIAN_POINT('',(0.00771650635094611,-0.022609965,0.00527115242270663));
#666=CARTESIAN_POINT('',(8.67361737988404E-19,-0.022609965,0.00527115242270663));
#667=CARTESIAN_POINT('',(0.,-0.017182965,0.00527115242270665));
#668=CARTESIAN_POINT('',(0.,-0.018782965,0.00527115242270665));
#669=CARTESIAN_POINT('',(-0.00771650635094611,-0.022609965,0.00527115242270663));
#670=CARTESIAN_POINT('',(-0.0061948557158515,-0.022609965,0.00263557621135332));
#671=CARTESIAN_POINT('',(0.,-0.017182965,0.45));
#672=MECHANICAL_DESIGN_GEOMETRIC_PRESENTATION_REPRESENTATION('',(#419),
#673);
#673=(
GEOMETRIC_REPRESENTATION_CONTEXT(3)
GLOBAL_UNCERTAINTY_ASSIGNED_CONTEXT((#674))
GLOBAL_UNIT_ASSIGNED_CONTEXT((#677,#676,#675))
REPRESENTATION_CONTEXT('Linear Rail','TOP_LEVEL_ASSEMBLY_PART')
);
#674=UNCERTAINTY_MEASURE_WITH_UNIT(LENGTH_MEASURE(1.E-8),#677,
'DISTANCE_ACCURACY_VALUE','Maximum Tolerance applied to model');
#675=(
NAMED_UNIT(*)
SI_UNIT($,.STERADIAN.)
SOLID_ANGLE_UNIT()
);
#676=(
NAMED_UNIT(*)
PLANE_ANGLE_UNIT()
SI_UNIT($,.RADIAN.)
);
#677=(
LENGTH_UNIT()
NAMED_UNIT(*)
SI_UNIT($,.METRE.)
);
#678=PRODUCT_DEFINITION_SHAPE('','',#679);
#679=PRODUCT_DEFINITION('','',#681,#680);
#680=PRODUCT_DEFINITION_CONTEXT('',#687,'design');
#681=PRODUCT_DEFINITION_FORMATION_WITH_SPECIFIED_SOURCE('','',#683,
 .NOT_KNOWN.);
#682=PRODUCT_RELATED_PRODUCT_CATEGORY('','',(#683));
#683=PRODUCT('Linear Rail','Linear Rail','Linear Rail',(#685));
#684=PRODUCT_CATEGORY('','');
#685=PRODUCT_CONTEXT('',#687,'mechanical');
#686=APPLICATION_PROTOCOL_DEFINITION('international standard',
'ap242_managed_model_based_3d_engineering',2020,#687);
#687=APPLICATION_CONTEXT('managed model based 3d engineering');
ENDSEC;
END-ISO-10303-21;
