ISO-10303-21;
HEADER;
/* Generated by software containing ST-Developer
 * from STEP Tools, Inc. (www.steptools.com) 
 */
/* OPTION: using custom renumber hook */

FILE_DESCRIPTION(
/* description */ ('STEP AP242 Edition 2',
'CAx-IF Rec.Pracs.---Representation and Presentation of Product Manufa
cturing Information (PMI)---4.0---2014-10-13',
'CAx-IF Rec.Pracs.---3D Tessellated Geometry---0.4---2014-09-14','2;1',
'CAx-IF Rec.Pracs.---User Defined Attributes---1.5---2016-08-15'),
/* implementation_level */ '2;1');

FILE_NAME(
/* name */ 'Plot Platter Part Studio - End Rod Plate Z-Axis',
/* time_stamp */ '2026-08-02T03:40:33Z',
/* author */ (''),
/* organization */ (''),
/* preprocessor_version */ 'ST-DEVELOPER v20',
/* originating_system */ 'ONSHAPE BY PTC INC, 1.218',
/* authorisation */ '  ');

FILE_SCHEMA (('AP242_MANAGED_MODEL_BASED_3D_ENGINEERING_MIM_LF { 1 0 10303 442 3 1 4 }'));
ENDSEC;

DATA;
#10=SHAPE_REPRESENTATION_RELATIONSHIP('','',#876,#11);
#11=ADVANCED_BREP_SHAPE_REPRESENTATION('',(#874),#1459);
#12=ELLIPSE('',#927,0.00825,0.004125);
#13=ELLIPSE('',#928,0.00825,0.004125);
#14=ELLIPSE('',#932,0.00825,0.004125);
#15=ELLIPSE('',#933,0.00825,0.004125);
#16=B_SPLINE_CURVE_WITH_KNOTS('',3,(#1216,#1217,#1218,#1219,#1220,#1221,
#1222,#1223,#1224,#1225,#1226),.UNSPECIFIED.,.T.,.F.,(1,1,1,1,1,1,1,1,1,
1,1,1,1,1,1),(-0.00379462529454555,-0.0025297501963637,-0.00126487509818185,
0.,0.00126487509818185,0.0025297501963637,0.00379462529454555,0.0050595003927274,
0.00632437549090926,0.00758925058909111,0.00885412568727296,0.0101190007854548,
0.0113838758836367,0.0126487509818185,0.0139136260800004),.UNSPECIFIED.);
#17=B_SPLINE_CURVE_WITH_KNOTS('',3,(#1420,#1421,#1422,#1423,#1424,#1425,
#1426,#1427,#1428,#1429,#1430),.UNSPECIFIED.,.T.,.F.,(1,1,1,1,1,1,1,1,1,
1,1,1,1,1,1),(-0.00379363553091536,-0.00252909035394356,-0.00126454517697177,
2.84118897751748E-17,0.00126454517697182,0.00252909035394362,0.00379363553091542,
0.00505818070788721,0.00632272588485901,0.0075872710618308,0.0088518162388026,
0.0101163614157744,0.0113809065927462,0.012645451769718,0.0139099969466898),
 .UNSPECIFIED.);
#18=CIRCLE('',#881,0.004125);
#19=CIRCLE('',#882,0.004125);
#20=CIRCLE('',#884,0.004125);
#21=CIRCLE('',#886,0.001);
#22=CIRCLE('',#887,0.001);
#23=CIRCLE('',#888,0.001);
#24=CIRCLE('',#889,0.003);
#25=CIRCLE('',#890,0.003);
#26=CIRCLE('',#891,0.003);
#27=CIRCLE('',#892,0.003);
#28=CIRCLE('',#893,0.001);
#29=CIRCLE('',#894,0.001);
#30=CIRCLE('',#895,0.001);
#31=CIRCLE('',#900,0.003);
#32=CIRCLE('',#902,0.0016);
#33=CIRCLE('',#904,0.003);
#34=CIRCLE('',#911,0.003);
#35=CIRCLE('',#913,0.0016);
#36=CIRCLE('',#915,0.003);
#37=CIRCLE('',#919,0.001);
#38=CIRCLE('',#920,0.001);
#39=CIRCLE('',#921,0.004125);
#40=CIRCLE('',#922,0.001);
#41=CIRCLE('',#923,0.001);
#42=CIRCLE('',#924,0.001);
#43=CIRCLE('',#925,0.001);
#44=CIRCLE('',#930,0.004125);
#45=CIRCLE('',#936,0.004125);
#46=CIRCLE('',#937,0.004125);
#47=CYLINDRICAL_SURFACE('',#880,0.004125);
#48=CYLINDRICAL_SURFACE('',#899,0.003);
#49=CYLINDRICAL_SURFACE('',#903,0.003);
#50=CYLINDRICAL_SURFACE('',#910,0.003);
#51=CYLINDRICAL_SURFACE('',#914,0.003);
#52=CYLINDRICAL_SURFACE('',#935,0.004125);
#53=CYLINDRICAL_SURFACE('',#940,0.0016);
#54=CYLINDRICAL_SURFACE('',#941,0.0016);
#55=CYLINDRICAL_SURFACE('',#942,0.001);
#56=CYLINDRICAL_SURFACE('',#943,0.001);
#57=CYLINDRICAL_SURFACE('',#950,0.001);
#58=CYLINDRICAL_SURFACE('',#951,0.001);
#59=CYLINDRICAL_SURFACE('',#952,0.001);
#60=CYLINDRICAL_SURFACE('',#953,0.001);
#61=ORIENTED_EDGE('',*,*,#299,.F.);
#62=ORIENTED_EDGE('',*,*,#300,.T.);
#63=ORIENTED_EDGE('',*,*,#301,.T.);
#64=ORIENTED_EDGE('',*,*,#302,.F.);
#65=ORIENTED_EDGE('',*,*,#303,.F.);
#66=ORIENTED_EDGE('',*,*,#304,.T.);
#67=ORIENTED_EDGE('',*,*,#305,.T.);
#68=ORIENTED_EDGE('',*,*,#306,.F.);
#69=ORIENTED_EDGE('',*,*,#307,.T.);
#70=ORIENTED_EDGE('',*,*,#308,.F.);
#71=ORIENTED_EDGE('',*,*,#309,.T.);
#72=ORIENTED_EDGE('',*,*,#310,.F.);
#73=ORIENTED_EDGE('',*,*,#311,.T.);
#74=ORIENTED_EDGE('',*,*,#312,.T.);
#75=ORIENTED_EDGE('',*,*,#313,.T.);
#76=ORIENTED_EDGE('',*,*,#314,.F.);
#77=ORIENTED_EDGE('',*,*,#315,.T.);
#78=ORIENTED_EDGE('',*,*,#316,.F.);
#79=ORIENTED_EDGE('',*,*,#317,.F.);
#80=ORIENTED_EDGE('',*,*,#305,.F.);
#81=ORIENTED_EDGE('',*,*,#318,.T.);
#82=ORIENTED_EDGE('',*,*,#319,.T.);
#83=ORIENTED_EDGE('',*,*,#320,.T.);
#84=ORIENTED_EDGE('',*,*,#321,.F.);
#85=ORIENTED_EDGE('',*,*,#322,.T.);
#86=ORIENTED_EDGE('',*,*,#323,.F.);
#87=ORIENTED_EDGE('',*,*,#324,.F.);
#88=ORIENTED_EDGE('',*,*,#325,.T.);
#89=ORIENTED_EDGE('',*,*,#326,.T.);
#90=ORIENTED_EDGE('',*,*,#327,.T.);
#91=ORIENTED_EDGE('',*,*,#328,.T.);
#92=ORIENTED_EDGE('',*,*,#329,.F.);
#93=ORIENTED_EDGE('',*,*,#330,.T.);
#94=ORIENTED_EDGE('',*,*,#331,.T.);
#95=ORIENTED_EDGE('',*,*,#332,.T.);
#96=ORIENTED_EDGE('',*,*,#333,.T.);
#97=ORIENTED_EDGE('',*,*,#334,.F.);
#98=ORIENTED_EDGE('',*,*,#335,.T.);
#99=ORIENTED_EDGE('',*,*,#336,.F.);
#100=ORIENTED_EDGE('',*,*,#301,.F.);
#101=ORIENTED_EDGE('',*,*,#337,.T.);
#102=ORIENTED_EDGE('',*,*,#338,.T.);
#103=ORIENTED_EDGE('',*,*,#339,.F.);
#104=ORIENTED_EDGE('',*,*,#340,.F.);
#105=ORIENTED_EDGE('',*,*,#341,.F.);
#106=ORIENTED_EDGE('',*,*,#308,.T.);
#107=ORIENTED_EDGE('',*,*,#342,.F.);
#108=ORIENTED_EDGE('',*,*,#343,.F.);
#109=ORIENTED_EDGE('',*,*,#344,.T.);
#110=ORIENTED_EDGE('',*,*,#345,.T.);
#111=ORIENTED_EDGE('',*,*,#342,.T.);
#112=ORIENTED_EDGE('',*,*,#346,.F.);
#113=ORIENTED_EDGE('',*,*,#347,.F.);
#114=ORIENTED_EDGE('',*,*,#348,.T.);
#115=ORIENTED_EDGE('',*,*,#343,.T.);
#116=ORIENTED_EDGE('',*,*,#348,.F.);
#117=ORIENTED_EDGE('',*,*,#349,.F.);
#118=ORIENTED_EDGE('',*,*,#350,.T.);
#119=ORIENTED_EDGE('',*,*,#344,.F.);
#120=ORIENTED_EDGE('',*,*,#350,.F.);
#121=ORIENTED_EDGE('',*,*,#351,.T.);
#122=ORIENTED_EDGE('',*,*,#352,.T.);
#123=ORIENTED_EDGE('',*,*,#333,.F.);
#124=ORIENTED_EDGE('',*,*,#353,.F.);
#125=ORIENTED_EDGE('',*,*,#354,.T.);
#126=ORIENTED_EDGE('',*,*,#355,.T.);
#127=ORIENTED_EDGE('',*,*,#356,.F.);
#128=ORIENTED_EDGE('',*,*,#334,.T.);
#129=ORIENTED_EDGE('',*,*,#355,.F.);
#130=ORIENTED_EDGE('',*,*,#357,.F.);
#131=ORIENTED_EDGE('',*,*,#358,.T.);
#132=ORIENTED_EDGE('',*,*,#335,.F.);
#133=ORIENTED_EDGE('',*,*,#358,.F.);
#134=ORIENTED_EDGE('',*,*,#359,.T.);
#135=ORIENTED_EDGE('',*,*,#360,.T.);
#136=ORIENTED_EDGE('',*,*,#336,.T.);
#137=ORIENTED_EDGE('',*,*,#360,.F.);
#138=ORIENTED_EDGE('',*,*,#361,.F.);
#139=ORIENTED_EDGE('',*,*,#302,.T.);
#140=ORIENTED_EDGE('',*,*,#316,.T.);
#141=ORIENTED_EDGE('',*,*,#362,.T.);
#142=ORIENTED_EDGE('',*,*,#363,.F.);
#143=ORIENTED_EDGE('',*,*,#364,.T.);
#144=ORIENTED_EDGE('',*,*,#317,.T.);
#145=ORIENTED_EDGE('',*,*,#364,.F.);
#146=ORIENTED_EDGE('',*,*,#365,.F.);
#147=ORIENTED_EDGE('',*,*,#306,.T.);
#148=ORIENTED_EDGE('',*,*,#323,.T.);
#149=ORIENTED_EDGE('',*,*,#366,.T.);
#150=ORIENTED_EDGE('',*,*,#367,.F.);
#151=ORIENTED_EDGE('',*,*,#368,.T.);
#152=ORIENTED_EDGE('',*,*,#324,.T.);
#153=ORIENTED_EDGE('',*,*,#368,.F.);
#154=ORIENTED_EDGE('',*,*,#369,.F.);
#155=ORIENTED_EDGE('',*,*,#370,.T.);
#156=ORIENTED_EDGE('',*,*,#325,.F.);
#157=ORIENTED_EDGE('',*,*,#370,.F.);
#158=ORIENTED_EDGE('',*,*,#371,.T.);
#159=ORIENTED_EDGE('',*,*,#372,.T.);
#160=ORIENTED_EDGE('',*,*,#373,.F.);
#161=ORIENTED_EDGE('',*,*,#326,.F.);
#162=ORIENTED_EDGE('',*,*,#372,.F.);
#163=ORIENTED_EDGE('',*,*,#374,.T.);
#164=ORIENTED_EDGE('',*,*,#375,.T.);
#165=ORIENTED_EDGE('',*,*,#327,.F.);
#166=ORIENTED_EDGE('',*,*,#375,.F.);
#167=ORIENTED_EDGE('',*,*,#376,.T.);
#168=ORIENTED_EDGE('',*,*,#377,.T.);
#169=ORIENTED_EDGE('',*,*,#378,.F.);
#170=ORIENTED_EDGE('',*,*,#328,.F.);
#171=ORIENTED_EDGE('',*,*,#377,.F.);
#172=ORIENTED_EDGE('',*,*,#379,.T.);
#173=ORIENTED_EDGE('',*,*,#353,.T.);
#174=ORIENTED_EDGE('',*,*,#332,.F.);
#175=ORIENTED_EDGE('',*,*,#380,.F.);
#176=ORIENTED_EDGE('',*,*,#313,.F.);
#177=ORIENTED_EDGE('',*,*,#345,.F.);
#178=ORIENTED_EDGE('',*,*,#352,.F.);
#179=ORIENTED_EDGE('',*,*,#381,.T.);
#180=ORIENTED_EDGE('',*,*,#346,.T.);
#181=ORIENTED_EDGE('',*,*,#382,.T.);
#182=ORIENTED_EDGE('',*,*,#383,.T.);
#183=ORIENTED_EDGE('',*,*,#384,.T.);
#184=ORIENTED_EDGE('',*,*,#307,.F.);
#185=ORIENTED_EDGE('',*,*,#363,.T.);
#186=ORIENTED_EDGE('',*,*,#385,.T.);
#187=ORIENTED_EDGE('',*,*,#386,.T.);
#188=ORIENTED_EDGE('',*,*,#387,.T.);
#189=ORIENTED_EDGE('',*,*,#388,.F.);
#190=ORIENTED_EDGE('',*,*,#389,.T.);
#191=ORIENTED_EDGE('',*,*,#299,.T.);
#192=ORIENTED_EDGE('',*,*,#361,.T.);
#193=ORIENTED_EDGE('',*,*,#359,.F.);
#194=ORIENTED_EDGE('',*,*,#357,.T.);
#195=ORIENTED_EDGE('',*,*,#354,.F.);
#196=ORIENTED_EDGE('',*,*,#379,.F.);
#197=ORIENTED_EDGE('',*,*,#376,.F.);
#198=ORIENTED_EDGE('',*,*,#374,.F.);
#199=ORIENTED_EDGE('',*,*,#371,.F.);
#200=ORIENTED_EDGE('',*,*,#369,.T.);
#201=ORIENTED_EDGE('',*,*,#367,.T.);
#202=ORIENTED_EDGE('',*,*,#390,.T.);
#203=ORIENTED_EDGE('',*,*,#391,.T.);
#204=ORIENTED_EDGE('',*,*,#392,.F.);
#205=ORIENTED_EDGE('',*,*,#393,.F.);
#206=ORIENTED_EDGE('',*,*,#394,.T.);
#207=ORIENTED_EDGE('',*,*,#303,.T.);
#208=ORIENTED_EDGE('',*,*,#365,.T.);
#209=ORIENTED_EDGE('',*,*,#347,.T.);
#210=ORIENTED_EDGE('',*,*,#381,.F.);
#211=ORIENTED_EDGE('',*,*,#351,.F.);
#212=ORIENTED_EDGE('',*,*,#349,.T.);
#213=ORIENTED_EDGE('',*,*,#395,.T.);
#214=ORIENTED_EDGE('',*,*,#396,.T.);
#215=ORIENTED_EDGE('',*,*,#397,.F.);
#216=ORIENTED_EDGE('',*,*,#398,.F.);
#217=ORIENTED_EDGE('',*,*,#329,.T.);
#218=ORIENTED_EDGE('',*,*,#378,.T.);
#219=ORIENTED_EDGE('',*,*,#312,.F.);
#220=ORIENTED_EDGE('',*,*,#399,.T.);
#221=ORIENTED_EDGE('',*,*,#397,.T.);
#222=ORIENTED_EDGE('',*,*,#400,.T.);
#223=ORIENTED_EDGE('',*,*,#401,.F.);
#224=ORIENTED_EDGE('',*,*,#402,.F.);
#225=ORIENTED_EDGE('',*,*,#403,.T.);
#226=ORIENTED_EDGE('',*,*,#404,.T.);
#227=ORIENTED_EDGE('',*,*,#310,.T.);
#228=ORIENTED_EDGE('',*,*,#380,.T.);
#229=ORIENTED_EDGE('',*,*,#331,.F.);
#230=ORIENTED_EDGE('',*,*,#405,.F.);
#231=ORIENTED_EDGE('',*,*,#401,.T.);
#232=ORIENTED_EDGE('',*,*,#406,.T.);
#233=ORIENTED_EDGE('',*,*,#330,.F.);
#234=ORIENTED_EDGE('',*,*,#398,.T.);
#235=ORIENTED_EDGE('',*,*,#402,.T.);
#236=ORIENTED_EDGE('',*,*,#405,.T.);
#237=ORIENTED_EDGE('',*,*,#407,.F.);
#238=ORIENTED_EDGE('',*,*,#311,.F.);
#239=ORIENTED_EDGE('',*,*,#404,.F.);
#240=ORIENTED_EDGE('',*,*,#408,.T.);
#241=ORIENTED_EDGE('',*,*,#406,.F.);
#242=ORIENTED_EDGE('',*,*,#400,.F.);
#243=ORIENTED_EDGE('',*,*,#396,.F.);
#244=ORIENTED_EDGE('',*,*,#409,.T.);
#245=ORIENTED_EDGE('',*,*,#399,.F.);
#246=ORIENTED_EDGE('',*,*,#384,.F.);
#247=ORIENTED_EDGE('',*,*,#409,.F.);
#248=ORIENTED_EDGE('',*,*,#395,.F.);
#249=ORIENTED_EDGE('',*,*,#408,.F.);
#250=ORIENTED_EDGE('',*,*,#403,.F.);
#251=ORIENTED_EDGE('',*,*,#407,.T.);
#252=ORIENTED_EDGE('',*,*,#373,.T.);
#253=ORIENTED_EDGE('',*,*,#309,.F.);
#254=ORIENTED_EDGE('',*,*,#356,.T.);
#255=ORIENTED_EDGE('',*,*,#341,.T.);
#256=ORIENTED_EDGE('',*,*,#383,.F.);
#257=ORIENTED_EDGE('',*,*,#340,.T.);
#258=ORIENTED_EDGE('',*,*,#382,.F.);
#259=ORIENTED_EDGE('',*,*,#386,.F.);
#260=ORIENTED_EDGE('',*,*,#410,.T.);
#261=ORIENTED_EDGE('',*,*,#314,.T.);
#262=ORIENTED_EDGE('',*,*,#411,.F.);
#263=ORIENTED_EDGE('',*,*,#411,.T.);
#264=ORIENTED_EDGE('',*,*,#339,.T.);
#265=ORIENTED_EDGE('',*,*,#412,.F.);
#266=ORIENTED_EDGE('',*,*,#387,.F.);
#267=ORIENTED_EDGE('',*,*,#338,.F.);
#268=ORIENTED_EDGE('',*,*,#413,.T.);
#269=ORIENTED_EDGE('',*,*,#388,.T.);
#270=ORIENTED_EDGE('',*,*,#412,.T.);
#271=ORIENTED_EDGE('',*,*,#391,.F.);
#272=ORIENTED_EDGE('',*,*,#414,.T.);
#273=ORIENTED_EDGE('',*,*,#321,.T.);
#274=ORIENTED_EDGE('',*,*,#415,.F.);
#275=ORIENTED_EDGE('',*,*,#392,.T.);
#276=ORIENTED_EDGE('',*,*,#415,.T.);
#277=ORIENTED_EDGE('',*,*,#320,.F.);
#278=ORIENTED_EDGE('',*,*,#416,.F.);
#279=ORIENTED_EDGE('',*,*,#319,.F.);
#280=ORIENTED_EDGE('',*,*,#417,.T.);
#281=ORIENTED_EDGE('',*,*,#393,.T.);
#282=ORIENTED_EDGE('',*,*,#416,.T.);
#283=ORIENTED_EDGE('',*,*,#385,.F.);
#284=ORIENTED_EDGE('',*,*,#362,.F.);
#285=ORIENTED_EDGE('',*,*,#315,.F.);
#286=ORIENTED_EDGE('',*,*,#410,.F.);
#287=ORIENTED_EDGE('',*,*,#337,.F.);
#288=ORIENTED_EDGE('',*,*,#300,.F.);
#289=ORIENTED_EDGE('',*,*,#389,.F.);
#290=ORIENTED_EDGE('',*,*,#413,.F.);
#291=ORIENTED_EDGE('',*,*,#394,.F.);
#292=ORIENTED_EDGE('',*,*,#417,.F.);
#293=ORIENTED_EDGE('',*,*,#318,.F.);
#294=ORIENTED_EDGE('',*,*,#304,.F.);
#295=ORIENTED_EDGE('',*,*,#322,.F.);
#296=ORIENTED_EDGE('',*,*,#414,.F.);
#297=ORIENTED_EDGE('',*,*,#390,.F.);
#298=ORIENTED_EDGE('',*,*,#366,.F.);
#299=EDGE_CURVE('',#418,#419,#501,.T.);
#300=EDGE_CURVE('',#418,#420,#502,.F.);
#301=EDGE_CURVE('',#420,#421,#503,.T.);
#302=EDGE_CURVE('',#419,#421,#504,.T.);
#303=EDGE_CURVE('',#422,#423,#505,.T.);
#304=EDGE_CURVE('',#422,#424,#506,.T.);
#305=EDGE_CURVE('',#424,#425,#507,.T.);
#306=EDGE_CURVE('',#423,#425,#508,.T.);
#307=EDGE_CURVE('',#426,#426,#18,.F.);
#308=EDGE_CURVE('',#427,#427,#19,.F.);
#309=EDGE_CURVE('',#428,#428,#16,.T.);
#310=EDGE_CURVE('',#429,#430,#509,.T.);
#311=EDGE_CURVE('',#429,#431,#20,.T.);
#312=EDGE_CURVE('',#431,#432,#510,.T.);
#313=EDGE_CURVE('',#432,#430,#511,.T.);
#314=EDGE_CURVE('',#433,#434,#512,.T.);
#315=EDGE_CURVE('',#433,#435,#21,.T.);
#316=EDGE_CURVE('',#436,#435,#513,.T.);
#317=EDGE_CURVE('',#425,#436,#514,.T.);
#318=EDGE_CURVE('',#424,#437,#22,.T.);
#319=EDGE_CURVE('',#437,#438,#515,.T.);
#320=EDGE_CURVE('',#438,#439,#516,.T.);
#321=EDGE_CURVE('',#440,#439,#517,.T.);
#322=EDGE_CURVE('',#440,#441,#23,.T.);
#323=EDGE_CURVE('',#442,#441,#518,.T.);
#324=EDGE_CURVE('',#443,#442,#519,.T.);
#325=EDGE_CURVE('',#443,#444,#24,.T.);
#326=EDGE_CURVE('',#444,#445,#520,.T.);
#327=EDGE_CURVE('',#445,#446,#25,.T.);
#328=EDGE_CURVE('',#446,#447,#521,.T.);
#329=EDGE_CURVE('',#448,#447,#522,.T.);
#330=EDGE_CURVE('',#448,#449,#523,.T.);
#331=EDGE_CURVE('',#449,#450,#524,.T.);
#332=EDGE_CURVE('',#450,#451,#525,.T.);
#333=EDGE_CURVE('',#451,#452,#26,.T.);
#334=EDGE_CURVE('',#453,#452,#526,.T.);
#335=EDGE_CURVE('',#453,#454,#27,.T.);
#336=EDGE_CURVE('',#421,#454,#527,.T.);
#337=EDGE_CURVE('',#420,#455,#28,.T.);
#338=EDGE_CURVE('',#455,#456,#528,.T.);
#339=EDGE_CURVE('',#434,#456,#529,.T.);
#340=EDGE_CURVE('',#457,#457,#29,.T.);
#341=EDGE_CURVE('',#458,#458,#30,.T.);
#342=EDGE_CURVE('',#459,#460,#530,.T.);
#343=EDGE_CURVE('',#461,#459,#531,.T.);
#344=EDGE_CURVE('',#461,#462,#532,.T.);
#345=EDGE_CURVE('',#462,#460,#533,.T.);
#346=EDGE_CURVE('',#463,#460,#534,.T.);
#347=EDGE_CURVE('',#464,#463,#535,.T.);
#348=EDGE_CURVE('',#464,#459,#536,.T.);
#349=EDGE_CURVE('',#465,#464,#537,.T.);
#350=EDGE_CURVE('',#465,#461,#538,.T.);
#351=EDGE_CURVE('',#465,#466,#539,.T.);
#352=EDGE_CURVE('',#466,#462,#540,.T.);
#353=EDGE_CURVE('',#467,#451,#541,.T.);
#354=EDGE_CURVE('',#467,#468,#31,.T.);
#355=EDGE_CURVE('',#468,#452,#542,.T.);
#356=EDGE_CURVE('',#469,#469,#32,.F.);
#357=EDGE_CURVE('',#470,#468,#543,.T.);
#358=EDGE_CURVE('',#470,#453,#544,.T.);
#359=EDGE_CURVE('',#470,#471,#33,.T.);
#360=EDGE_CURVE('',#471,#454,#545,.T.);
#361=EDGE_CURVE('',#419,#471,#546,.T.);
#362=EDGE_CURVE('',#435,#472,#547,.F.);
#363=EDGE_CURVE('',#473,#472,#548,.T.);
#364=EDGE_CURVE('',#473,#436,#549,.T.);
#365=EDGE_CURVE('',#423,#473,#550,.T.);
#366=EDGE_CURVE('',#441,#474,#551,.T.);
#367=EDGE_CURVE('',#475,#474,#552,.T.);
#368=EDGE_CURVE('',#475,#442,#553,.T.);
#369=EDGE_CURVE('',#476,#475,#554,.T.);
#370=EDGE_CURVE('',#476,#443,#555,.T.);
#371=EDGE_CURVE('',#476,#477,#34,.T.);
#372=EDGE_CURVE('',#477,#444,#556,.T.);
#373=EDGE_CURVE('',#478,#478,#35,.T.);
#374=EDGE_CURVE('',#477,#479,#557,.T.);
#375=EDGE_CURVE('',#479,#445,#558,.T.);
#376=EDGE_CURVE('',#479,#480,#36,.T.);
#377=EDGE_CURVE('',#480,#446,#559,.T.);
#378=EDGE_CURVE('',#447,#432,#560,.T.);
#379=EDGE_CURVE('',#480,#467,#561,.T.);
#380=EDGE_CURVE('',#430,#450,#562,.T.);
#381=EDGE_CURVE('',#466,#463,#563,.T.);
#382=EDGE_CURVE('',#481,#481,#37,.T.);
#383=EDGE_CURVE('',#482,#482,#38,.T.);
#384=EDGE_CURVE('',#483,#483,#39,.T.);
#385=EDGE_CURVE('',#472,#484,#40,.F.);
#386=EDGE_CURVE('',#484,#485,#564,.T.);
#387=EDGE_CURVE('',#485,#486,#565,.T.);
#388=EDGE_CURVE('',#487,#486,#566,.T.);
#389=EDGE_CURVE('',#487,#418,#41,.F.);
#390=EDGE_CURVE('',#474,#488,#42,.F.);
#391=EDGE_CURVE('',#488,#489,#567,.T.);
#392=EDGE_CURVE('',#490,#489,#568,.T.);
#393=EDGE_CURVE('',#491,#490,#569,.T.);
#394=EDGE_CURVE('',#491,#422,#43,.F.);
#395=EDGE_CURVE('',#492,#493,#570,.T.);
#396=EDGE_CURVE('',#493,#494,#12,.T.);
#397=EDGE_CURVE('',#495,#494,#571,.T.);
#398=EDGE_CURVE('',#448,#495,#572,.T.);
#399=EDGE_CURVE('',#431,#492,#13,.T.);
#400=EDGE_CURVE('',#494,#496,#44,.T.);
#401=EDGE_CURVE('',#497,#496,#573,.T.);
#402=EDGE_CURVE('',#495,#497,#574,.T.);
#403=EDGE_CURVE('',#498,#499,#575,.T.);
#404=EDGE_CURVE('',#499,#429,#14,.T.);
#405=EDGE_CURVE('',#497,#449,#576,.T.);
#406=EDGE_CURVE('',#496,#498,#15,.T.);
#407=EDGE_CURVE('',#500,#500,#17,.T.);
#408=EDGE_CURVE('',#499,#498,#45,.T.);
#409=EDGE_CURVE('',#493,#492,#46,.T.);
#410=EDGE_CURVE('',#484,#433,#577,.T.);
#411=EDGE_CURVE('',#485,#434,#578,.T.);
#412=EDGE_CURVE('',#486,#456,#579,.T.);
#413=EDGE_CURVE('',#455,#487,#580,.T.);
#414=EDGE_CURVE('',#488,#440,#581,.F.);
#415=EDGE_CURVE('',#489,#439,#582,.T.);
#416=EDGE_CURVE('',#490,#438,#583,.T.);
#417=EDGE_CURVE('',#437,#491,#584,.F.);
#418=VERTEX_POINT('',#1195);
#419=VERTEX_POINT('',#1196);
#420=VERTEX_POINT('',#1198);
#421=VERTEX_POINT('',#1200);
#422=VERTEX_POINT('',#1204);
#423=VERTEX_POINT('',#1205);
#424=VERTEX_POINT('',#1207);
#425=VERTEX_POINT('',#1209);
#426=VERTEX_POINT('',#1213);
#427=VERTEX_POINT('',#1215);
#428=VERTEX_POINT('',#1227);
#429=VERTEX_POINT('',#1230);
#430=VERTEX_POINT('',#1231);
#431=VERTEX_POINT('',#1233);
#432=VERTEX_POINT('',#1235);
#433=VERTEX_POINT('',#1239);
#434=VERTEX_POINT('',#1240);
#435=VERTEX_POINT('',#1242);
#436=VERTEX_POINT('',#1244);
#437=VERTEX_POINT('',#1247);
#438=VERTEX_POINT('',#1249);
#439=VERTEX_POINT('',#1251);
#440=VERTEX_POINT('',#1253);
#441=VERTEX_POINT('',#1255);
#442=VERTEX_POINT('',#1257);
#443=VERTEX_POINT('',#1259);
#444=VERTEX_POINT('',#1261);
#445=VERTEX_POINT('',#1263);
#446=VERTEX_POINT('',#1265);
#447=VERTEX_POINT('',#1267);
#448=VERTEX_POINT('',#1269);
#449=VERTEX_POINT('',#1271);
#450=VERTEX_POINT('',#1273);
#451=VERTEX_POINT('',#1275);
#452=VERTEX_POINT('',#1277);
#453=VERTEX_POINT('',#1279);
#454=VERTEX_POINT('',#1281);
#455=VERTEX_POINT('',#1284);
#456=VERTEX_POINT('',#1286);
#457=VERTEX_POINT('',#1289);
#458=VERTEX_POINT('',#1291);
#459=VERTEX_POINT('',#1293);
#460=VERTEX_POINT('',#1294);
#461=VERTEX_POINT('',#1296);
#462=VERTEX_POINT('',#1298);
#463=VERTEX_POINT('',#1302);
#464=VERTEX_POINT('',#1304);
#465=VERTEX_POINT('',#1308);
#466=VERTEX_POINT('',#1312);
#467=VERTEX_POINT('',#1316);
#468=VERTEX_POINT('',#1318);
#469=VERTEX_POINT('',#1322);
#470=VERTEX_POINT('',#1324);
#471=VERTEX_POINT('',#1328);
#472=VERTEX_POINT('',#1334);
#473=VERTEX_POINT('',#1336);
#474=VERTEX_POINT('',#1342);
#475=VERTEX_POINT('',#1344);
#476=VERTEX_POINT('',#1348);
#477=VERTEX_POINT('',#1352);
#478=VERTEX_POINT('',#1356);
#479=VERTEX_POINT('',#1358);
#480=VERTEX_POINT('',#1362);
#481=VERTEX_POINT('',#1372);
#482=VERTEX_POINT('',#1374);
#483=VERTEX_POINT('',#1376);
#484=VERTEX_POINT('',#1378);
#485=VERTEX_POINT('',#1380);
#486=VERTEX_POINT('',#1382);
#487=VERTEX_POINT('',#1384);
#488=VERTEX_POINT('',#1387);
#489=VERTEX_POINT('',#1389);
#490=VERTEX_POINT('',#1391);
#491=VERTEX_POINT('',#1393);
#492=VERTEX_POINT('',#1397);
#493=VERTEX_POINT('',#1398);
#494=VERTEX_POINT('',#1400);
#495=VERTEX_POINT('',#1402);
#496=VERTEX_POINT('',#1407);
#497=VERTEX_POINT('',#1409);
#498=VERTEX_POINT('',#1413);
#499=VERTEX_POINT('',#1414);
#500=VERTEX_POINT('',#1431);
#501=LINE('',#1194,#585);
#502=LINE('',#1197,#586);
#503=LINE('',#1199,#587);
#504=LINE('',#1201,#588);
#505=LINE('',#1203,#589);
#506=LINE('',#1206,#590);
#507=LINE('',#1208,#591);
#508=LINE('',#1210,#592);
#509=LINE('',#1229,#593);
#510=LINE('',#1234,#594);
#511=LINE('',#1236,#595);
#512=LINE('',#1238,#596);
#513=LINE('',#1243,#597);
#514=LINE('',#1245,#598);
#515=LINE('',#1248,#599);
#516=LINE('',#1250,#600);
#517=LINE('',#1252,#601);
#518=LINE('',#1256,#602);
#519=LINE('',#1258,#603);
#520=LINE('',#1262,#604);
#521=LINE('',#1266,#605);
#522=LINE('',#1268,#606);
#523=LINE('',#1270,#607);
#524=LINE('',#1272,#608);
#525=LINE('',#1274,#609);
#526=LINE('',#1278,#610);
#527=LINE('',#1282,#611);
#528=LINE('',#1285,#612);
#529=LINE('',#1287,#613);
#530=LINE('',#1292,#614);
#531=LINE('',#1295,#615);
#532=LINE('',#1297,#616);
#533=LINE('',#1299,#617);
#534=LINE('',#1301,#618);
#535=LINE('',#1303,#619);
#536=LINE('',#1305,#620);
#537=LINE('',#1307,#621);
#538=LINE('',#1309,#622);
#539=LINE('',#1311,#623);
#540=LINE('',#1313,#624);
#541=LINE('',#1315,#625);
#542=LINE('',#1319,#626);
#543=LINE('',#1323,#627);
#544=LINE('',#1325,#628);
#545=LINE('',#1329,#629);
#546=LINE('',#1331,#630);
#547=LINE('',#1333,#631);
#548=LINE('',#1335,#632);
#549=LINE('',#1337,#633);
#550=LINE('',#1339,#634);
#551=LINE('',#1341,#635);
#552=LINE('',#1343,#636);
#553=LINE('',#1345,#637);
#554=LINE('',#1347,#638);
#555=LINE('',#1349,#639);
#556=LINE('',#1353,#640);
#557=LINE('',#1357,#641);
#558=LINE('',#1359,#642);
#559=LINE('',#1363,#643);
#560=LINE('',#1365,#644);
#561=LINE('',#1366,#645);
#562=LINE('',#1367,#646);
#563=LINE('',#1369,#647);
#564=LINE('',#1379,#648);
#565=LINE('',#1381,#649);
#566=LINE('',#1383,#650);
#567=LINE('',#1388,#651);
#568=LINE('',#1390,#652);
#569=LINE('',#1392,#653);
#570=LINE('',#1396,#654);
#571=LINE('',#1401,#655);
#572=LINE('',#1403,#656);
#573=LINE('',#1408,#657);
#574=LINE('',#1410,#658);
#575=LINE('',#1412,#659);
#576=LINE('',#1416,#660);
#577=LINE('',#1441,#661);
#578=LINE('',#1442,#662);
#579=LINE('',#1444,#663);
#580=LINE('',#1446,#664);
#581=LINE('',#1448,#665);
#582=LINE('',#1449,#666);
#583=LINE('',#1451,#667);
#584=LINE('',#1453,#668);
#585=VECTOR('',#958,1.);
#586=VECTOR('',#959,1.);
#587=VECTOR('',#960,1.);
#588=VECTOR('',#961,1.);
#589=VECTOR('',#964,1.);
#590=VECTOR('',#965,1.);
#591=VECTOR('',#966,1.);
#592=VECTOR('',#967,1.);
#593=VECTOR('',#976,1.);
#594=VECTOR('',#979,1.);
#595=VECTOR('',#980,1.);
#596=VECTOR('',#983,1.);
#597=VECTOR('',#986,1.);
#598=VECTOR('',#987,1.);
#599=VECTOR('',#990,1.);
#600=VECTOR('',#991,1.);
#601=VECTOR('',#992,1.);
#602=VECTOR('',#995,1.);
#603=VECTOR('',#996,1.);
#604=VECTOR('',#999,1.);
#605=VECTOR('',#1002,1.);
#606=VECTOR('',#1003,1.);
#607=VECTOR('',#1004,1.);
#608=VECTOR('',#1005,1.);
#609=VECTOR('',#1006,1.);
#610=VECTOR('',#1009,1.);
#611=VECTOR('',#1012,1.);
#612=VECTOR('',#1015,1.);
#613=VECTOR('',#1016,1.);
#614=VECTOR('',#1021,1.);
#615=VECTOR('',#1022,1.);
#616=VECTOR('',#1023,1.);
#617=VECTOR('',#1024,1.);
#618=VECTOR('',#1027,1.);
#619=VECTOR('',#1028,1.);
#620=VECTOR('',#1029,1.);
#621=VECTOR('',#1032,1.);
#622=VECTOR('',#1033,1.);
#623=VECTOR('',#1036,1.);
#624=VECTOR('',#1037,1.);
#625=VECTOR('',#1040,1.);
#626=VECTOR('',#1043,1.);
#627=VECTOR('',#1048,1.);
#628=VECTOR('',#1049,1.);
#629=VECTOR('',#1054,1.);
#630=VECTOR('',#1057,1.);
#631=VECTOR('',#1060,1.);
#632=VECTOR('',#1061,1.);
#633=VECTOR('',#1062,1.);
#634=VECTOR('',#1065,1.);
#635=VECTOR('',#1068,1.);
#636=VECTOR('',#1069,1.);
#637=VECTOR('',#1070,1.);
#638=VECTOR('',#1073,1.);
#639=VECTOR('',#1074,1.);
#640=VECTOR('',#1079,1.);
#641=VECTOR('',#1084,1.);
#642=VECTOR('',#1085,1.);
#643=VECTOR('',#1090,1.);
#644=VECTOR('',#1093,1.);
#645=VECTOR('',#1094,1.);
#646=VECTOR('',#1095,1.);
#647=VECTOR('',#1098,1.);
#648=VECTOR('',#1109,1.);
#649=VECTOR('',#1110,1.);
#650=VECTOR('',#1111,1.);
#651=VECTOR('',#1116,1.);
#652=VECTOR('',#1117,1.);
#653=VECTOR('',#1118,1.);
#654=VECTOR('',#1123,1.);
#655=VECTOR('',#1126,1.);
#656=VECTOR('',#1127,1.);
#657=VECTOR('',#1134,1.);
#658=VECTOR('',#1135,1.);
#659=VECTOR('',#1138,1.);
#660=VECTOR('',#1141,1.);
#661=VECTOR('',#1166,1.);
#662=VECTOR('',#1167,1.);
#663=VECTOR('',#1170,1.);
#664=VECTOR('',#1173,1.);
#665=VECTOR('',#1176,1.);
#666=VECTOR('',#1177,1.);
#667=VECTOR('',#1180,1.);
#668=VECTOR('',#1183,1.);
#669=EDGE_LOOP('',(#61,#62,#63,#64));
#670=EDGE_LOOP('',(#65,#66,#67,#68));
#671=EDGE_LOOP('',(#69));
#672=EDGE_LOOP('',(#70));
#673=EDGE_LOOP('',(#71));
#674=EDGE_LOOP('',(#72,#73,#74,#75));
#675=EDGE_LOOP('',(#76,#77,#78,#79,#80,#81,#82,#83,#84,#85,#86,#87,#88,
#89,#90,#91,#92,#93,#94,#95,#96,#97,#98,#99,#100,#101,#102,#103));
#676=EDGE_LOOP('',(#104));
#677=EDGE_LOOP('',(#105));
#678=EDGE_LOOP('',(#106));
#679=EDGE_LOOP('',(#107,#108,#109,#110));
#680=EDGE_LOOP('',(#111,#112,#113,#114));
#681=EDGE_LOOP('',(#115,#116,#117,#118));
#682=EDGE_LOOP('',(#119,#120,#121,#122));
#683=EDGE_LOOP('',(#123,#124,#125,#126));
#684=EDGE_LOOP('',(#127));
#685=EDGE_LOOP('',(#128,#129,#130,#131));
#686=EDGE_LOOP('',(#132,#133,#134,#135));
#687=EDGE_LOOP('',(#136,#137,#138,#139));
#688=EDGE_LOOP('',(#140,#141,#142,#143));
#689=EDGE_LOOP('',(#144,#145,#146,#147));
#690=EDGE_LOOP('',(#148,#149,#150,#151));
#691=EDGE_LOOP('',(#152,#153,#154,#155));
#692=EDGE_LOOP('',(#156,#157,#158,#159));
#693=EDGE_LOOP('',(#160));
#694=EDGE_LOOP('',(#161,#162,#163,#164));
#695=EDGE_LOOP('',(#165,#166,#167,#168));
#696=EDGE_LOOP('',(#169,#170,#171,#172,#173,#174,#175,#176));
#697=EDGE_LOOP('',(#177,#178,#179,#180));
#698=EDGE_LOOP('',(#181));
#699=EDGE_LOOP('',(#182));
#700=EDGE_LOOP('',(#183));
#701=EDGE_LOOP('',(#184));
#702=EDGE_LOOP('',(#185,#186,#187,#188,#189,#190,#191,#192,#193,#194,#195,
#196,#197,#198,#199,#200,#201,#202,#203,#204,#205,#206,#207,#208));
#703=EDGE_LOOP('',(#209,#210,#211,#212));
#704=EDGE_LOOP('',(#213,#214,#215,#216,#217,#218,#219,#220));
#705=EDGE_LOOP('',(#221,#222,#223,#224));
#706=EDGE_LOOP('',(#225,#226,#227,#228,#229,#230,#231,#232));
#707=EDGE_LOOP('',(#233,#234,#235,#236));
#708=EDGE_LOOP('',(#237));
#709=EDGE_LOOP('',(#238,#239,#240,#241,#242,#243,#244,#245));
#710=EDGE_LOOP('',(#246));
#711=EDGE_LOOP('',(#247,#248));
#712=EDGE_LOOP('',(#249,#250));
#713=EDGE_LOOP('',(#251));
#714=EDGE_LOOP('',(#252));
#715=EDGE_LOOP('',(#253));
#716=EDGE_LOOP('',(#254));
#717=EDGE_LOOP('',(#255));
#718=EDGE_LOOP('',(#256));
#719=EDGE_LOOP('',(#257));
#720=EDGE_LOOP('',(#258));
#721=EDGE_LOOP('',(#259,#260,#261,#262));
#722=EDGE_LOOP('',(#263,#264,#265,#266));
#723=EDGE_LOOP('',(#267,#268,#269,#270));
#724=EDGE_LOOP('',(#271,#272,#273,#274));
#725=EDGE_LOOP('',(#275,#276,#277,#278));
#726=EDGE_LOOP('',(#279,#280,#281,#282));
#727=EDGE_LOOP('',(#283,#284,#285,#286));
#728=EDGE_LOOP('',(#287,#288,#289,#290));
#729=EDGE_LOOP('',(#291,#292,#293,#294));
#730=EDGE_LOOP('',(#295,#296,#297,#298));
#731=FACE_BOUND('',#669,.T.);
#732=FACE_BOUND('',#670,.T.);
#733=FACE_BOUND('',#671,.T.);
#734=FACE_BOUND('',#672,.T.);
#735=FACE_BOUND('',#673,.T.);
#736=FACE_BOUND('',#674,.T.);
#737=FACE_BOUND('',#675,.T.);
#738=FACE_BOUND('',#676,.T.);
#739=FACE_BOUND('',#677,.T.);
#740=FACE_BOUND('',#678,.T.);
#741=FACE_BOUND('',#679,.T.);
#742=FACE_BOUND('',#680,.T.);
#743=FACE_BOUND('',#681,.T.);
#744=FACE_BOUND('',#682,.T.);
#745=FACE_BOUND('',#683,.T.);
#746=FACE_BOUND('',#684,.T.);
#747=FACE_BOUND('',#685,.T.);
#748=FACE_BOUND('',#686,.T.);
#749=FACE_BOUND('',#687,.T.);
#750=FACE_BOUND('',#688,.T.);
#751=FACE_BOUND('',#689,.T.);
#752=FACE_BOUND('',#690,.T.);
#753=FACE_BOUND('',#691,.T.);
#754=FACE_BOUND('',#692,.T.);
#755=FACE_BOUND('',#693,.T.);
#756=FACE_BOUND('',#694,.T.);
#757=FACE_BOUND('',#695,.T.);
#758=FACE_BOUND('',#696,.T.);
#759=FACE_BOUND('',#697,.T.);
#760=FACE_BOUND('',#698,.T.);
#761=FACE_BOUND('',#699,.T.);
#762=FACE_BOUND('',#700,.T.);
#763=FACE_BOUND('',#701,.T.);
#764=FACE_BOUND('',#702,.T.);
#765=FACE_BOUND('',#703,.T.);
#766=FACE_BOUND('',#704,.T.);
#767=FACE_BOUND('',#705,.T.);
#768=FACE_BOUND('',#706,.T.);
#769=FACE_BOUND('',#707,.T.);
#770=FACE_BOUND('',#708,.T.);
#771=FACE_BOUND('',#709,.T.);
#772=FACE_BOUND('',#710,.T.);
#773=FACE_BOUND('',#711,.T.);
#774=FACE_BOUND('',#712,.T.);
#775=FACE_BOUND('',#713,.T.);
#776=FACE_BOUND('',#714,.T.);
#777=FACE_BOUND('',#715,.T.);
#778=FACE_BOUND('',#716,.T.);
#779=FACE_BOUND('',#717,.T.);
#780=FACE_BOUND('',#718,.T.);
#781=FACE_BOUND('',#719,.T.);
#782=FACE_BOUND('',#720,.T.);
#783=FACE_BOUND('',#721,.T.);
#784=FACE_BOUND('',#722,.T.);
#785=FACE_BOUND('',#723,.T.);
#786=FACE_BOUND('',#724,.T.);
#787=FACE_BOUND('',#725,.T.);
#788=FACE_BOUND('',#726,.T.);
#789=FACE_BOUND('',#727,.T.);
#790=FACE_BOUND('',#728,.T.);
#791=FACE_BOUND('',#729,.T.);
#792=FACE_BOUND('',#730,.T.);
#793=PLANE('',#878);
#794=PLANE('',#879);
#795=PLANE('',#883);
#796=PLANE('',#885);
#797=PLANE('',#896);
#798=PLANE('',#897);
#799=PLANE('',#898);
#800=PLANE('',#901);
#801=PLANE('',#905);
#802=PLANE('',#906);
#803=PLANE('',#907);
#804=PLANE('',#908);
#805=PLANE('',#909);
#806=PLANE('',#912);
#807=PLANE('',#916);
#808=PLANE('',#917);
#809=PLANE('',#918);
#810=PLANE('',#926);
#811=PLANE('',#929);
#812=PLANE('',#931);
#813=PLANE('',#934);
#814=PLANE('',#938);
#815=PLANE('',#939);
#816=PLANE('',#944);
#817=PLANE('',#945);
#818=PLANE('',#946);
#819=PLANE('',#947);
#820=PLANE('',#948);
#821=PLANE('',#949);
#822=ADVANCED_FACE('',(#731),#793,.F.);
#823=ADVANCED_FACE('',(#732),#794,.F.);
#824=ADVANCED_FACE('',(#733,#734,#735),#47,.F.);
#825=ADVANCED_FACE('',(#736),#795,.F.);
#826=ADVANCED_FACE('',(#737,#738,#739,#740,#741),#796,.T.);
#827=ADVANCED_FACE('',(#742),#797,.F.);
#828=ADVANCED_FACE('',(#743),#798,.F.);
#829=ADVANCED_FACE('',(#744),#799,.T.);
#830=ADVANCED_FACE('',(#745),#48,.T.);
#831=ADVANCED_FACE('',(#746,#747),#800,.F.);
#832=ADVANCED_FACE('',(#748),#49,.T.);
#833=ADVANCED_FACE('',(#749),#801,.F.);
#834=ADVANCED_FACE('',(#750),#802,.F.);
#835=ADVANCED_FACE('',(#751),#803,.F.);
#836=ADVANCED_FACE('',(#752),#804,.F.);
#837=ADVANCED_FACE('',(#753),#805,.F.);
#838=ADVANCED_FACE('',(#754),#50,.T.);
#839=ADVANCED_FACE('',(#755,#756),#806,.T.);
#840=ADVANCED_FACE('',(#757),#51,.T.);
#841=ADVANCED_FACE('',(#758),#807,.T.);
#842=ADVANCED_FACE('',(#759),#808,.T.);
#843=ADVANCED_FACE('',(#760,#761,#762,#763,#764,#765),#809,.F.);
#844=ADVANCED_FACE('',(#766),#810,.F.);
#845=ADVANCED_FACE('',(#767),#811,.F.);
#846=ADVANCED_FACE('',(#768),#812,.F.);
#847=ADVANCED_FACE('',(#769),#813,.T.);
#848=ADVANCED_FACE('',(#770,#771,#772),#52,.F.);
#849=ADVANCED_FACE('',(#773),#814,.F.);
#850=ADVANCED_FACE('',(#774),#815,.F.);
#851=ADVANCED_FACE('',(#775,#776),#53,.F.);
#852=ADVANCED_FACE('',(#777,#778),#54,.F.);
#853=ADVANCED_FACE('',(#779,#780),#55,.F.);
#854=ADVANCED_FACE('',(#781,#782),#56,.F.);
#855=ADVANCED_FACE('',(#783),#816,.F.);
#856=ADVANCED_FACE('',(#784),#817,.F.);
#857=ADVANCED_FACE('',(#785),#818,.T.);
#858=ADVANCED_FACE('',(#786),#819,.F.);
#859=ADVANCED_FACE('',(#787),#820,.T.);
#860=ADVANCED_FACE('',(#788),#821,.T.);
#861=ADVANCED_FACE('',(#789),#57,.T.);
#862=ADVANCED_FACE('',(#790),#58,.T.);
#863=ADVANCED_FACE('',(#791),#59,.T.);
#864=ADVANCED_FACE('',(#792),#60,.T.);
#865=CLOSED_SHELL('',(#822,#823,#824,#825,#826,#827,#828,#829,#830,#831,
#832,#833,#834,#835,#836,#837,#838,#839,#840,#841,#842,#843,#844,#845,#846,
#847,#848,#849,#850,#851,#852,#853,#854,#855,#856,#857,#858,#859,#860,#861,
#862,#863,#864));
#866=STYLED_ITEM('',(#867),#874);
#867=PRESENTATION_STYLE_ASSIGNMENT((#868));
#868=SURFACE_STYLE_USAGE(.BOTH.,#869);
#869=SURFACE_SIDE_STYLE('',(#870));
#870=SURFACE_STYLE_FILL_AREA(#871);
#871=FILL_AREA_STYLE('',(#872));
#872=FILL_AREA_STYLE_COLOUR('',#873);
#873=COLOUR_RGB('',0.917647058823529,0.917647058823529,0.917647058823529);
#874=MANIFOLD_SOLID_BREP('End Rod Plate Z-Axis',#865);
#875=SHAPE_DEFINITION_REPRESENTATION(#1464,#876);
#876=SHAPE_REPRESENTATION('End Rod Plate Z-Axis',(#877),#1459);
#877=AXIS2_PLACEMENT_3D('',#1192,#954,#955);
#878=AXIS2_PLACEMENT_3D('',#1193,#956,#957);
#879=AXIS2_PLACEMENT_3D('',#1202,#962,#963);
#880=AXIS2_PLACEMENT_3D('',#1211,#968,#969);
#881=AXIS2_PLACEMENT_3D('',#1212,#970,#971);
#882=AXIS2_PLACEMENT_3D('',#1214,#972,#973);
#883=AXIS2_PLACEMENT_3D('',#1228,#974,#975);
#884=AXIS2_PLACEMENT_3D('',#1232,#977,#978);
#885=AXIS2_PLACEMENT_3D('',#1237,#981,#982);
#886=AXIS2_PLACEMENT_3D('',#1241,#984,#985);
#887=AXIS2_PLACEMENT_3D('',#1246,#988,#989);
#888=AXIS2_PLACEMENT_3D('',#1254,#993,#994);
#889=AXIS2_PLACEMENT_3D('',#1260,#997,#998);
#890=AXIS2_PLACEMENT_3D('',#1264,#1000,#1001);
#891=AXIS2_PLACEMENT_3D('',#1276,#1007,#1008);
#892=AXIS2_PLACEMENT_3D('',#1280,#1010,#1011);
#893=AXIS2_PLACEMENT_3D('',#1283,#1013,#1014);
#894=AXIS2_PLACEMENT_3D('',#1288,#1017,#1018);
#895=AXIS2_PLACEMENT_3D('',#1290,#1019,#1020);
#896=AXIS2_PLACEMENT_3D('',#1300,#1025,#1026);
#897=AXIS2_PLACEMENT_3D('',#1306,#1030,#1031);
#898=AXIS2_PLACEMENT_3D('',#1310,#1034,#1035);
#899=AXIS2_PLACEMENT_3D('',#1314,#1038,#1039);
#900=AXIS2_PLACEMENT_3D('',#1317,#1041,#1042);
#901=AXIS2_PLACEMENT_3D('',#1320,#1044,#1045);
#902=AXIS2_PLACEMENT_3D('',#1321,#1046,#1047);
#903=AXIS2_PLACEMENT_3D('',#1326,#1050,#1051);
#904=AXIS2_PLACEMENT_3D('',#1327,#1052,#1053);
#905=AXIS2_PLACEMENT_3D('',#1330,#1055,#1056);
#906=AXIS2_PLACEMENT_3D('',#1332,#1058,#1059);
#907=AXIS2_PLACEMENT_3D('',#1338,#1063,#1064);
#908=AXIS2_PLACEMENT_3D('',#1340,#1066,#1067);
#909=AXIS2_PLACEMENT_3D('',#1346,#1071,#1072);
#910=AXIS2_PLACEMENT_3D('',#1350,#1075,#1076);
#911=AXIS2_PLACEMENT_3D('',#1351,#1077,#1078);
#912=AXIS2_PLACEMENT_3D('',#1354,#1080,#1081);
#913=AXIS2_PLACEMENT_3D('',#1355,#1082,#1083);
#914=AXIS2_PLACEMENT_3D('',#1360,#1086,#1087);
#915=AXIS2_PLACEMENT_3D('',#1361,#1088,#1089);
#916=AXIS2_PLACEMENT_3D('',#1364,#1091,#1092);
#917=AXIS2_PLACEMENT_3D('',#1368,#1096,#1097);
#918=AXIS2_PLACEMENT_3D('',#1370,#1099,#1100);
#919=AXIS2_PLACEMENT_3D('',#1371,#1101,#1102);
#920=AXIS2_PLACEMENT_3D('',#1373,#1103,#1104);
#921=AXIS2_PLACEMENT_3D('',#1375,#1105,#1106);
#922=AXIS2_PLACEMENT_3D('',#1377,#1107,#1108);
#923=AXIS2_PLACEMENT_3D('',#1385,#1112,#1113);
#924=AXIS2_PLACEMENT_3D('',#1386,#1114,#1115);
#925=AXIS2_PLACEMENT_3D('',#1394,#1119,#1120);
#926=AXIS2_PLACEMENT_3D('',#1395,#1121,#1122);
#927=AXIS2_PLACEMENT_3D('',#1399,#1124,#1125);
#928=AXIS2_PLACEMENT_3D('',#1404,#1128,#1129);
#929=AXIS2_PLACEMENT_3D('',#1405,#1130,#1131);
#930=AXIS2_PLACEMENT_3D('',#1406,#1132,#1133);
#931=AXIS2_PLACEMENT_3D('',#1411,#1136,#1137);
#932=AXIS2_PLACEMENT_3D('',#1415,#1139,#1140);
#933=AXIS2_PLACEMENT_3D('',#1417,#1142,#1143);
#934=AXIS2_PLACEMENT_3D('',#1418,#1144,#1145);
#935=AXIS2_PLACEMENT_3D('',#1419,#1146,#1147);
#936=AXIS2_PLACEMENT_3D('',#1432,#1148,#1149);
#937=AXIS2_PLACEMENT_3D('',#1433,#1150,#1151);
#938=AXIS2_PLACEMENT_3D('',#1434,#1152,#1153);
#939=AXIS2_PLACEMENT_3D('',#1435,#1154,#1155);
#940=AXIS2_PLACEMENT_3D('',#1436,#1156,#1157);
#941=AXIS2_PLACEMENT_3D('',#1437,#1158,#1159);
#942=AXIS2_PLACEMENT_3D('',#1438,#1160,#1161);
#943=AXIS2_PLACEMENT_3D('',#1439,#1162,#1163);
#944=AXIS2_PLACEMENT_3D('',#1440,#1164,#1165);
#945=AXIS2_PLACEMENT_3D('',#1443,#1168,#1169);
#946=AXIS2_PLACEMENT_3D('',#1445,#1171,#1172);
#947=AXIS2_PLACEMENT_3D('',#1447,#1174,#1175);
#948=AXIS2_PLACEMENT_3D('',#1450,#1178,#1179);
#949=AXIS2_PLACEMENT_3D('',#1452,#1181,#1182);
#950=AXIS2_PLACEMENT_3D('',#1454,#1184,#1185);
#951=AXIS2_PLACEMENT_3D('',#1455,#1186,#1187);
#952=AXIS2_PLACEMENT_3D('',#1456,#1188,#1189);
#953=AXIS2_PLACEMENT_3D('',#1457,#1190,#1191);
#954=DIRECTION('',(0.,0.,1.));
#955=DIRECTION('',(1.,0.,0.));
#956=DIRECTION('',(0.,-0.909344344456159,0.416044304378269));
#957=DIRECTION('',(0.,-0.41604430437827,-0.909344344456159));
#958=DIRECTION('',(0.,-0.41604430437827,-0.909344344456159));
#959=DIRECTION('',(-1.,0.,0.));
#960=DIRECTION('',(0.,-0.41604430437827,-0.909344344456159));
#961=DIRECTION('',(1.,0.,0.));
#962=DIRECTION('',(0.,-0.90934434445616,-0.416044304378267));
#963=DIRECTION('',(0.,0.416044304378267,-0.90934434445616));
#964=DIRECTION('',(0.,0.416044304378267,-0.90934434445616));
#965=DIRECTION('',(1.,0.,0.));
#966=DIRECTION('',(0.,0.416044304378267,-0.90934434445616));
#967=DIRECTION('',(1.,0.,0.));
#968=DIRECTION('',(1.,0.,0.));
#969=DIRECTION('',(0.,-1.,0.));
#970=DIRECTION('',(1.,0.,0.));
#971=DIRECTION('',(0.,-1.,0.));
#972=DIRECTION('',(1.,0.,0.));
#973=DIRECTION('',(0.,-1.,0.));
#974=DIRECTION('',(-1.,0.,0.));
#975=DIRECTION('',(0.,1.,0.));
#976=DIRECTION('',(0.,-1.,0.));
#977=DIRECTION('',(-1.,0.,0.));
#978=DIRECTION('',(0.,1.,0.));
#979=DIRECTION('',(0.,-1.,0.));
#980=DIRECTION('',(0.,0.,-1.));
#981=DIRECTION('',(1.,0.,0.));
#982=DIRECTION('',(0.,0.,-1.));
#983=DIRECTION('',(0.,-1.,0.));
#984=DIRECTION('',(1.,0.,0.));
#985=DIRECTION('',(0.,-1.,0.));
#986=DIRECTION('',(0.,-0.41604430437827,-0.909344344456159));
#987=DIRECTION('',(0.,0.,-1.));
#988=DIRECTION('',(1.,0.,0.));
#989=DIRECTION('',(0.,-1.,0.));
#990=DIRECTION('',(0.,-1.,0.));
#991=DIRECTION('',(0.,0.,1.));
#992=DIRECTION('',(0.,-1.,0.));
#993=DIRECTION('',(1.,0.,0.));
#994=DIRECTION('',(0.,-1.,0.));
#995=DIRECTION('',(0.,0.416044304378267,-0.90934434445616));
#996=DIRECTION('',(0.,0.,-1.));
#997=DIRECTION('',(1.,0.,0.));
#998=DIRECTION('',(0.,-1.,0.));
#999=DIRECTION('',(0.,-1.,0.));
#1000=DIRECTION('',(1.,0.,0.));
#1001=DIRECTION('',(0.,-1.,0.));
#1002=DIRECTION('',(0.,0.,-1.));
#1003=DIRECTION('',(0.,-1.,0.));
#1004=DIRECTION('',(0.,0.,-1.));
#1005=DIRECTION('',(0.,-1.,0.));
#1006=DIRECTION('',(0.,0.,-1.));
#1007=DIRECTION('',(1.,0.,0.));
#1008=DIRECTION('',(0.,-1.,0.));
#1009=DIRECTION('',(0.,-1.,0.));
#1010=DIRECTION('',(1.,0.,0.));
#1011=DIRECTION('',(0.,-1.,0.));
#1012=DIRECTION('',(0.,0.,-1.));
#1013=DIRECTION('',(1.,0.,0.));
#1014=DIRECTION('',(0.,-1.,0.));
#1015=DIRECTION('',(0.,-1.,0.));
#1016=DIRECTION('',(0.,0.,-1.));
#1017=DIRECTION('',(1.,0.,0.));
#1018=DIRECTION('',(0.,-1.,0.));
#1019=DIRECTION('',(1.,0.,0.));
#1020=DIRECTION('',(0.,-1.,0.));
#1021=DIRECTION('',(0.,-1.,0.));
#1022=DIRECTION('',(0.,-2.71050543121377E-16,1.));
#1023=DIRECTION('',(0.,-1.,0.));
#1024=DIRECTION('',(0.,-2.71050543121377E-16,1.));
#1025=DIRECTION('',(0.,0.,1.));
#1026=DIRECTION('',(0.,-1.,0.));
#1027=DIRECTION('',(1.,0.,0.));
#1028=DIRECTION('',(0.,-1.,0.));
#1029=DIRECTION('',(1.,0.,0.));
#1030=DIRECTION('',(0.,1.,2.71050543121377E-16));
#1031=DIRECTION('',(0.,-2.71050543121377E-16,1.));
#1032=DIRECTION('',(0.,-2.71050543121377E-16,1.));
#1033=DIRECTION('',(1.,0.,0.));
#1034=DIRECTION('',(0.,0.,1.));
#1035=DIRECTION('',(0.,-1.,0.));
#1036=DIRECTION('',(0.,-1.,0.));
#1037=DIRECTION('',(1.,0.,0.));
#1038=DIRECTION('',(1.,0.,0.));
#1039=DIRECTION('',(0.,-1.,0.));
#1040=DIRECTION('',(1.,0.,0.));
#1041=DIRECTION('',(1.,0.,0.));
#1042=DIRECTION('',(0.,-1.,0.));
#1043=DIRECTION('',(1.,0.,0.));
#1044=DIRECTION('',(0.,0.,1.));
#1045=DIRECTION('',(0.,-1.,0.));
#1046=DIRECTION('',(0.,0.,1.));
#1047=DIRECTION('',(0.,-1.,0.));
#1048=DIRECTION('',(0.,-1.,0.));
#1049=DIRECTION('',(1.,0.,0.));
#1050=DIRECTION('',(1.,0.,0.));
#1051=DIRECTION('',(0.,-1.,0.));
#1052=DIRECTION('',(1.,0.,0.));
#1053=DIRECTION('',(0.,-1.,0.));
#1054=DIRECTION('',(1.,0.,0.));
#1055=DIRECTION('',(0.,-1.,0.));
#1056=DIRECTION('',(-1.,0.,0.));
#1057=DIRECTION('',(0.,0.,-1.));
#1058=DIRECTION('',(0.,-0.909344344456159,0.416044304378269));
#1059=DIRECTION('',(0.,-0.41604430437827,-0.909344344456159));
#1060=DIRECTION('',(1.,0.,0.));
#1061=DIRECTION('',(0.,-0.41604430437827,-0.909344344456159));
#1062=DIRECTION('',(1.,0.,0.));
#1063=DIRECTION('',(0.,-1.,0.));
#1064=DIRECTION('',(-1.,0.,0.));
#1065=DIRECTION('',(0.,0.,-1.));
#1066=DIRECTION('',(0.,-0.90934434445616,-0.416044304378267));
#1067=DIRECTION('',(0.,0.416044304378267,-0.90934434445616));
#1068=DIRECTION('',(-1.,0.,0.));
#1069=DIRECTION('',(0.,0.416044304378267,-0.90934434445616));
#1070=DIRECTION('',(1.,0.,0.));
#1071=DIRECTION('',(0.,-1.,0.));
#1072=DIRECTION('',(-1.,0.,0.));
#1073=DIRECTION('',(0.,0.,-1.));
#1074=DIRECTION('',(1.,0.,0.));
#1075=DIRECTION('',(1.,0.,0.));
#1076=DIRECTION('',(0.,-1.,0.));
#1077=DIRECTION('',(1.,0.,0.));
#1078=DIRECTION('',(0.,-1.,0.));
#1079=DIRECTION('',(1.,0.,0.));
#1080=DIRECTION('',(0.,0.,1.));
#1081=DIRECTION('',(0.,-1.,0.));
#1082=DIRECTION('',(0.,0.,1.));
#1083=DIRECTION('',(0.,-1.,0.));
#1084=DIRECTION('',(0.,-1.,0.));
#1085=DIRECTION('',(1.,0.,0.));
#1086=DIRECTION('',(1.,0.,0.));
#1087=DIRECTION('',(0.,-1.,0.));
#1088=DIRECTION('',(1.,0.,0.));
#1089=DIRECTION('',(0.,-1.,0.));
#1090=DIRECTION('',(1.,0.,0.));
#1091=DIRECTION('',(0.,-1.,0.));
#1092=DIRECTION('',(-1.,0.,0.));
#1093=DIRECTION('',(-0.866025403784439,0.,0.5));
#1094=DIRECTION('',(0.,0.,-1.));
#1095=DIRECTION('',(0.866025403784442,0.,0.5));
#1096=DIRECTION('',(0.,1.,2.71050543121377E-16));
#1097=DIRECTION('',(0.,-2.71050543121377E-16,1.));
#1098=DIRECTION('',(0.,-2.71050543121377E-16,1.));
#1099=DIRECTION('',(1.,0.,0.));
#1100=DIRECTION('',(0.,0.,-1.));
#1101=DIRECTION('',(1.,0.,0.));
#1102=DIRECTION('',(0.,-1.,0.));
#1103=DIRECTION('',(1.,0.,0.));
#1104=DIRECTION('',(0.,-1.,0.));
#1105=DIRECTION('',(1.,0.,0.));
#1106=DIRECTION('',(0.,-1.,0.));
#1107=DIRECTION('',(1.,0.,0.));
#1108=DIRECTION('',(0.,-1.,0.));
#1109=DIRECTION('',(0.,-1.,0.));
#1110=DIRECTION('',(0.,0.,-1.));
#1111=DIRECTION('',(0.,-1.,0.));
#1112=DIRECTION('',(1.,0.,0.));
#1113=DIRECTION('',(0.,-1.,0.));
#1114=DIRECTION('',(1.,0.,0.));
#1115=DIRECTION('',(0.,-1.,0.));
#1116=DIRECTION('',(0.,-1.,0.));
#1117=DIRECTION('',(0.,0.,1.));
#1118=DIRECTION('',(0.,-1.,0.));
#1119=DIRECTION('',(1.,0.,0.));
#1120=DIRECTION('',(0.,-1.,0.));
#1121=DIRECTION('',(0.5,0.,0.866025403784439));
#1122=DIRECTION('',(0.866025403784439,0.,-0.5));
#1123=DIRECTION('',(0.,1.,0.));
#1124=DIRECTION('',(0.5,0.,0.866025403784439));
#1125=DIRECTION('',(0.866025403784439,0.,-0.5));
#1126=DIRECTION('',(0.,-1.,0.));
#1127=DIRECTION('',(-0.866025403784439,0.,0.5));
#1128=DIRECTION('',(0.5,0.,0.866025403784439));
#1129=DIRECTION('',(0.866025403784439,0.,-0.5));
#1130=DIRECTION('',(-1.,0.,0.));
#1131=DIRECTION('',(0.,1.,0.));
#1132=DIRECTION('',(-1.,0.,0.));
#1133=DIRECTION('',(0.,1.,0.));
#1134=DIRECTION('',(0.,-1.,0.));
#1135=DIRECTION('',(0.,0.,-1.));
#1136=DIRECTION('',(0.5,0.,-0.866025403784442));
#1137=DIRECTION('',(-0.866025403784442,0.,-0.5));
#1138=DIRECTION('',(0.,-1.,0.));
#1139=DIRECTION('',(0.5,0.,-0.866025403784442));
#1140=DIRECTION('',(0.866025403784442,0.,0.5));
#1141=DIRECTION('',(0.866025403784442,0.,0.5));
#1142=DIRECTION('',(0.5,0.,-0.866025403784442));
#1143=DIRECTION('',(0.866025403784442,0.,0.5));
#1144=DIRECTION('',(0.,-1.,0.));
#1145=DIRECTION('',(1.,0.,0.));
#1146=DIRECTION('',(1.,0.,0.));
#1147=DIRECTION('',(0.,-1.,0.));
#1148=DIRECTION('',(1.,0.,0.));
#1149=DIRECTION('',(0.,-1.,0.));
#1150=DIRECTION('',(1.,0.,0.));
#1151=DIRECTION('',(0.,-1.,0.));
#1152=DIRECTION('',(1.,0.,0.));
#1153=DIRECTION('',(0.,0.,-1.));
#1154=DIRECTION('',(1.,0.,0.));
#1155=DIRECTION('',(0.,0.,-1.));
#1156=DIRECTION('',(0.,0.,1.));
#1157=DIRECTION('',(0.,-1.,0.));
#1158=DIRECTION('',(0.,0.,-1.));
#1159=DIRECTION('',(0.,1.,0.));
#1160=DIRECTION('',(1.,0.,0.));
#1161=DIRECTION('',(0.,-1.,0.));
#1162=DIRECTION('',(1.,0.,0.));
#1163=DIRECTION('',(0.,-1.,0.));
#1164=DIRECTION('',(0.,0.,1.));
#1165=DIRECTION('',(0.,-1.,0.));
#1166=DIRECTION('',(1.,0.,0.));
#1167=DIRECTION('',(1.,0.,0.));
#1168=DIRECTION('',(0.,-1.,0.));
#1169=DIRECTION('',(-1.,0.,0.));
#1170=DIRECTION('',(1.,0.,0.));
#1171=DIRECTION('',(0.,0.,1.));
#1172=DIRECTION('',(0.,-1.,0.));
#1173=DIRECTION('',(-1.,0.,0.));
#1174=DIRECTION('',(0.,0.,1.));
#1175=DIRECTION('',(0.,-1.,0.));
#1176=DIRECTION('',(-1.,0.,0.));
#1177=DIRECTION('',(1.,0.,0.));
#1178=DIRECTION('',(0.,1.,0.));
#1179=DIRECTION('',(1.,0.,0.));
#1180=DIRECTION('',(1.,0.,0.));
#1181=DIRECTION('',(0.,0.,1.));
#1182=DIRECTION('',(0.,-1.,0.));
#1183=DIRECTION('',(1.,0.,0.));
#1184=DIRECTION('',(1.,0.,0.));
#1185=DIRECTION('',(0.,-1.,0.));
#1186=DIRECTION('',(1.,0.,0.));
#1187=DIRECTION('',(0.,-1.,0.));
#1188=DIRECTION('',(-1.,0.,0.));
#1189=DIRECTION('',(0.,1.,0.));
#1190=DIRECTION('',(-1.,0.,0.));
#1191=DIRECTION('',(0.,1.,0.));
#1192=CARTESIAN_POINT('',(0.,0.,0.));
#1193=CARTESIAN_POINT('',(0.14379904,0.0146301611507544,0.297157950449948));
#1194=CARTESIAN_POINT('',(0.14379904,0.0146301611507544,0.297157950449948));
#1195=CARTESIAN_POINT('',(0.14379904,0.0137956449046487,0.295333955695621));
#1196=CARTESIAN_POINT('',(0.14379904,0.0127579617810521,0.293065900899894));
#1197=CARTESIAN_POINT('',(0.15129904,0.0137956449046487,0.295333955695621));
#1198=CARTESIAN_POINT('',(0.15129904,0.0137956449046487,0.295333955695621));
#1199=CARTESIAN_POINT('',(0.15129904,0.0146301611507544,0.297157950449948));
#1200=CARTESIAN_POINT('',(0.15129904,0.0127579617810521,0.293065900899894));
#1201=CARTESIAN_POINT('',(0.14379904,0.0127579617810521,0.293065900899894));
#1202=CARTESIAN_POINT('',(0.14379904,0.0146301611507544,0.320342049550053));
#1203=CARTESIAN_POINT('',(0.14379904,0.0146301611507544,0.320342049550053));
#1204=CARTESIAN_POINT('',(0.14379904,0.0153969690611154,0.318666044304379));
#1205=CARTESIAN_POINT('',(0.14379904,0.0165023605204566,0.31625));
#1206=CARTESIAN_POINT('',(0.15129904,0.0153969690611153,0.318666044304379));
#1207=CARTESIAN_POINT('',(0.15129904,0.0153969690611154,0.318666044304379));
#1208=CARTESIAN_POINT('',(0.15129904,0.0146301611507544,0.320342049550053));
#1209=CARTESIAN_POINT('',(0.15129904,0.0165023605204566,0.31625));
#1210=CARTESIAN_POINT('',(0.14379904,0.0165023605204566,0.31625));
#1211=CARTESIAN_POINT('',(0.14379704,-0.000642038218947861,0.29145));
#1212=CARTESIAN_POINT('',(0.14379904,-0.000642038218947861,0.29145));
#1213=CARTESIAN_POINT('',(0.14379904,-0.00476703821894786,0.29145));
#1214=CARTESIAN_POINT('',(0.15129904,-0.000642038218947861,0.29145));
#1215=CARTESIAN_POINT('',(0.15129904,-0.00476703821894786,0.29145));
#1216=CARTESIAN_POINT('',(0.146288187681888,0.000310830606126465,0.287396996092717));
#1217=CARTESIAN_POINT('',(0.147548849943636,0.00083186400244737,0.28760433628221));
#1218=CARTESIAN_POINT('',(0.14881065254357,0.000309484070396798,0.28739688486408));
#1219=CARTESIAN_POINT('',(0.149321874889953,-0.000964815432572537,0.287259649511067));
#1220=CARTESIAN_POINT('',(0.148795624973816,-0.00219672733219786,0.287587114074838));
#1221=CARTESIAN_POINT('',(0.147551697749609,-0.00271501999885252,0.287889467083317));
#1222=CARTESIAN_POINT('',(0.146300304149714,-0.00219541824063744,0.287586799971975));
#1223=CARTESIAN_POINT('',(0.145776569759554,-0.000967149797125481,0.287259828684036));
#1224=CARTESIAN_POINT('',(0.146288187681888,0.000310830606126465,0.287396996092717));
#1225=CARTESIAN_POINT('',(0.147548849943636,0.00083186400244737,0.28760433628221));
#1226=CARTESIAN_POINT('',(0.14881065254357,0.000309484070396798,0.28739688486408));
#1227=CARTESIAN_POINT('',(0.14754904,0.000657961781052125,0.287535204347606));
#1228=CARTESIAN_POINT('',(0.149133976490539,0.00760796178105215,0.32605));
#1229=CARTESIAN_POINT('',(0.149133976490539,0.00760796178105215,0.32205));
#1230=CARTESIAN_POINT('',(0.149133976490539,-0.00164982043748514,0.32205));
#1231=CARTESIAN_POINT('',(0.149133976490539,-0.0173920382189478,0.32205));
#1232=CARTESIAN_POINT('',(0.149133976490539,-0.000642038218947859,0.32605));
#1233=CARTESIAN_POINT('',(0.149133976490539,-0.00164982043748512,0.33005));
#1234=CARTESIAN_POINT('',(0.149133976490539,0.00760796178105215,0.33005));
#1235=CARTESIAN_POINT('',(0.149133976490539,-0.0173920382189478,0.33005));
#1236=CARTESIAN_POINT('',(0.149133976490539,-0.0173920382189478,0.32605));
#1237=CARTESIAN_POINT('',(0.15129904,-0.000444838849245635,0.30875));
#1238=CARTESIAN_POINT('',(0.15129904,0.0123797969577709,0.29825));
#1239=CARTESIAN_POINT('',(0.15129904,0.0144876247166591,0.29825));
#1240=CARTESIAN_POINT('',(0.15129904,0.0096297969577709,0.29825));
#1241=CARTESIAN_POINT('',(0.15129904,0.0144876247166591,0.29925));
#1242=CARTESIAN_POINT('',(0.15129904,0.0153969690611153,0.298833955695621));
#1243=CARTESIAN_POINT('',(0.15129904,0.0146301611507544,0.297157950449948));
#1244=CARTESIAN_POINT('',(0.15129904,0.0165023605204566,0.30125));
#1245=CARTESIAN_POINT('',(0.15129904,0.0165023605204566,0.30875));
#1246=CARTESIAN_POINT('',(0.15129904,0.0144876247166592,0.31825));
#1247=CARTESIAN_POINT('',(0.15129904,0.0144876247166592,0.31925));
#1248=CARTESIAN_POINT('',(0.15129904,0.0123797969577709,0.31925));
#1249=CARTESIAN_POINT('',(0.15129904,0.0096297969577709,0.31925));
#1250=CARTESIAN_POINT('',(0.15129904,0.0096297969577709,0.32));
#1251=CARTESIAN_POINT('',(0.15129904,0.0096297969577709,0.32075));
#1252=CARTESIAN_POINT('',(0.15129904,0.0123797969577709,0.32075));
#1253=CARTESIAN_POINT('',(0.15129904,0.0128863005601926,0.32075));
#1254=CARTESIAN_POINT('',(0.15129904,0.0128863005601926,0.32175));
#1255=CARTESIAN_POINT('',(0.15129904,0.0137956449046487,0.322166044304379));
#1256=CARTESIAN_POINT('',(0.15129904,0.0146301611507544,0.320342049550053));
#1257=CARTESIAN_POINT('',(0.15129904,0.0127579617810522,0.324434099100105));
#1258=CARTESIAN_POINT('',(0.15129904,0.0127579617810521,0.327592049550052));
#1259=CARTESIAN_POINT('',(0.15129904,0.0127579617810521,0.33075));
#1260=CARTESIAN_POINT('',(0.15129904,0.00975796178105215,0.33075));
#1261=CARTESIAN_POINT('',(0.15129904,0.00975796178105215,0.33375));
#1262=CARTESIAN_POINT('',(0.15129904,0.000682961781052153,0.33375));
#1263=CARTESIAN_POINT('',(0.15129904,-0.0143920382189478,0.33375));
#1264=CARTESIAN_POINT('',(0.15129904,-0.0143920382189478,0.33075));
#1265=CARTESIAN_POINT('',(0.15129904,-0.0173920382189478,0.33075));
#1266=CARTESIAN_POINT('',(0.15129904,-0.0173920382189478,0.30875));
#1267=CARTESIAN_POINT('',(0.15129904,-0.0173920382189478,0.3288));
#1268=CARTESIAN_POINT('',(0.15129904,0.00760796178105215,0.3288));
#1269=CARTESIAN_POINT('',(0.15129904,0.00760796178105215,0.3288));
#1270=CARTESIAN_POINT('',(0.15129904,0.00760796178105215,0.30875));
#1271=CARTESIAN_POINT('',(0.15129904,0.00760796178105215,0.3233));
#1272=CARTESIAN_POINT('',(0.15129904,0.00760796178105215,0.3233));
#1273=CARTESIAN_POINT('',(0.15129904,-0.0173920382189478,0.3233));
#1274=CARTESIAN_POINT('',(0.15129904,-0.0173920382189478,0.30875));
#1275=CARTESIAN_POINT('',(0.15129904,-0.0173920382189478,0.28675));
#1276=CARTESIAN_POINT('',(0.15129904,-0.0143920382189478,0.28675));
#1277=CARTESIAN_POINT('',(0.15129904,-0.0143920382189478,0.28375));
#1278=CARTESIAN_POINT('',(0.15129904,0.000682961781052153,0.28375));
#1279=CARTESIAN_POINT('',(0.15129904,0.00975796178105215,0.28375));
#1280=CARTESIAN_POINT('',(0.15129904,0.00975796178105215,0.28675));
#1281=CARTESIAN_POINT('',(0.15129904,0.0127579617810521,0.28675));
#1282=CARTESIAN_POINT('',(0.15129904,0.0127579617810521,0.289907950449948));
#1283=CARTESIAN_POINT('',(0.15129904,0.0128863005601925,0.29575));
#1284=CARTESIAN_POINT('',(0.15129904,0.0128863005601925,0.29675));
#1285=CARTESIAN_POINT('',(0.15129904,0.0123797969577709,0.29675));
#1286=CARTESIAN_POINT('',(0.15129904,0.0096297969577709,0.29675));
#1287=CARTESIAN_POINT('',(0.15129904,0.0096297969577709,0.2975));
#1288=CARTESIAN_POINT('',(0.15129904,-0.0151920382189474,0.30875));
#1289=CARTESIAN_POINT('',(0.15129904,-0.0161920382189474,0.30875));
#1290=CARTESIAN_POINT('',(0.15129904,0.0130579617810526,0.30875));
#1291=CARTESIAN_POINT('',(0.15129904,0.0120579617810526,0.30875));
#1292=CARTESIAN_POINT('',(0.15129904,0.00120796178105215,0.31515));
#1293=CARTESIAN_POINT('',(0.15129904,0.0108079617810521,0.31515));
#1294=CARTESIAN_POINT('',(0.15129904,-0.0126920382189479,0.31515));
#1295=CARTESIAN_POINT('',(0.15129904,0.0108079617810521,0.30875));
#1296=CARTESIAN_POINT('',(0.15129904,0.0108079617810521,0.30235));
#1297=CARTESIAN_POINT('',(0.15129904,0.00120796178105215,0.30235));
#1298=CARTESIAN_POINT('',(0.15129904,-0.0126920382189479,0.30235));
#1299=CARTESIAN_POINT('',(0.15129904,-0.0126920382189479,0.30875));
#1300=CARTESIAN_POINT('',(0.14379904,0.00120796178105215,0.31515));
#1301=CARTESIAN_POINT('',(0.14379904,-0.0126920382189479,0.31515));
#1302=CARTESIAN_POINT('',(0.14379904,-0.0126920382189479,0.31515));
#1303=CARTESIAN_POINT('',(0.14379904,0.00120796178105215,0.31515));
#1304=CARTESIAN_POINT('',(0.14379904,0.0108079617810521,0.31515));
#1305=CARTESIAN_POINT('',(0.14379904,0.0108079617810521,0.31515));
#1306=CARTESIAN_POINT('',(0.14379904,0.0108079617810521,0.30875));
#1307=CARTESIAN_POINT('',(0.14379904,0.0108079617810521,0.30875));
#1308=CARTESIAN_POINT('',(0.14379904,0.0108079617810521,0.30235));
#1309=CARTESIAN_POINT('',(0.14379904,0.0108079617810521,0.30235));
#1310=CARTESIAN_POINT('',(0.14379904,0.00120796178105215,0.30235));
#1311=CARTESIAN_POINT('',(0.14379904,0.00120796178105215,0.30235));
#1312=CARTESIAN_POINT('',(0.14379904,-0.0126920382189479,0.30235));
#1313=CARTESIAN_POINT('',(0.14379904,-0.0126920382189479,0.30235));
#1314=CARTESIAN_POINT('',(0.14379904,-0.0143920382189478,0.28675));
#1315=CARTESIAN_POINT('',(0.14379904,-0.0173920382189478,0.28675));
#1316=CARTESIAN_POINT('',(0.14379904,-0.0173920382189478,0.28675));
#1317=CARTESIAN_POINT('',(0.14379904,-0.0143920382189478,0.28675));
#1318=CARTESIAN_POINT('',(0.14379904,-0.0143920382189478,0.28375));
#1319=CARTESIAN_POINT('',(0.14379904,-0.0143920382189478,0.28375));
#1320=CARTESIAN_POINT('',(0.14379904,0.000682961781052153,0.28375));
#1321=CARTESIAN_POINT('',(0.14754904,-0.000942038218947866,0.28375));
#1322=CARTESIAN_POINT('',(0.14754904,-0.00254203821894787,0.28375));
#1323=CARTESIAN_POINT('',(0.14379904,0.000682961781052153,0.28375));
#1324=CARTESIAN_POINT('',(0.14379904,0.00975796178105215,0.28375));
#1325=CARTESIAN_POINT('',(0.14379904,0.00975796178105215,0.28375));
#1326=CARTESIAN_POINT('',(0.14379904,0.00975796178105215,0.28675));
#1327=CARTESIAN_POINT('',(0.14379904,0.00975796178105215,0.28675));
#1328=CARTESIAN_POINT('',(0.14379904,0.0127579617810521,0.28675));
#1329=CARTESIAN_POINT('',(0.14379904,0.0127579617810521,0.28675));
#1330=CARTESIAN_POINT('',(0.14379904,0.0127579617810521,0.289907950449948));
#1331=CARTESIAN_POINT('',(0.14379904,0.0127579617810521,0.289907950449948));
#1332=CARTESIAN_POINT('',(0.14379904,0.0146301611507544,0.297157950449948));
#1333=CARTESIAN_POINT('',(0.14379904,0.0153969690611153,0.298833955695621));
#1334=CARTESIAN_POINT('',(0.14379904,0.0153969690611153,0.298833955695621));
#1335=CARTESIAN_POINT('',(0.14379904,0.0146301611507544,0.297157950449948));
#1336=CARTESIAN_POINT('',(0.14379904,0.0165023605204566,0.30125));
#1337=CARTESIAN_POINT('',(0.14379904,0.0165023605204566,0.30125));
#1338=CARTESIAN_POINT('',(0.14379904,0.0165023605204566,0.30875));
#1339=CARTESIAN_POINT('',(0.14379904,0.0165023605204566,0.30875));
#1340=CARTESIAN_POINT('',(0.14379904,0.0146301611507544,0.320342049550053));
#1341=CARTESIAN_POINT('',(0.14379904,0.0137956449046487,0.322166044304379));
#1342=CARTESIAN_POINT('',(0.14379904,0.0137956449046487,0.322166044304379));
#1343=CARTESIAN_POINT('',(0.14379904,0.0146301611507544,0.320342049550053));
#1344=CARTESIAN_POINT('',(0.14379904,0.0127579617810522,0.324434099100105));
#1345=CARTESIAN_POINT('',(0.14379904,0.0127579617810522,0.324434099100105));
#1346=CARTESIAN_POINT('',(0.14379904,0.0127579617810521,0.327592049550052));
#1347=CARTESIAN_POINT('',(0.14379904,0.0127579617810521,0.327592049550052));
#1348=CARTESIAN_POINT('',(0.14379904,0.0127579617810521,0.33075));
#1349=CARTESIAN_POINT('',(0.14379904,0.0127579617810521,0.33075));
#1350=CARTESIAN_POINT('',(0.14379904,0.00975796178105215,0.33075));
#1351=CARTESIAN_POINT('',(0.14379904,0.00975796178105215,0.33075));
#1352=CARTESIAN_POINT('',(0.14379904,0.00975796178105215,0.33375));
#1353=CARTESIAN_POINT('',(0.14379904,0.00975796178105215,0.33375));
#1354=CARTESIAN_POINT('',(0.14379904,0.000682961781052153,0.33375));
#1355=CARTESIAN_POINT('',(0.14754904,-0.000942038218947866,0.33375));
#1356=CARTESIAN_POINT('',(0.14754904,-0.00254203821894787,0.33375));
#1357=CARTESIAN_POINT('',(0.14379904,0.000682961781052153,0.33375));
#1358=CARTESIAN_POINT('',(0.14379904,-0.0143920382189478,0.33375));
#1359=CARTESIAN_POINT('',(0.14379904,-0.0143920382189478,0.33375));
#1360=CARTESIAN_POINT('',(0.14379904,-0.0143920382189478,0.33075));
#1361=CARTESIAN_POINT('',(0.14379904,-0.0143920382189478,0.33075));
#1362=CARTESIAN_POINT('',(0.14379904,-0.0173920382189478,0.33075));
#1363=CARTESIAN_POINT('',(0.14379904,-0.0173920382189478,0.33075));
#1364=CARTESIAN_POINT('',(0.14379904,-0.0173920382189478,0.30875));
#1365=CARTESIAN_POINT('',(0.150216508245269,-0.0173920382189478,0.329425));
#1366=CARTESIAN_POINT('',(0.14379904,-0.0173920382189478,0.30875));
#1367=CARTESIAN_POINT('',(0.150216508245269,-0.0173920382189478,0.322675));
#1368=CARTESIAN_POINT('',(0.14379904,-0.0126920382189479,0.30875));
#1369=CARTESIAN_POINT('',(0.14379904,-0.0126920382189479,0.30875));
#1370=CARTESIAN_POINT('',(0.14379904,-0.000444838849245635,0.30875));
#1371=CARTESIAN_POINT('',(0.14379904,-0.0151920382189474,0.30875));
#1372=CARTESIAN_POINT('',(0.14379904,-0.0161920382189474,0.30875));
#1373=CARTESIAN_POINT('',(0.14379904,0.0130579617810526,0.30875));
#1374=CARTESIAN_POINT('',(0.14379904,0.0120579617810526,0.30875));
#1375=CARTESIAN_POINT('',(0.14379904,-0.000642038218947859,0.32605));
#1376=CARTESIAN_POINT('',(0.14379904,-0.00476703821894786,0.32605));
#1377=CARTESIAN_POINT('',(0.14379904,0.0144876247166591,0.29925));
#1378=CARTESIAN_POINT('',(0.14379904,0.0144876247166591,0.29825));
#1379=CARTESIAN_POINT('',(0.14379904,-0.000444838849245635,0.29825));
#1380=CARTESIAN_POINT('',(0.14379904,0.0096297969577709,0.29825));
#1381=CARTESIAN_POINT('',(0.14379904,0.0096297969577709,0.30875));
#1382=CARTESIAN_POINT('',(0.14379904,0.0096297969577709,0.29675));
#1383=CARTESIAN_POINT('',(0.14379904,-0.000444838849245635,0.29675));
#1384=CARTESIAN_POINT('',(0.14379904,0.0128863005601925,0.29675));
#1385=CARTESIAN_POINT('',(0.14379904,0.0128863005601925,0.29575));
#1386=CARTESIAN_POINT('',(0.14379904,0.0128863005601926,0.32175));
#1387=CARTESIAN_POINT('',(0.14379904,0.0128863005601926,0.32075));
#1388=CARTESIAN_POINT('',(0.14379904,-0.000444838849245635,0.32075));
#1389=CARTESIAN_POINT('',(0.14379904,0.0096297969577709,0.32075));
#1390=CARTESIAN_POINT('',(0.14379904,0.0096297969577709,0.30875));
#1391=CARTESIAN_POINT('',(0.14379904,0.0096297969577709,0.31925));
#1392=CARTESIAN_POINT('',(0.14379904,-0.000444838849245635,0.31925));
#1393=CARTESIAN_POINT('',(0.14379904,0.0144876247166592,0.31925));
#1394=CARTESIAN_POINT('',(0.14379904,0.0144876247166592,0.31825));
#1395=CARTESIAN_POINT('',(0.150216508245269,0.00760796178105215,0.329425));
#1396=CARTESIAN_POINT('',(0.14915,0.00760796178105215,0.3300407488225));
#1397=CARTESIAN_POINT('',(0.14915,-0.00168585277897303,0.3300407488225));
#1398=CARTESIAN_POINT('',(0.14915,0.000401776341077308,0.3300407488225));
#1399=CARTESIAN_POINT('',(0.156062179720814,-0.000642038218947859,0.32605));
#1400=CARTESIAN_POINT('',(0.149133976490539,0.000365743999589404,0.33005));
#1401=CARTESIAN_POINT('',(0.149133976490539,0.00760796178105215,0.33005));
#1402=CARTESIAN_POINT('',(0.149133976490539,0.00760796178105215,0.33005));
#1403=CARTESIAN_POINT('',(0.150216508245269,0.00760796178105215,0.329425));
#1404=CARTESIAN_POINT('',(0.156062179720814,-0.000642038218947859,0.32605));
#1405=CARTESIAN_POINT('',(0.149133976490539,0.00760796178105215,0.32605));
#1406=CARTESIAN_POINT('',(0.149133976490539,-0.000642038218947859,0.32605));
#1407=CARTESIAN_POINT('',(0.149133976490539,0.000365743999589422,0.32205));
#1408=CARTESIAN_POINT('',(0.149133976490539,0.00760796178105215,0.32205));
#1409=CARTESIAN_POINT('',(0.149133976490539,0.00760796178105215,0.32205));
#1410=CARTESIAN_POINT('',(0.149133976490539,0.00760796178105215,0.32605));
#1411=CARTESIAN_POINT('',(0.150216508245269,0.00760796178105215,0.322675));
#1412=CARTESIAN_POINT('',(0.14915,0.00760796178105215,0.322059251177501));
#1413=CARTESIAN_POINT('',(0.14915,0.000401776341077308,0.322059251177501));
#1414=CARTESIAN_POINT('',(0.14915,-0.00168585277897303,0.322059251177501));
#1415=CARTESIAN_POINT('',(0.156062179720814,-0.000642038218947859,0.32605));
#1416=CARTESIAN_POINT('',(0.150216508245269,0.00760796178105215,0.322675));
#1417=CARTESIAN_POINT('',(0.156062179720814,-0.000642038218947859,0.32605));
#1418=CARTESIAN_POINT('',(0.14754904,0.00760796178105215,0.30875));
#1419=CARTESIAN_POINT('',(0.12415,-0.000642038218947859,0.32605));
#1420=CARTESIAN_POINT('',(0.148798327239696,-0.00219456089602874,0.329913635963701));
#1421=CARTESIAN_POINT('',(0.147548679796071,-0.00271577466961023,0.329610322173203));
#1422=CARTESIAN_POINT('',(0.14630119357602,-0.00219456973921746,0.329913291019775));
#1423=CARTESIAN_POINT('',(0.145776523654601,-0.000970279347422904,0.330239836150873));
#1424=CARTESIAN_POINT('',(0.146287615940126,0.000310537744910215,0.330103329136081));
#1425=CARTESIAN_POINT('',(0.147546581143974,0.000831521978371458,0.329895647304645));
#1426=CARTESIAN_POINT('',(0.148809952468342,0.000311139451835315,0.330102857411368));
#1427=CARTESIAN_POINT('',(0.149321377164414,-0.000965481753058337,0.330240249597988));
#1428=CARTESIAN_POINT('',(0.148798327239696,-0.00219456089602874,0.329913635963701));
#1429=CARTESIAN_POINT('',(0.147548679796071,-0.00271577466961023,0.329610322173203));
#1430=CARTESIAN_POINT('',(0.14630119357602,-0.00219456973921746,0.329913291019775));
#1431=CARTESIAN_POINT('',(0.14754904,-0.00254203821894786,0.329711369279382));
#1432=CARTESIAN_POINT('',(0.14915,-0.000642038218947859,0.32605));
#1433=CARTESIAN_POINT('',(0.14915,-0.000642038218947859,0.32605));
#1434=CARTESIAN_POINT('',(0.14915,-0.000444838849245635,0.30875));
#1435=CARTESIAN_POINT('',(0.14915,-0.000444838849245635,0.30875));
#1436=CARTESIAN_POINT('',(0.14754904,-0.000942038218947866,0.283748));
#1437=CARTESIAN_POINT('',(0.14754904,-0.000942038218947866,0.295577));
#1438=CARTESIAN_POINT('',(0.12629904,0.0130579617810526,0.30875));
#1439=CARTESIAN_POINT('',(0.12629904,-0.0151920382189474,0.30875));
#1440=CARTESIAN_POINT('',(0.12629904,0.0123797969577709,0.29825));
#1441=CARTESIAN_POINT('',(0.12629904,0.0144876247166591,0.29825));
#1442=CARTESIAN_POINT('',(0.12629904,0.0096297969577709,0.29825));
#1443=CARTESIAN_POINT('',(0.12629904,0.0096297969577709,0.2975));
#1444=CARTESIAN_POINT('',(0.12629904,0.0096297969577709,0.29675));
#1445=CARTESIAN_POINT('',(0.12629904,0.0123797969577709,0.29675));
#1446=CARTESIAN_POINT('',(0.14379904,0.0128863005601925,0.29675));
#1447=CARTESIAN_POINT('',(0.12629904,0.0123797969577709,0.32075));
#1448=CARTESIAN_POINT('',(0.12629904,0.0128863005601926,0.32075));
#1449=CARTESIAN_POINT('',(0.12629904,0.0096297969577709,0.32075));
#1450=CARTESIAN_POINT('',(0.12629904,0.0096297969577709,0.32));
#1451=CARTESIAN_POINT('',(0.12629904,0.0096297969577709,0.31925));
#1452=CARTESIAN_POINT('',(0.12629904,0.0123797969577709,0.31925));
#1453=CARTESIAN_POINT('',(0.14379904,0.0144876247166592,0.31925));
#1454=CARTESIAN_POINT('',(0.12629904,0.0144876247166591,0.29925));
#1455=CARTESIAN_POINT('',(0.12629904,0.0128863005601925,0.29575));
#1456=CARTESIAN_POINT('',(0.14379904,0.0144876247166592,0.31825));
#1457=CARTESIAN_POINT('',(0.14379904,0.0128863005601926,0.32175));
#1458=MECHANICAL_DESIGN_GEOMETRIC_PRESENTATION_REPRESENTATION('',(#866),
#1459);
#1459=(
GEOMETRIC_REPRESENTATION_CONTEXT(3)
GLOBAL_UNCERTAINTY_ASSIGNED_CONTEXT((#1460))
GLOBAL_UNIT_ASSIGNED_CONTEXT((#1463,#1462,#1461))
REPRESENTATION_CONTEXT('End Rod Plate Z-Axis','TOP_LEVEL_ASSEMBLY_PART')
);
#1460=UNCERTAINTY_MEASURE_WITH_UNIT(LENGTH_MEASURE(2.E-5),#1463,
'DISTANCE_ACCURACY_VALUE','Maximum Tolerance applied to model');
#1461=(
NAMED_UNIT(*)
SI_UNIT($,.STERADIAN.)
SOLID_ANGLE_UNIT()
);
#1462=(
NAMED_UNIT(*)
PLANE_ANGLE_UNIT()
SI_UNIT($,.RADIAN.)
);
#1463=(
LENGTH_UNIT()
NAMED_UNIT(*)
SI_UNIT($,.METRE.)
);
#1464=PRODUCT_DEFINITION_SHAPE('','',#1465);
#1465=PRODUCT_DEFINITION('','',#1467,#1466);
#1466=PRODUCT_DEFINITION_CONTEXT('',#1473,'design');
#1467=PRODUCT_DEFINITION_FORMATION_WITH_SPECIFIED_SOURCE('','',#1469,
 .NOT_KNOWN.);
#1468=PRODUCT_RELATED_PRODUCT_CATEGORY('','',(#1469));
#1469=PRODUCT('End Rod Plate Z-Axis','End Rod Plate Z-Axis',
'End Rod Plate Z-Axis',(#1471));
#1470=PRODUCT_CATEGORY('','');
#1471=PRODUCT_CONTEXT('',#1473,'mechanical');
#1472=APPLICATION_PROTOCOL_DEFINITION('international standard',
'ap242_managed_model_based_3d_engineering',2020,#1473);
#1473=APPLICATION_CONTEXT('managed model based 3d engineering');
ENDSEC;
END-ISO-10303-21;
