ISO-10303-21;
HEADER;
/* Generated by software containing ST-Developer
 * from STEP Tools, Inc. (www.steptools.com) 
 */
/* OPTION: using custom renumber hook */

FILE_DESCRIPTION(
/* description */ ('STEP AP242 Edition 2',
'CAx-IF Rec.Pracs.---Representation and Presentation of Product Manufa
cturing Information (PMI)---4.0---2014-10-13',
'CAx-IF Rec.Pracs.---3D Tessellated Geometry---0.4---2014-09-14','2;1',
'CAx-IF Rec.Pracs.---User Defined Attributes---1.5---2016-08-15'),
/* implementation_level */ '2;1');

FILE_NAME(
/* name */ 'Plot Platter Part Studio - Pen Holder',
/* time_stamp */ '2026-08-02T03:40:41Z',
/* author */ (''),
/* organization */ (''),
/* preprocessor_version */ 'ST-DEVELOPER v20',
/* originating_system */ 'ONSHAPE BY PTC INC, 1.218',
/* authorisation */ '  ');

FILE_SCHEMA (('AP242_MANAGED_MODEL_BASED_3D_ENGINEERING_MIM_LF { 1 0 10303 442 3 1 4 }'));
ENDSEC;

DATA;
#10=SHAPE_REPRESENTATION_RELATIONSHIP('','',#317,#11);
#11=ADVANCED_BREP_SHAPE_REPRESENTATION('',(#315),#529);
#12=B_SPLINE_CURVE_WITH_KNOTS('',3,(#498,#499,#500,#501,#502,#503,#504,
#505,#506,#507,#508),.UNSPECIFIED.,.T.,.F.,(1,1,1,1,1,1,1,1,1,1,1,1,1,1,
1),(-0.00375875031868158,-0.00250583354578772,-0.00125291677289386,0.,0.00125291677289386,
0.00250583354578772,0.00375875031868158,0.00501166709157544,0.0062645838644693,
0.00751750063736316,0.00877041741025702,0.0100233341831509,0.0112762509560447,
0.0125291677289386,0.0137820845018325),.UNSPECIFIED.);
#13=B_SPLINE_CURVE_WITH_KNOTS('',3,(#515,#516,#517,#518,#519,#520,#521,
#522,#523,#524,#525),.UNSPECIFIED.,.T.,.F.,(1,1,1,1,1,1,1,1,1,1,1,1,1,1,
1),(-0.00376208845372682,-0.00250805896915121,-0.00125402948457561,0.,0.00125402948457561,
0.00250805896915121,0.00376208845372682,0.00501611793830243,0.00627014742287803,
0.00752417690745364,0.00877820639202925,0.0100322358766049,0.0112862653611805,
0.0125402948457561,0.0137943243303317),.UNSPECIFIED.);
#14=CYLINDRICAL_SURFACE('',#336,0.0025);
#15=CYLINDRICAL_SURFACE('',#338,0.009);
#16=CYLINDRICAL_SURFACE('',#340,0.0025);
#17=CYLINDRICAL_SURFACE('',#341,0.0075);
#18=CYLINDRICAL_SURFACE('',#342,0.0016);
#19=CIRCLE('',#323,0.0025);
#20=CIRCLE('',#324,0.009);
#21=CIRCLE('',#325,0.0025);
#22=CIRCLE('',#326,0.0075);
#23=CIRCLE('',#328,0.0025);
#24=CIRCLE('',#329,0.009);
#25=CIRCLE('',#330,0.0025);
#26=CIRCLE('',#331,0.0075);
#27=ORIENTED_EDGE('',*,*,#107,.F.);
#28=ORIENTED_EDGE('',*,*,#108,.F.);
#29=ORIENTED_EDGE('',*,*,#109,.T.);
#30=ORIENTED_EDGE('',*,*,#110,.T.);
#31=ORIENTED_EDGE('',*,*,#111,.F.);
#32=ORIENTED_EDGE('',*,*,#110,.F.);
#33=ORIENTED_EDGE('',*,*,#112,.T.);
#34=ORIENTED_EDGE('',*,*,#113,.T.);
#35=ORIENTED_EDGE('',*,*,#114,.F.);
#36=ORIENTED_EDGE('',*,*,#113,.F.);
#37=ORIENTED_EDGE('',*,*,#115,.T.);
#38=ORIENTED_EDGE('',*,*,#116,.T.);
#39=ORIENTED_EDGE('',*,*,#109,.F.);
#40=ORIENTED_EDGE('',*,*,#117,.F.);
#41=ORIENTED_EDGE('',*,*,#118,.T.);
#42=ORIENTED_EDGE('',*,*,#119,.F.);
#43=ORIENTED_EDGE('',*,*,#120,.T.);
#44=ORIENTED_EDGE('',*,*,#121,.F.);
#45=ORIENTED_EDGE('',*,*,#122,.F.);
#46=ORIENTED_EDGE('',*,*,#123,.F.);
#47=ORIENTED_EDGE('',*,*,#124,.F.);
#48=ORIENTED_EDGE('',*,*,#125,.T.);
#49=ORIENTED_EDGE('',*,*,#115,.F.);
#50=ORIENTED_EDGE('',*,*,#112,.F.);
#51=ORIENTED_EDGE('',*,*,#126,.T.);
#52=ORIENTED_EDGE('',*,*,#114,.T.);
#53=ORIENTED_EDGE('',*,*,#127,.F.);
#54=ORIENTED_EDGE('',*,*,#128,.T.);
#55=ORIENTED_EDGE('',*,*,#129,.T.);
#56=ORIENTED_EDGE('',*,*,#130,.T.);
#57=ORIENTED_EDGE('',*,*,#131,.T.);
#58=ORIENTED_EDGE('',*,*,#132,.F.);
#59=ORIENTED_EDGE('',*,*,#133,.T.);
#60=ORIENTED_EDGE('',*,*,#134,.F.);
#61=ORIENTED_EDGE('',*,*,#135,.T.);
#62=ORIENTED_EDGE('',*,*,#107,.T.);
#63=ORIENTED_EDGE('',*,*,#111,.T.);
#64=ORIENTED_EDGE('',*,*,#136,.F.);
#65=ORIENTED_EDGE('',*,*,#116,.F.);
#66=ORIENTED_EDGE('',*,*,#125,.F.);
#67=ORIENTED_EDGE('',*,*,#137,.T.);
#68=ORIENTED_EDGE('',*,*,#127,.T.);
#69=ORIENTED_EDGE('',*,*,#108,.T.);
#70=ORIENTED_EDGE('',*,*,#135,.F.);
#71=ORIENTED_EDGE('',*,*,#138,.F.);
#72=ORIENTED_EDGE('',*,*,#117,.T.);
#73=ORIENTED_EDGE('',*,*,#134,.T.);
#74=ORIENTED_EDGE('',*,*,#139,.F.);
#75=ORIENTED_EDGE('',*,*,#118,.F.);
#76=ORIENTED_EDGE('',*,*,#138,.T.);
#77=ORIENTED_EDGE('',*,*,#128,.F.);
#78=ORIENTED_EDGE('',*,*,#137,.F.);
#79=ORIENTED_EDGE('',*,*,#124,.T.);
#80=ORIENTED_EDGE('',*,*,#140,.T.);
#81=ORIENTED_EDGE('',*,*,#129,.F.);
#82=ORIENTED_EDGE('',*,*,#140,.F.);
#83=ORIENTED_EDGE('',*,*,#123,.T.);
#84=ORIENTED_EDGE('',*,*,#141,.T.);
#85=ORIENTED_EDGE('',*,*,#130,.F.);
#86=ORIENTED_EDGE('',*,*,#141,.F.);
#87=ORIENTED_EDGE('',*,*,#122,.T.);
#88=ORIENTED_EDGE('',*,*,#142,.T.);
#89=ORIENTED_EDGE('',*,*,#143,.F.);
#90=ORIENTED_EDGE('',*,*,#131,.F.);
#91=ORIENTED_EDGE('',*,*,#142,.F.);
#92=ORIENTED_EDGE('',*,*,#121,.T.);
#93=ORIENTED_EDGE('',*,*,#144,.T.);
#94=ORIENTED_EDGE('',*,*,#132,.T.);
#95=ORIENTED_EDGE('',*,*,#144,.F.);
#96=ORIENTED_EDGE('',*,*,#120,.F.);
#97=ORIENTED_EDGE('',*,*,#145,.T.);
#98=ORIENTED_EDGE('',*,*,#133,.F.);
#99=ORIENTED_EDGE('',*,*,#145,.F.);
#100=ORIENTED_EDGE('',*,*,#119,.T.);
#101=ORIENTED_EDGE('',*,*,#139,.T.);
#102=ORIENTED_EDGE('',*,*,#146,.F.);
#103=ORIENTED_EDGE('',*,*,#126,.F.);
#104=ORIENTED_EDGE('',*,*,#136,.T.);
#105=ORIENTED_EDGE('',*,*,#143,.T.);
#106=ORIENTED_EDGE('',*,*,#146,.T.);
#107=EDGE_CURVE('',#147,#148,#175,.T.);
#108=EDGE_CURVE('',#149,#147,#176,.T.);
#109=EDGE_CURVE('',#149,#150,#177,.T.);
#110=EDGE_CURVE('',#150,#148,#178,.T.);
#111=EDGE_CURVE('',#148,#151,#179,.T.);
#112=EDGE_CURVE('',#150,#152,#180,.T.);
#113=EDGE_CURVE('',#152,#151,#181,.T.);
#114=EDGE_CURVE('',#151,#153,#182,.T.);
#115=EDGE_CURVE('',#152,#154,#183,.T.);
#116=EDGE_CURVE('',#154,#153,#184,.T.);
#117=EDGE_CURVE('',#155,#149,#185,.T.);
#118=EDGE_CURVE('',#155,#156,#186,.T.);
#119=EDGE_CURVE('',#157,#156,#19,.T.);
#120=EDGE_CURVE('',#157,#158,#187,.T.);
#121=EDGE_CURVE('',#159,#158,#20,.T.);
#122=EDGE_CURVE('',#160,#159,#188,.T.);
#123=EDGE_CURVE('',#161,#160,#21,.T.);
#124=EDGE_CURVE('',#162,#161,#189,.T.);
#125=EDGE_CURVE('',#162,#154,#190,.T.);
#126=EDGE_CURVE('',#163,#163,#22,.T.);
#127=EDGE_CURVE('',#164,#153,#191,.T.);
#128=EDGE_CURVE('',#164,#165,#192,.T.);
#129=EDGE_CURVE('',#165,#166,#23,.T.);
#130=EDGE_CURVE('',#166,#167,#193,.T.);
#131=EDGE_CURVE('',#167,#168,#24,.T.);
#132=EDGE_CURVE('',#169,#168,#194,.T.);
#133=EDGE_CURVE('',#169,#170,#25,.T.);
#134=EDGE_CURVE('',#171,#170,#195,.T.);
#135=EDGE_CURVE('',#171,#147,#196,.T.);
#136=EDGE_CURVE('',#172,#172,#26,.T.);
#137=EDGE_CURVE('',#162,#164,#197,.T.);
#138=EDGE_CURVE('',#155,#171,#198,.T.);
#139=EDGE_CURVE('',#156,#170,#199,.T.);
#140=EDGE_CURVE('',#161,#165,#200,.T.);
#141=EDGE_CURVE('',#160,#166,#201,.T.);
#142=EDGE_CURVE('',#159,#167,#202,.T.);
#143=EDGE_CURVE('',#173,#173,#12,.T.);
#144=EDGE_CURVE('',#158,#168,#203,.T.);
#145=EDGE_CURVE('',#157,#169,#204,.T.);
#146=EDGE_CURVE('',#174,#174,#13,.T.);
#147=VERTEX_POINT('',#426);
#148=VERTEX_POINT('',#427);
#149=VERTEX_POINT('',#429);
#150=VERTEX_POINT('',#431);
#151=VERTEX_POINT('',#435);
#152=VERTEX_POINT('',#437);
#153=VERTEX_POINT('',#441);
#154=VERTEX_POINT('',#443);
#155=VERTEX_POINT('',#447);
#156=VERTEX_POINT('',#449);
#157=VERTEX_POINT('',#451);
#158=VERTEX_POINT('',#453);
#159=VERTEX_POINT('',#455);
#160=VERTEX_POINT('',#457);
#161=VERTEX_POINT('',#459);
#162=VERTEX_POINT('',#461);
#163=VERTEX_POINT('',#464);
#164=VERTEX_POINT('',#467);
#165=VERTEX_POINT('',#469);
#166=VERTEX_POINT('',#471);
#167=VERTEX_POINT('',#473);
#168=VERTEX_POINT('',#475);
#169=VERTEX_POINT('',#477);
#170=VERTEX_POINT('',#479);
#171=VERTEX_POINT('',#481);
#172=VERTEX_POINT('',#484);
#173=VERTEX_POINT('',#509);
#174=VERTEX_POINT('',#526);
#175=LINE('',#425,#205);
#176=LINE('',#428,#206);
#177=LINE('',#430,#207);
#178=LINE('',#432,#208);
#179=LINE('',#434,#209);
#180=LINE('',#436,#210);
#181=LINE('',#438,#211);
#182=LINE('',#440,#212);
#183=LINE('',#442,#213);
#184=LINE('',#444,#214);
#185=LINE('',#446,#215);
#186=LINE('',#448,#216);
#187=LINE('',#452,#217);
#188=LINE('',#456,#218);
#189=LINE('',#460,#219);
#190=LINE('',#462,#220);
#191=LINE('',#466,#221);
#192=LINE('',#468,#222);
#193=LINE('',#472,#223);
#194=LINE('',#476,#224);
#195=LINE('',#480,#225);
#196=LINE('',#482,#226);
#197=LINE('',#486,#227);
#198=LINE('',#488,#228);
#199=LINE('',#490,#229);
#200=LINE('',#492,#230);
#201=LINE('',#494,#231);
#202=LINE('',#496,#232);
#203=LINE('',#510,#233);
#204=LINE('',#512,#234);
#205=VECTOR('',#347,1.);
#206=VECTOR('',#348,1.);
#207=VECTOR('',#349,1.);
#208=VECTOR('',#350,1.);
#209=VECTOR('',#353,1.);
#210=VECTOR('',#354,1.);
#211=VECTOR('',#355,1.);
#212=VECTOR('',#358,1.);
#213=VECTOR('',#359,1.);
#214=VECTOR('',#360,1.);
#215=VECTOR('',#363,1.);
#216=VECTOR('',#364,1.);
#217=VECTOR('',#367,1.);
#218=VECTOR('',#370,1.);
#219=VECTOR('',#373,1.);
#220=VECTOR('',#374,1.);
#221=VECTOR('',#379,1.);
#222=VECTOR('',#380,1.);
#223=VECTOR('',#383,1.);
#224=VECTOR('',#386,1.);
#225=VECTOR('',#389,1.);
#226=VECTOR('',#390,1.);
#227=VECTOR('',#395,1.);
#228=VECTOR('',#398,1.);
#229=VECTOR('',#401,1.);
#230=VECTOR('',#404,1.);
#231=VECTOR('',#407,1.);
#232=VECTOR('',#410,1.);
#233=VECTOR('',#413,1.);
#234=VECTOR('',#416,1.);
#235=EDGE_LOOP('',(#27,#28,#29,#30));
#236=EDGE_LOOP('',(#31,#32,#33,#34));
#237=EDGE_LOOP('',(#35,#36,#37,#38));
#238=EDGE_LOOP('',(#39,#40,#41,#42,#43,#44,#45,#46,#47,#48,#49,#50));
#239=EDGE_LOOP('',(#51));
#240=EDGE_LOOP('',(#52,#53,#54,#55,#56,#57,#58,#59,#60,#61,#62,#63));
#241=EDGE_LOOP('',(#64));
#242=EDGE_LOOP('',(#65,#66,#67,#68));
#243=EDGE_LOOP('',(#69,#70,#71,#72));
#244=EDGE_LOOP('',(#73,#74,#75,#76));
#245=EDGE_LOOP('',(#77,#78,#79,#80));
#246=EDGE_LOOP('',(#81,#82,#83,#84));
#247=EDGE_LOOP('',(#85,#86,#87,#88));
#248=EDGE_LOOP('',(#89));
#249=EDGE_LOOP('',(#90,#91,#92,#93));
#250=EDGE_LOOP('',(#94,#95,#96,#97));
#251=EDGE_LOOP('',(#98,#99,#100,#101));
#252=EDGE_LOOP('',(#102));
#253=EDGE_LOOP('',(#103));
#254=EDGE_LOOP('',(#104));
#255=EDGE_LOOP('',(#105));
#256=EDGE_LOOP('',(#106));
#257=FACE_BOUND('',#235,.T.);
#258=FACE_BOUND('',#236,.T.);
#259=FACE_BOUND('',#237,.T.);
#260=FACE_BOUND('',#238,.T.);
#261=FACE_BOUND('',#239,.T.);
#262=FACE_BOUND('',#240,.T.);
#263=FACE_BOUND('',#241,.T.);
#264=FACE_BOUND('',#242,.T.);
#265=FACE_BOUND('',#243,.T.);
#266=FACE_BOUND('',#244,.T.);
#267=FACE_BOUND('',#245,.T.);
#268=FACE_BOUND('',#246,.T.);
#269=FACE_BOUND('',#247,.T.);
#270=FACE_BOUND('',#248,.T.);
#271=FACE_BOUND('',#249,.T.);
#272=FACE_BOUND('',#250,.T.);
#273=FACE_BOUND('',#251,.T.);
#274=FACE_BOUND('',#252,.T.);
#275=FACE_BOUND('',#253,.T.);
#276=FACE_BOUND('',#254,.T.);
#277=FACE_BOUND('',#255,.T.);
#278=FACE_BOUND('',#256,.T.);
#279=PLANE('',#319);
#280=PLANE('',#320);
#281=PLANE('',#321);
#282=PLANE('',#322);
#283=PLANE('',#327);
#284=PLANE('',#332);
#285=PLANE('',#333);
#286=PLANE('',#334);
#287=PLANE('',#335);
#288=PLANE('',#337);
#289=PLANE('',#339);
#290=ADVANCED_FACE('',(#257),#279,.T.);
#291=ADVANCED_FACE('',(#258),#280,.T.);
#292=ADVANCED_FACE('',(#259),#281,.T.);
#293=ADVANCED_FACE('',(#260,#261),#282,.F.);
#294=ADVANCED_FACE('',(#262,#263),#283,.T.);
#295=ADVANCED_FACE('',(#264),#284,.T.);
#296=ADVANCED_FACE('',(#265),#285,.F.);
#297=ADVANCED_FACE('',(#266),#286,.F.);
#298=ADVANCED_FACE('',(#267),#287,.T.);
#299=ADVANCED_FACE('',(#268),#14,.T.);
#300=ADVANCED_FACE('',(#269),#288,.T.);
#301=ADVANCED_FACE('',(#270,#271),#15,.T.);
#302=ADVANCED_FACE('',(#272),#289,.F.);
#303=ADVANCED_FACE('',(#273),#16,.T.);
#304=ADVANCED_FACE('',(#274,#275,#276),#17,.F.);
#305=ADVANCED_FACE('',(#277,#278),#18,.F.);
#306=CLOSED_SHELL('',(#290,#291,#292,#293,#294,#295,#296,#297,#298,#299,
#300,#301,#302,#303,#304,#305));
#307=STYLED_ITEM('',(#308),#315);
#308=PRESENTATION_STYLE_ASSIGNMENT((#309));
#309=SURFACE_STYLE_USAGE(.BOTH.,#310);
#310=SURFACE_SIDE_STYLE('',(#311));
#311=SURFACE_STYLE_FILL_AREA(#312);
#312=FILL_AREA_STYLE('',(#313));
#313=FILL_AREA_STYLE_COLOUR('',#314);
#314=COLOUR_RGB('',0.498039215686275,0.498039215686275,0.498039215686275);
#315=MANIFOLD_SOLID_BREP('Pen Holder',#306);
#316=SHAPE_DEFINITION_REPRESENTATION(#534,#317);
#317=SHAPE_REPRESENTATION('Pen Holder',(#318),#529);
#318=AXIS2_PLACEMENT_3D('',#423,#343,#344);
#319=AXIS2_PLACEMENT_3D('',#424,#345,#346);
#320=AXIS2_PLACEMENT_3D('',#433,#351,#352);
#321=AXIS2_PLACEMENT_3D('',#439,#356,#357);
#322=AXIS2_PLACEMENT_3D('',#445,#361,#362);
#323=AXIS2_PLACEMENT_3D('',#450,#365,#366);
#324=AXIS2_PLACEMENT_3D('',#454,#368,#369);
#325=AXIS2_PLACEMENT_3D('',#458,#371,#372);
#326=AXIS2_PLACEMENT_3D('',#463,#375,#376);
#327=AXIS2_PLACEMENT_3D('',#465,#377,#378);
#328=AXIS2_PLACEMENT_3D('',#470,#381,#382);
#329=AXIS2_PLACEMENT_3D('',#474,#384,#385);
#330=AXIS2_PLACEMENT_3D('',#478,#387,#388);
#331=AXIS2_PLACEMENT_3D('',#483,#391,#392);
#332=AXIS2_PLACEMENT_3D('',#485,#393,#394);
#333=AXIS2_PLACEMENT_3D('',#487,#396,#397);
#334=AXIS2_PLACEMENT_3D('',#489,#399,#400);
#335=AXIS2_PLACEMENT_3D('',#491,#402,#403);
#336=AXIS2_PLACEMENT_3D('',#493,#405,#406);
#337=AXIS2_PLACEMENT_3D('',#495,#408,#409);
#338=AXIS2_PLACEMENT_3D('',#497,#411,#412);
#339=AXIS2_PLACEMENT_3D('',#511,#414,#415);
#340=AXIS2_PLACEMENT_3D('',#513,#417,#418);
#341=AXIS2_PLACEMENT_3D('',#514,#419,#420);
#342=AXIS2_PLACEMENT_3D('',#527,#421,#422);
#343=DIRECTION('',(0.,0.,1.));
#344=DIRECTION('',(1.,0.,0.));
#345=DIRECTION('',(0.5,0.,0.866025403784436));
#346=DIRECTION('',(0.866025403784436,0.,-0.5));
#347=DIRECTION('',(-0.866025403784436,0.,0.5));
#348=DIRECTION('',(0.,-1.,0.));
#349=DIRECTION('',(-0.866025403784436,0.,0.5));
#350=DIRECTION('',(0.,-1.,0.));
#351=DIRECTION('',(-1.,0.,0.));
#352=DIRECTION('',(0.,1.,0.));
#353=DIRECTION('',(0.,0.,-1.));
#354=DIRECTION('',(0.,0.,-1.));
#355=DIRECTION('',(0.,-1.,0.));
#356=DIRECTION('',(0.5,0.,-0.866025403784436));
#357=DIRECTION('',(-0.866025403784436,0.,-0.5));
#358=DIRECTION('',(0.866025403784436,0.,0.5));
#359=DIRECTION('',(0.866025403784436,0.,0.5));
#360=DIRECTION('',(0.,-1.,0.));
#361=DIRECTION('',(0.,-1.,0.));
#362=DIRECTION('',(1.,0.,0.));
#363=DIRECTION('',(-1.,0.,0.));
#364=DIRECTION('',(0.,0.,1.));
#365=DIRECTION('',(0.,-1.,0.));
#366=DIRECTION('',(-1.,0.,0.));
#367=DIRECTION('',(1.,0.,0.));
#368=DIRECTION('',(0.,-1.,0.));
#369=DIRECTION('',(-1.,0.,0.));
#370=DIRECTION('',(1.,0.,0.));
#371=DIRECTION('',(0.,-1.,0.));
#372=DIRECTION('',(-1.,0.,0.));
#373=DIRECTION('',(0.,0.,-1.));
#374=DIRECTION('',(-1.,0.,0.));
#375=DIRECTION('',(0.,-1.,0.));
#376=DIRECTION('',(-1.,0.,0.));
#377=DIRECTION('',(0.,-1.,0.));
#378=DIRECTION('',(1.,0.,0.));
#379=DIRECTION('',(-1.,0.,0.));
#380=DIRECTION('',(0.,0.,-1.));
#381=DIRECTION('',(0.,-1.,0.));
#382=DIRECTION('',(-1.,0.,0.));
#383=DIRECTION('',(1.,0.,0.));
#384=DIRECTION('',(0.,-1.,0.));
#385=DIRECTION('',(-1.,0.,0.));
#386=DIRECTION('',(1.,0.,0.));
#387=DIRECTION('',(0.,-1.,0.));
#388=DIRECTION('',(-1.,0.,0.));
#389=DIRECTION('',(0.,0.,1.));
#390=DIRECTION('',(-1.,0.,0.));
#391=DIRECTION('',(0.,-1.,0.));
#392=DIRECTION('',(-1.,0.,0.));
#393=DIRECTION('',(0.,0.,-1.));
#394=DIRECTION('',(0.,1.,0.));
#395=DIRECTION('',(0.,-1.,0.));
#396=DIRECTION('',(0.,0.,-1.));
#397=DIRECTION('',(0.,1.,0.));
#398=DIRECTION('',(0.,-1.,0.));
#399=DIRECTION('',(1.,0.,0.));
#400=DIRECTION('',(0.,-1.,0.));
#401=DIRECTION('',(0.,-1.,0.));
#402=DIRECTION('',(-1.,0.,0.));
#403=DIRECTION('',(0.,1.,0.));
#404=DIRECTION('',(0.,-1.,0.));
#405=DIRECTION('',(0.,-1.,0.));
#406=DIRECTION('',(-1.,0.,0.));
#407=DIRECTION('',(0.,-1.,0.));
#408=DIRECTION('',(0.,0.,-1.));
#409=DIRECTION('',(0.,1.,0.));
#410=DIRECTION('',(0.,-1.,0.));
#411=DIRECTION('',(0.,-1.,0.));
#412=DIRECTION('',(-1.,0.,0.));
#413=DIRECTION('',(0.,-1.,0.));
#414=DIRECTION('',(0.,0.,-1.));
#415=DIRECTION('',(0.,1.,0.));
#416=DIRECTION('',(0.,-1.,0.));
#417=DIRECTION('',(0.,-1.,0.));
#418=DIRECTION('',(-1.,0.,0.));
#419=DIRECTION('',(0.,-1.,0.));
#420=DIRECTION('',(-1.,0.,0.));
#421=DIRECTION('',(1.,0.,0.));
#422=DIRECTION('',(0.,-1.,0.));
#423=CARTESIAN_POINT('',(0.,0.,0.));
#424=CARTESIAN_POINT('',(0.150216508245269,-0.00989203821894785,0.329251794919243));
#425=CARTESIAN_POINT('',(0.150216508245269,-0.0173920382189478,0.329251794919243));
#426=CARTESIAN_POINT('',(0.15114904,-0.0173920382189478,0.328713397459622));
#427=CARTESIAN_POINT('',(0.149283976490539,-0.0173920382189478,0.329790192378865));
#428=CARTESIAN_POINT('',(0.15114904,-0.00989203821894785,0.328713397459622));
#429=CARTESIAN_POINT('',(0.15114904,-0.00989203821894785,0.328713397459622));
#430=CARTESIAN_POINT('',(0.150216508245269,-0.00989203821894785,0.329251794919243));
#431=CARTESIAN_POINT('',(0.149283976490539,-0.00989203821894785,0.329790192378865));
#432=CARTESIAN_POINT('',(0.149283976490539,-0.00989203821894785,0.329790192378865));
#433=CARTESIAN_POINT('',(0.149283976490539,-0.00989203821894785,0.32605));
#434=CARTESIAN_POINT('',(0.149283976490539,-0.0173920382189478,0.32605));
#435=CARTESIAN_POINT('',(0.149283976490539,-0.0173920382189478,0.322309807621135));
#436=CARTESIAN_POINT('',(0.149283976490539,-0.00989203821894785,0.32605));
#437=CARTESIAN_POINT('',(0.149283976490539,-0.00989203821894785,0.322309807621135));
#438=CARTESIAN_POINT('',(0.149283976490539,-0.00989203821894785,0.322309807621135));
#439=CARTESIAN_POINT('',(0.150216508245269,-0.00989203821894785,0.322848205080757));
#440=CARTESIAN_POINT('',(0.150216508245269,-0.0173920382189478,0.322848205080757));
#441=CARTESIAN_POINT('',(0.15114904,-0.0173920382189478,0.323386602540379));
#442=CARTESIAN_POINT('',(0.150216508245269,-0.00989203821894785,0.322848205080757));
#443=CARTESIAN_POINT('',(0.15114904,-0.00989203821894785,0.323386602540379));
#444=CARTESIAN_POINT('',(0.15114904,-0.00989203821894785,0.323386602540379));
#445=CARTESIAN_POINT('',(0.14754904,-0.00989203821894785,0.30875));
#446=CARTESIAN_POINT('',(0.15129904,-0.00989203821894785,0.328713397459622));
#447=CARTESIAN_POINT('',(0.15144904,-0.00989203821894785,0.328713397459622));
#448=CARTESIAN_POINT('',(0.15144904,-0.00989203821894785,0.330213397459622));
#449=CARTESIAN_POINT('',(0.15144904,-0.00989203821894785,0.331713397459622));
#450=CARTESIAN_POINT('',(0.15394904,-0.00989203821894785,0.331713397459622));
#451=CARTESIAN_POINT('',(0.15394904,-0.00989203821894785,0.334213397459622));
#452=CARTESIAN_POINT('',(0.15494904,-0.00989203821894785,0.334213397459622));
#453=CARTESIAN_POINT('',(0.15594904,-0.00989203821894785,0.334213397459622));
#454=CARTESIAN_POINT('',(0.159738359452916,-0.00989203821894785,0.32605));
#455=CARTESIAN_POINT('',(0.15594904,-0.00989203821894785,0.317886602540379));
#456=CARTESIAN_POINT('',(0.15494904,-0.00989203821894785,0.317886602540379));
#457=CARTESIAN_POINT('',(0.15394904,-0.00989203821894785,0.317886602540379));
#458=CARTESIAN_POINT('',(0.15394904,-0.00989203821894785,0.320386602540379));
#459=CARTESIAN_POINT('',(0.15144904,-0.00989203821894785,0.320386602540379));
#460=CARTESIAN_POINT('',(0.15144904,-0.00989203821894785,0.321886602540379));
#461=CARTESIAN_POINT('',(0.15144904,-0.00989203821894785,0.323386602540379));
#462=CARTESIAN_POINT('',(0.15129904,-0.00989203821894785,0.323386602540379));
#463=CARTESIAN_POINT('',(0.159738359452916,-0.00989203821894785,0.32605));
#464=CARTESIAN_POINT('',(0.152238359452916,-0.00989203821894785,0.32605));
#465=CARTESIAN_POINT('',(0.14754904,-0.0173920382189478,0.30875));
#466=CARTESIAN_POINT('',(0.15129904,-0.0173920382189478,0.323386602540379));
#467=CARTESIAN_POINT('',(0.15144904,-0.0173920382189478,0.323386602540379));
#468=CARTESIAN_POINT('',(0.15144904,-0.0173920382189478,0.321886602540379));
#469=CARTESIAN_POINT('',(0.15144904,-0.0173920382189478,0.320386602540379));
#470=CARTESIAN_POINT('',(0.15394904,-0.0173920382189478,0.320386602540379));
#471=CARTESIAN_POINT('',(0.15394904,-0.0173920382189478,0.317886602540379));
#472=CARTESIAN_POINT('',(0.15494904,-0.0173920382189478,0.317886602540379));
#473=CARTESIAN_POINT('',(0.15594904,-0.0173920382189478,0.317886602540379));
#474=CARTESIAN_POINT('',(0.159738359452916,-0.0173920382189478,0.32605));
#475=CARTESIAN_POINT('',(0.15594904,-0.0173920382189478,0.334213397459622));
#476=CARTESIAN_POINT('',(0.15494904,-0.0173920382189478,0.334213397459622));
#477=CARTESIAN_POINT('',(0.15394904,-0.0173920382189478,0.334213397459622));
#478=CARTESIAN_POINT('',(0.15394904,-0.0173920382189478,0.331713397459622));
#479=CARTESIAN_POINT('',(0.15144904,-0.0173920382189478,0.331713397459622));
#480=CARTESIAN_POINT('',(0.15144904,-0.0173920382189478,0.330213397459622));
#481=CARTESIAN_POINT('',(0.15144904,-0.0173920382189478,0.328713397459622));
#482=CARTESIAN_POINT('',(0.15129904,-0.0173920382189478,0.328713397459622));
#483=CARTESIAN_POINT('',(0.159738359452916,-0.0173920382189478,0.32605));
#484=CARTESIAN_POINT('',(0.152238359452916,-0.0173920382189478,0.32605));
#485=CARTESIAN_POINT('',(0.15129904,-0.00989203821894785,0.323386602540379));
#486=CARTESIAN_POINT('',(0.15144904,-0.00989203821894785,0.323386602540379));
#487=CARTESIAN_POINT('',(0.15129904,-0.00989203821894785,0.328713397459622));
#488=CARTESIAN_POINT('',(0.15144904,-0.00989203821894785,0.328713397459622));
#489=CARTESIAN_POINT('',(0.15144904,-0.00989203821894785,0.330213397459622));
#490=CARTESIAN_POINT('',(0.15144904,-0.00989203821894785,0.331713397459622));
#491=CARTESIAN_POINT('',(0.15144904,-0.00989203821894785,0.321886602540379));
#492=CARTESIAN_POINT('',(0.15144904,-0.00989203821894785,0.320386602540379));
#493=CARTESIAN_POINT('',(0.15394904,-0.00989203821894785,0.320386602540379));
#494=CARTESIAN_POINT('',(0.15394904,-0.00989203821894785,0.317886602540379));
#495=CARTESIAN_POINT('',(0.15494904,-0.00989203821894785,0.317886602540379));
#496=CARTESIAN_POINT('',(0.15594904,-0.00989203821894785,0.317886602540379));
#497=CARTESIAN_POINT('',(0.159738359452916,-0.00989203821894785,0.32605));
#498=CARTESIAN_POINT('',(0.168667076855677,-0.0148947238524673,0.327305140486061));
#499=CARTESIAN_POINT('',(0.168773969215903,-0.0154156072388924,0.326049707632253));
#500=CARTESIAN_POINT('',(0.168667202998204,-0.0148950765056502,0.324796028984927));
#501=CARTESIAN_POINT('',(0.168558893310909,-0.0136436218228633,0.324277032124415));
#502=CARTESIAN_POINT('',(0.16866719635015,-0.012388249031366,0.324795844141143));
#503=CARTESIAN_POINT('',(0.168773875456343,-0.0118692555844926,0.326049497407722));
#504=CARTESIAN_POINT('',(0.168667458408299,-0.0123869586962609,0.32730236666579));
#505=CARTESIAN_POINT('',(0.168558859388295,-0.0136407808567736,0.327823122494512));
#506=CARTESIAN_POINT('',(0.168667076855677,-0.0148947238524673,0.327305140486061));
#507=CARTESIAN_POINT('',(0.168773969215903,-0.0154156072388924,0.326049707632253));
#508=CARTESIAN_POINT('',(0.168667202998204,-0.0148950765056502,0.324796028984927));
#509=CARTESIAN_POINT('',(0.168738359452916,-0.0152420382189478,0.32605));
#510=CARTESIAN_POINT('',(0.15594904,-0.00989203821894785,0.334213397459622));
#511=CARTESIAN_POINT('',(0.15494904,-0.00989203821894785,0.334213397459622));
#512=CARTESIAN_POINT('',(0.15394904,-0.00989203821894785,0.334213397459622));
#513=CARTESIAN_POINT('',(0.15394904,-0.00989203821894785,0.331713397459622));
#514=CARTESIAN_POINT('',(0.159738359452916,-0.00989203821894785,0.32605));
#515=CARTESIAN_POINT('',(0.167152832490984,-0.0148947001843485,0.324794907373244));
#516=CARTESIAN_POINT('',(0.167281088034378,-0.0154156332392045,0.326050270329939));
#517=CARTESIAN_POINT('',(0.167152972088999,-0.0148949961725205,0.327304011306999));
#518=CARTESIAN_POINT('',(0.167022067023174,-0.0136437421744092,0.327823003674454));
#519=CARTESIAN_POINT('',(0.167152993162572,-0.0123880648649256,0.327303972242846));
#520=CARTESIAN_POINT('',(0.167280973959046,-0.0118692920861332,0.326050621714592));
#521=CARTESIAN_POINT('',(0.167153267545996,-0.0123869969139451,0.32479748381038));
#522=CARTESIAN_POINT('',(0.167022033345968,-0.013641044443749,0.324276902729861));
#523=CARTESIAN_POINT('',(0.167152832490984,-0.0148947001843485,0.324794907373244));
#524=CARTESIAN_POINT('',(0.167281088034378,-0.0154156332392045,0.326050270329939));
#525=CARTESIAN_POINT('',(0.167152972088999,-0.0148949961725205,0.327304011306999));
#526=CARTESIAN_POINT('',(0.167238359452916,-0.0152420382189478,0.32605));
#527=CARTESIAN_POINT('',(0.152236359452915,-0.0136420382189478,0.32605));
#528=MECHANICAL_DESIGN_GEOMETRIC_PRESENTATION_REPRESENTATION('',(#307),
#529);
#529=(
GEOMETRIC_REPRESENTATION_CONTEXT(3)
GLOBAL_UNCERTAINTY_ASSIGNED_CONTEXT((#530))
GLOBAL_UNIT_ASSIGNED_CONTEXT((#533,#532,#531))
REPRESENTATION_CONTEXT('Pen Holder','TOP_LEVEL_ASSEMBLY_PART')
);
#530=UNCERTAINTY_MEASURE_WITH_UNIT(LENGTH_MEASURE(2.E-5),#533,
'DISTANCE_ACCURACY_VALUE','Maximum Tolerance applied to model');
#531=(
NAMED_UNIT(*)
SI_UNIT($,.STERADIAN.)
SOLID_ANGLE_UNIT()
);
#532=(
NAMED_UNIT(*)
PLANE_ANGLE_UNIT()
SI_UNIT($,.RADIAN.)
);
#533=(
LENGTH_UNIT()
NAMED_UNIT(*)
SI_UNIT($,.METRE.)
);
#534=PRODUCT_DEFINITION_SHAPE('','',#535);
#535=PRODUCT_DEFINITION('','',#537,#536);
#536=PRODUCT_DEFINITION_CONTEXT('',#543,'design');
#537=PRODUCT_DEFINITION_FORMATION_WITH_SPECIFIED_SOURCE('','',#539,
 .NOT_KNOWN.);
#538=PRODUCT_RELATED_PRODUCT_CATEGORY('','',(#539));
#539=PRODUCT('Pen Holder','Pen Holder','Pen Holder',(#541));
#540=PRODUCT_CATEGORY('','');
#541=PRODUCT_CONTEXT('',#543,'mechanical');
#542=APPLICATION_PROTOCOL_DEFINITION('international standard',
'ap242_managed_model_based_3d_engineering',2020,#543);
#543=APPLICATION_CONTEXT('managed model based 3d engineering');
ENDSEC;
END-ISO-10303-21;
