ISO-10303-21;
HEADER;
/* Generated by software containing ST-Developer
 * from STEP Tools, Inc. (www.steptools.com) 
 */
/* OPTION: using custom renumber hook */

FILE_DESCRIPTION(
/* description */ ('STEP AP242 Edition 2',
'CAx-IF Rec.Pracs.---Representation and Presentation of Product Manufa
cturing Information (PMI)---4.0---2014-10-13',
'CAx-IF Rec.Pracs.---3D Tessellated Geometry---0.4---2014-09-14','2;1',
'CAx-IF Rec.Pracs.---User Defined Attributes---1.5---2016-08-15'),
/* implementation_level */ '2;1');

FILE_NAME(
/* name */ 'Plot Platter Part Studio - XY Top Clam',
/* time_stamp */ '2026-08-02T03:40:18Z',
/* author */ (''),
/* organization */ (''),
/* preprocessor_version */ 'ST-DEVELOPER v20',
/* originating_system */ 'ONSHAPE BY PTC INC, 1.218',
/* authorisation */ '  ');

FILE_SCHEMA (('AP242_MANAGED_MODEL_BASED_3D_ENGINEERING_MIM_LF { 1 0 10303 442 3 1 4 }'));
ENDSEC;

DATA;
#10=SHAPE_REPRESENTATION_RELATIONSHIP('','',#1279,#11);
#11=ADVANCED_BREP_SHAPE_REPRESENTATION('',(#1277),#2197);
#12=TOROIDAL_SURFACE('',#1403,0.004,0.001);
#13=TOROIDAL_SURFACE('',#1410,0.00399999999999995,0.001);
#14=TOROIDAL_SURFACE('',#1412,0.004,0.001);
#15=TOROIDAL_SURFACE('',#1418,0.004,0.001);
#16=CYLINDRICAL_SURFACE('',#1289,0.0016);
#17=CYLINDRICAL_SURFACE('',#1292,0.0016);
#18=CYLINDRICAL_SURFACE('',#1295,0.0016);
#19=CYLINDRICAL_SURFACE('',#1298,0.0016);
#20=CYLINDRICAL_SURFACE('',#1334,0.005);
#21=CYLINDRICAL_SURFACE('',#1337,0.005);
#22=CYLINDRICAL_SURFACE('',#1339,0.005);
#23=CYLINDRICAL_SURFACE('',#1342,0.005);
#24=CYLINDRICAL_SURFACE('',#1344,0.0035);
#25=CYLINDRICAL_SURFACE('',#1350,0.002);
#26=CYLINDRICAL_SURFACE('',#1353,0.002);
#27=CYLINDRICAL_SURFACE('',#1356,0.002);
#28=CYLINDRICAL_SURFACE('',#1359,0.0035);
#29=CYLINDRICAL_SURFACE('',#1370,0.0035);
#30=CYLINDRICAL_SURFACE('',#1376,0.0035);
#31=CYLINDRICAL_SURFACE('',#1384,0.002);
#32=CYLINDRICAL_SURFACE('',#1387,0.00775);
#33=CYLINDRICAL_SURFACE('',#1388,0.00775);
#34=CYLINDRICAL_SURFACE('',#1389,0.00775);
#35=CYLINDRICAL_SURFACE('',#1390,0.00775);
#36=CYLINDRICAL_SURFACE('',#1391,0.003);
#37=CYLINDRICAL_SURFACE('',#1394,0.003);
#38=CYLINDRICAL_SURFACE('',#1397,0.003);
#39=CYLINDRICAL_SURFACE('',#1400,0.003);
#40=CYLINDRICAL_SURFACE('',#1406,0.001);
#41=CYLINDRICAL_SURFACE('',#1408,0.001);
#42=CYLINDRICAL_SURFACE('',#1414,0.001);
#43=CYLINDRICAL_SURFACE('',#1416,0.001);
#44=CYLINDRICAL_SURFACE('',#1419,0.002);
#45=CYLINDRICAL_SURFACE('',#1420,0.002);
#46=CYLINDRICAL_SURFACE('',#1421,0.002);
#47=CYLINDRICAL_SURFACE('',#1422,0.002);
#48=CYLINDRICAL_SURFACE('',#1423,0.002);
#49=CYLINDRICAL_SURFACE('',#1424,0.002);
#50=CYLINDRICAL_SURFACE('',#1425,0.002);
#51=CYLINDRICAL_SURFACE('',#1426,0.002);
#52=CIRCLE('',#1282,0.00775);
#53=CIRCLE('',#1284,0.00775);
#54=CIRCLE('',#1285,0.00775);
#55=CIRCLE('',#1290,0.0016);
#56=CIRCLE('',#1291,0.0016);
#57=CIRCLE('',#1293,0.0016);
#58=CIRCLE('',#1294,0.0016);
#59=CIRCLE('',#1296,0.0016);
#60=CIRCLE('',#1297,0.0016);
#61=CIRCLE('',#1299,0.0016);
#62=CIRCLE('',#1300,0.0016);
#63=CIRCLE('',#1302,0.004);
#64=CIRCLE('',#1303,0.004);
#65=CIRCLE('',#1304,0.004);
#66=CIRCLE('',#1305,0.00399999999999995);
#67=CIRCLE('',#1306,0.003);
#68=CIRCLE('',#1307,0.003);
#69=CIRCLE('',#1308,0.003);
#70=CIRCLE('',#1309,0.003);
#71=CIRCLE('',#1311,0.002);
#72=CIRCLE('',#1312,0.0035);
#73=CIRCLE('',#1313,0.002);
#74=CIRCLE('',#1314,0.005);
#75=CIRCLE('',#1315,0.005);
#76=CIRCLE('',#1316,0.002);
#77=CIRCLE('',#1317,0.0035);
#78=CIRCLE('',#1318,0.002);
#79=CIRCLE('',#1319,0.002);
#80=CIRCLE('',#1320,0.0035);
#81=CIRCLE('',#1321,0.002);
#82=CIRCLE('',#1322,0.005);
#83=CIRCLE('',#1323,0.005);
#84=CIRCLE('',#1324,0.002);
#85=CIRCLE('',#1325,0.0035);
#86=CIRCLE('',#1326,0.002);
#87=CIRCLE('',#1327,0.002);
#88=CIRCLE('',#1328,0.002);
#89=CIRCLE('',#1329,0.002);
#90=CIRCLE('',#1330,0.002);
#91=CIRCLE('',#1332,0.00775);
#92=CIRCLE('',#1333,0.00775);
#93=CIRCLE('',#1335,0.005);
#94=CIRCLE('',#1338,0.005);
#95=CIRCLE('',#1340,0.005);
#96=CIRCLE('',#1343,0.005);
#97=CIRCLE('',#1345,0.0035);
#98=CIRCLE('',#1348,0.002);
#99=CIRCLE('',#1349,0.002);
#100=CIRCLE('',#1351,0.002);
#101=CIRCLE('',#1354,0.002);
#102=CIRCLE('',#1357,0.002);
#103=CIRCLE('',#1360,0.0035);
#104=CIRCLE('',#1363,0.002);
#105=CIRCLE('',#1364,0.002);
#106=CIRCLE('',#1366,0.002);
#107=CIRCLE('',#1367,0.0035);
#108=CIRCLE('',#1368,0.002);
#109=CIRCLE('',#1372,0.002);
#110=CIRCLE('',#1373,0.0035);
#111=CIRCLE('',#1374,0.002);
#112=CIRCLE('',#1378,0.00775);
#113=CIRCLE('',#1380,0.00775);
#114=CIRCLE('',#1383,0.00775);
#115=CIRCLE('',#1385,0.002);
#116=CIRCLE('',#1392,0.003);
#117=CIRCLE('',#1395,0.003);
#118=CIRCLE('',#1398,0.003);
#119=CIRCLE('',#1401,0.003);
#120=CIRCLE('',#1404,0.001);
#121=CIRCLE('',#1405,0.001);
#122=CIRCLE('',#1407,0.001);
#123=CIRCLE('',#1409,0.001);
#124=CIRCLE('',#1411,0.001);
#125=CIRCLE('',#1413,0.001);
#126=CIRCLE('',#1415,0.001);
#127=CIRCLE('',#1417,0.001);
#128=ORIENTED_EDGE('',*,*,#472,.T.);
#129=ORIENTED_EDGE('',*,*,#473,.T.);
#130=ORIENTED_EDGE('',*,*,#474,.T.);
#131=ORIENTED_EDGE('',*,*,#475,.F.);
#132=ORIENTED_EDGE('',*,*,#476,.F.);
#133=ORIENTED_EDGE('',*,*,#477,.F.);
#134=ORIENTED_EDGE('',*,*,#478,.T.);
#135=ORIENTED_EDGE('',*,*,#479,.T.);
#136=ORIENTED_EDGE('',*,*,#480,.T.);
#137=ORIENTED_EDGE('',*,*,#481,.F.);
#138=ORIENTED_EDGE('',*,*,#482,.F.);
#139=ORIENTED_EDGE('',*,*,#483,.T.);
#140=ORIENTED_EDGE('',*,*,#484,.T.);
#141=ORIENTED_EDGE('',*,*,#485,.T.);
#142=ORIENTED_EDGE('',*,*,#486,.T.);
#143=ORIENTED_EDGE('',*,*,#487,.F.);
#144=ORIENTED_EDGE('',*,*,#488,.T.);
#145=ORIENTED_EDGE('',*,*,#489,.T.);
#146=ORIENTED_EDGE('',*,*,#490,.T.);
#147=ORIENTED_EDGE('',*,*,#491,.T.);
#148=ORIENTED_EDGE('',*,*,#492,.F.);
#149=ORIENTED_EDGE('',*,*,#493,.F.);
#150=ORIENTED_EDGE('',*,*,#494,.F.);
#151=ORIENTED_EDGE('',*,*,#492,.T.);
#152=ORIENTED_EDGE('',*,*,#495,.F.);
#153=ORIENTED_EDGE('',*,*,#474,.F.);
#154=ORIENTED_EDGE('',*,*,#496,.F.);
#155=ORIENTED_EDGE('',*,*,#497,.T.);
#156=ORIENTED_EDGE('',*,*,#498,.T.);
#157=ORIENTED_EDGE('',*,*,#499,.F.);
#158=ORIENTED_EDGE('',*,*,#500,.F.);
#159=ORIENTED_EDGE('',*,*,#501,.T.);
#160=ORIENTED_EDGE('',*,*,#502,.T.);
#161=ORIENTED_EDGE('',*,*,#480,.F.);
#162=ORIENTED_EDGE('',*,*,#503,.T.);
#163=ORIENTED_EDGE('',*,*,#504,.F.);
#164=ORIENTED_EDGE('',*,*,#505,.F.);
#165=ORIENTED_EDGE('',*,*,#506,.T.);
#166=ORIENTED_EDGE('',*,*,#507,.F.);
#167=ORIENTED_EDGE('',*,*,#508,.T.);
#168=ORIENTED_EDGE('',*,*,#509,.F.);
#169=ORIENTED_EDGE('',*,*,#510,.T.);
#170=ORIENTED_EDGE('',*,*,#511,.T.);
#171=ORIENTED_EDGE('',*,*,#512,.T.);
#172=ORIENTED_EDGE('',*,*,#513,.T.);
#173=ORIENTED_EDGE('',*,*,#514,.T.);
#174=ORIENTED_EDGE('',*,*,#515,.T.);
#175=ORIENTED_EDGE('',*,*,#516,.T.);
#176=ORIENTED_EDGE('',*,*,#517,.T.);
#177=ORIENTED_EDGE('',*,*,#518,.T.);
#178=ORIENTED_EDGE('',*,*,#519,.F.);
#179=ORIENTED_EDGE('',*,*,#520,.F.);
#180=ORIENTED_EDGE('',*,*,#521,.F.);
#181=ORIENTED_EDGE('',*,*,#522,.F.);
#182=ORIENTED_EDGE('',*,*,#523,.F.);
#183=ORIENTED_EDGE('',*,*,#524,.T.);
#184=ORIENTED_EDGE('',*,*,#525,.T.);
#185=ORIENTED_EDGE('',*,*,#526,.T.);
#186=ORIENTED_EDGE('',*,*,#527,.F.);
#187=ORIENTED_EDGE('',*,*,#528,.T.);
#188=ORIENTED_EDGE('',*,*,#529,.T.);
#189=ORIENTED_EDGE('',*,*,#530,.T.);
#190=ORIENTED_EDGE('',*,*,#531,.T.);
#191=ORIENTED_EDGE('',*,*,#532,.F.);
#192=ORIENTED_EDGE('',*,*,#533,.F.);
#193=ORIENTED_EDGE('',*,*,#534,.F.);
#194=ORIENTED_EDGE('',*,*,#484,.F.);
#195=ORIENTED_EDGE('',*,*,#535,.T.);
#196=ORIENTED_EDGE('',*,*,#536,.F.);
#197=ORIENTED_EDGE('',*,*,#537,.T.);
#198=ORIENTED_EDGE('',*,*,#538,.F.);
#199=ORIENTED_EDGE('',*,*,#539,.F.);
#200=ORIENTED_EDGE('',*,*,#540,.F.);
#201=ORIENTED_EDGE('',*,*,#478,.F.);
#202=ORIENTED_EDGE('',*,*,#541,.T.);
#203=ORIENTED_EDGE('',*,*,#472,.F.);
#204=ORIENTED_EDGE('',*,*,#542,.F.);
#205=ORIENTED_EDGE('',*,*,#543,.T.);
#206=ORIENTED_EDGE('',*,*,#544,.T.);
#207=ORIENTED_EDGE('',*,*,#545,.T.);
#208=ORIENTED_EDGE('',*,*,#488,.F.);
#209=ORIENTED_EDGE('',*,*,#546,.F.);
#210=ORIENTED_EDGE('',*,*,#547,.T.);
#211=ORIENTED_EDGE('',*,*,#548,.F.);
#212=ORIENTED_EDGE('',*,*,#549,.T.);
#213=ORIENTED_EDGE('',*,*,#550,.T.);
#214=ORIENTED_EDGE('',*,*,#551,.T.);
#215=ORIENTED_EDGE('',*,*,#552,.T.);
#216=ORIENTED_EDGE('',*,*,#553,.T.);
#217=ORIENTED_EDGE('',*,*,#554,.F.);
#218=ORIENTED_EDGE('',*,*,#555,.T.);
#219=ORIENTED_EDGE('',*,*,#556,.T.);
#220=ORIENTED_EDGE('',*,*,#557,.T.);
#221=ORIENTED_EDGE('',*,*,#558,.T.);
#222=ORIENTED_EDGE('',*,*,#524,.F.);
#223=ORIENTED_EDGE('',*,*,#559,.T.);
#224=ORIENTED_EDGE('',*,*,#499,.T.);
#225=ORIENTED_EDGE('',*,*,#560,.F.);
#226=ORIENTED_EDGE('',*,*,#561,.F.);
#227=ORIENTED_EDGE('',*,*,#562,.T.);
#228=ORIENTED_EDGE('',*,*,#549,.F.);
#229=ORIENTED_EDGE('',*,*,#563,.T.);
#230=ORIENTED_EDGE('',*,*,#564,.T.);
#231=ORIENTED_EDGE('',*,*,#565,.F.);
#232=ORIENTED_EDGE('',*,*,#531,.F.);
#233=ORIENTED_EDGE('',*,*,#566,.T.);
#234=ORIENTED_EDGE('',*,*,#567,.T.);
#235=ORIENTED_EDGE('',*,*,#568,.T.);
#236=ORIENTED_EDGE('',*,*,#569,.F.);
#237=ORIENTED_EDGE('',*,*,#570,.F.);
#238=ORIENTED_EDGE('',*,*,#571,.T.);
#239=ORIENTED_EDGE('',*,*,#572,.T.);
#240=ORIENTED_EDGE('',*,*,#563,.F.);
#241=ORIENTED_EDGE('',*,*,#548,.T.);
#242=ORIENTED_EDGE('',*,*,#573,.T.);
#243=ORIENTED_EDGE('',*,*,#574,.T.);
#244=ORIENTED_EDGE('',*,*,#571,.F.);
#245=ORIENTED_EDGE('',*,*,#547,.F.);
#246=ORIENTED_EDGE('',*,*,#487,.T.);
#247=ORIENTED_EDGE('',*,*,#575,.T.);
#248=ORIENTED_EDGE('',*,*,#573,.F.);
#249=ORIENTED_EDGE('',*,*,#546,.T.);
#250=ORIENTED_EDGE('',*,*,#576,.T.);
#251=ORIENTED_EDGE('',*,*,#577,.T.);
#252=ORIENTED_EDGE('',*,*,#485,.F.);
#253=ORIENTED_EDGE('',*,*,#534,.T.);
#254=ORIENTED_EDGE('',*,*,#578,.T.);
#255=ORIENTED_EDGE('',*,*,#579,.T.);
#256=ORIENTED_EDGE('',*,*,#576,.F.);
#257=ORIENTED_EDGE('',*,*,#533,.T.);
#258=ORIENTED_EDGE('',*,*,#565,.T.);
#259=ORIENTED_EDGE('',*,*,#580,.T.);
#260=ORIENTED_EDGE('',*,*,#578,.F.);
#261=ORIENTED_EDGE('',*,*,#532,.T.);
#262=ORIENTED_EDGE('',*,*,#581,.F.);
#263=ORIENTED_EDGE('',*,*,#582,.T.);
#264=ORIENTED_EDGE('',*,*,#536,.T.);
#265=ORIENTED_EDGE('',*,*,#583,.T.);
#266=ORIENTED_EDGE('',*,*,#538,.T.);
#267=ORIENTED_EDGE('',*,*,#584,.T.);
#268=ORIENTED_EDGE('',*,*,#585,.F.);
#269=ORIENTED_EDGE('',*,*,#586,.F.);
#270=ORIENTED_EDGE('',*,*,#482,.T.);
#271=ORIENTED_EDGE('',*,*,#587,.F.);
#272=ORIENTED_EDGE('',*,*,#588,.T.);
#273=ORIENTED_EDGE('',*,*,#585,.T.);
#274=ORIENTED_EDGE('',*,*,#589,.T.);
#275=ORIENTED_EDGE('',*,*,#581,.T.);
#276=ORIENTED_EDGE('',*,*,#590,.T.);
#277=ORIENTED_EDGE('',*,*,#503,.F.);
#278=ORIENTED_EDGE('',*,*,#591,.T.);
#279=ORIENTED_EDGE('',*,*,#556,.F.);
#280=ORIENTED_EDGE('',*,*,#591,.F.);
#281=ORIENTED_EDGE('',*,*,#592,.T.);
#282=ORIENTED_EDGE('',*,*,#557,.F.);
#283=ORIENTED_EDGE('',*,*,#592,.F.);
#284=ORIENTED_EDGE('',*,*,#593,.T.);
#285=ORIENTED_EDGE('',*,*,#558,.F.);
#286=ORIENTED_EDGE('',*,*,#593,.F.);
#287=ORIENTED_EDGE('',*,*,#594,.T.);
#288=ORIENTED_EDGE('',*,*,#595,.T.);
#289=ORIENTED_EDGE('',*,*,#551,.F.);
#290=ORIENTED_EDGE('',*,*,#596,.T.);
#291=ORIENTED_EDGE('',*,*,#553,.F.);
#292=ORIENTED_EDGE('',*,*,#597,.T.);
#293=ORIENTED_EDGE('',*,*,#598,.T.);
#294=ORIENTED_EDGE('',*,*,#599,.F.);
#295=ORIENTED_EDGE('',*,*,#505,.T.);
#296=ORIENTED_EDGE('',*,*,#561,.T.);
#297=ORIENTED_EDGE('',*,*,#600,.F.);
#298=ORIENTED_EDGE('',*,*,#601,.F.);
#299=ORIENTED_EDGE('',*,*,#598,.F.);
#300=ORIENTED_EDGE('',*,*,#602,.T.);
#301=ORIENTED_EDGE('',*,*,#594,.F.);
#302=ORIENTED_EDGE('',*,*,#603,.T.);
#303=ORIENTED_EDGE('',*,*,#490,.F.);
#304=ORIENTED_EDGE('',*,*,#604,.T.);
#305=ORIENTED_EDGE('',*,*,#605,.F.);
#306=ORIENTED_EDGE('',*,*,#606,.T.);
#307=ORIENTED_EDGE('',*,*,#607,.T.);
#308=ORIENTED_EDGE('',*,*,#476,.T.);
#309=ORIENTED_EDGE('',*,*,#608,.T.);
#310=ORIENTED_EDGE('',*,*,#507,.T.);
#311=ORIENTED_EDGE('',*,*,#607,.F.);
#312=ORIENTED_EDGE('',*,*,#609,.T.);
#313=ORIENTED_EDGE('',*,*,#542,.T.);
#314=ORIENTED_EDGE('',*,*,#477,.T.);
#315=ORIENTED_EDGE('',*,*,#544,.F.);
#316=ORIENTED_EDGE('',*,*,#610,.T.);
#317=ORIENTED_EDGE('',*,*,#605,.T.);
#318=ORIENTED_EDGE('',*,*,#611,.T.);
#319=ORIENTED_EDGE('',*,*,#567,.F.);
#320=ORIENTED_EDGE('',*,*,#612,.T.);
#321=ORIENTED_EDGE('',*,*,#613,.F.);
#322=ORIENTED_EDGE('',*,*,#614,.T.);
#323=ORIENTED_EDGE('',*,*,#615,.T.);
#324=ORIENTED_EDGE('',*,*,#616,.T.);
#325=ORIENTED_EDGE('',*,*,#617,.T.);
#326=ORIENTED_EDGE('',*,*,#509,.T.);
#327=ORIENTED_EDGE('',*,*,#615,.F.);
#328=ORIENTED_EDGE('',*,*,#618,.T.);
#329=ORIENTED_EDGE('',*,*,#527,.T.);
#330=ORIENTED_EDGE('',*,*,#619,.T.);
#331=ORIENTED_EDGE('',*,*,#613,.T.);
#332=ORIENTED_EDGE('',*,*,#620,.T.);
#333=ORIENTED_EDGE('',*,*,#529,.F.);
#334=ORIENTED_EDGE('',*,*,#621,.T.);
#335=ORIENTED_EDGE('',*,*,#622,.F.);
#336=ORIENTED_EDGE('',*,*,#554,.T.);
#337=ORIENTED_EDGE('',*,*,#599,.T.);
#338=ORIENTED_EDGE('',*,*,#601,.T.);
#339=ORIENTED_EDGE('',*,*,#623,.F.);
#340=ORIENTED_EDGE('',*,*,#497,.F.);
#341=ORIENTED_EDGE('',*,*,#526,.F.);
#342=ORIENTED_EDGE('',*,*,#624,.T.);
#343=ORIENTED_EDGE('',*,*,#625,.T.);
#344=ORIENTED_EDGE('',*,*,#626,.T.);
#345=ORIENTED_EDGE('',*,*,#616,.F.);
#346=ORIENTED_EDGE('',*,*,#619,.F.);
#347=ORIENTED_EDGE('',*,*,#625,.F.);
#348=ORIENTED_EDGE('',*,*,#627,.T.);
#349=ORIENTED_EDGE('',*,*,#569,.T.);
#350=ORIENTED_EDGE('',*,*,#628,.F.);
#351=ORIENTED_EDGE('',*,*,#629,.F.);
#352=ORIENTED_EDGE('',*,*,#539,.T.);
#353=ORIENTED_EDGE('',*,*,#586,.T.);
#354=ORIENTED_EDGE('',*,*,#588,.F.);
#355=ORIENTED_EDGE('',*,*,#630,.T.);
#356=ORIENTED_EDGE('',*,*,#501,.F.);
#357=ORIENTED_EDGE('',*,*,#631,.T.);
#358=ORIENTED_EDGE('',*,*,#555,.F.);
#359=ORIENTED_EDGE('',*,*,#631,.F.);
#360=ORIENTED_EDGE('',*,*,#626,.F.);
#361=ORIENTED_EDGE('',*,*,#628,.T.);
#362=ORIENTED_EDGE('',*,*,#568,.F.);
#363=ORIENTED_EDGE('',*,*,#617,.F.);
#364=ORIENTED_EDGE('',*,*,#498,.F.);
#365=ORIENTED_EDGE('',*,*,#623,.T.);
#366=ORIENTED_EDGE('',*,*,#600,.T.);
#367=ORIENTED_EDGE('',*,*,#560,.T.);
#368=ORIENTED_EDGE('',*,*,#481,.T.);
#369=ORIENTED_EDGE('',*,*,#502,.F.);
#370=ORIENTED_EDGE('',*,*,#630,.F.);
#371=ORIENTED_EDGE('',*,*,#587,.T.);
#372=ORIENTED_EDGE('',*,*,#491,.F.);
#373=ORIENTED_EDGE('',*,*,#608,.F.);
#374=ORIENTED_EDGE('',*,*,#475,.T.);
#375=ORIENTED_EDGE('',*,*,#495,.T.);
#376=ORIENTED_EDGE('',*,*,#632,.F.);
#377=ORIENTED_EDGE('',*,*,#521,.T.);
#378=ORIENTED_EDGE('',*,*,#510,.F.);
#379=ORIENTED_EDGE('',*,*,#632,.T.);
#380=ORIENTED_EDGE('',*,*,#633,.F.);
#381=ORIENTED_EDGE('',*,*,#519,.T.);
#382=ORIENTED_EDGE('',*,*,#508,.F.);
#383=ORIENTED_EDGE('',*,*,#633,.T.);
#384=ORIENTED_EDGE('',*,*,#634,.F.);
#385=ORIENTED_EDGE('',*,*,#520,.T.);
#386=ORIENTED_EDGE('',*,*,#506,.F.);
#387=ORIENTED_EDGE('',*,*,#634,.T.);
#388=ORIENTED_EDGE('',*,*,#635,.F.);
#389=ORIENTED_EDGE('',*,*,#522,.T.);
#390=ORIENTED_EDGE('',*,*,#504,.T.);
#391=ORIENTED_EDGE('',*,*,#635,.T.);
#392=ORIENTED_EDGE('',*,*,#636,.F.);
#393=ORIENTED_EDGE('',*,*,#572,.F.);
#394=ORIENTED_EDGE('',*,*,#637,.F.);
#395=ORIENTED_EDGE('',*,*,#516,.F.);
#396=ORIENTED_EDGE('',*,*,#637,.T.);
#397=ORIENTED_EDGE('',*,*,#574,.F.);
#398=ORIENTED_EDGE('',*,*,#638,.F.);
#399=ORIENTED_EDGE('',*,*,#517,.F.);
#400=ORIENTED_EDGE('',*,*,#636,.T.);
#401=ORIENTED_EDGE('',*,*,#515,.F.);
#402=ORIENTED_EDGE('',*,*,#639,.F.);
#403=ORIENTED_EDGE('',*,*,#564,.F.);
#404=ORIENTED_EDGE('',*,*,#638,.T.);
#405=ORIENTED_EDGE('',*,*,#575,.F.);
#406=ORIENTED_EDGE('',*,*,#640,.F.);
#407=ORIENTED_EDGE('',*,*,#518,.F.);
#408=ORIENTED_EDGE('',*,*,#639,.T.);
#409=ORIENTED_EDGE('',*,*,#514,.F.);
#410=ORIENTED_EDGE('',*,*,#641,.F.);
#411=ORIENTED_EDGE('',*,*,#580,.F.);
#412=ORIENTED_EDGE('',*,*,#640,.T.);
#413=ORIENTED_EDGE('',*,*,#486,.F.);
#414=ORIENTED_EDGE('',*,*,#642,.F.);
#415=ORIENTED_EDGE('',*,*,#511,.F.);
#416=ORIENTED_EDGE('',*,*,#641,.T.);
#417=ORIENTED_EDGE('',*,*,#513,.F.);
#418=ORIENTED_EDGE('',*,*,#643,.F.);
#419=ORIENTED_EDGE('',*,*,#579,.F.);
#420=ORIENTED_EDGE('',*,*,#642,.T.);
#421=ORIENTED_EDGE('',*,*,#577,.F.);
#422=ORIENTED_EDGE('',*,*,#643,.T.);
#423=ORIENTED_EDGE('',*,*,#512,.F.);
#424=ORIENTED_EDGE('',*,*,#543,.F.);
#425=ORIENTED_EDGE('',*,*,#609,.F.);
#426=ORIENTED_EDGE('',*,*,#606,.F.);
#427=ORIENTED_EDGE('',*,*,#610,.F.);
#428=ORIENTED_EDGE('',*,*,#545,.F.);
#429=ORIENTED_EDGE('',*,*,#611,.F.);
#430=ORIENTED_EDGE('',*,*,#604,.F.);
#431=ORIENTED_EDGE('',*,*,#489,.F.);
#432=ORIENTED_EDGE('',*,*,#552,.F.);
#433=ORIENTED_EDGE('',*,*,#595,.F.);
#434=ORIENTED_EDGE('',*,*,#602,.F.);
#435=ORIENTED_EDGE('',*,*,#597,.F.);
#436=ORIENTED_EDGE('',*,*,#550,.F.);
#437=ORIENTED_EDGE('',*,*,#562,.F.);
#438=ORIENTED_EDGE('',*,*,#603,.F.);
#439=ORIENTED_EDGE('',*,*,#596,.F.);
#440=ORIENTED_EDGE('',*,*,#530,.F.);
#441=ORIENTED_EDGE('',*,*,#620,.F.);
#442=ORIENTED_EDGE('',*,*,#612,.F.);
#443=ORIENTED_EDGE('',*,*,#566,.F.);
#444=ORIENTED_EDGE('',*,*,#528,.F.);
#445=ORIENTED_EDGE('',*,*,#618,.F.);
#446=ORIENTED_EDGE('',*,*,#614,.F.);
#447=ORIENTED_EDGE('',*,*,#621,.F.);
#448=ORIENTED_EDGE('',*,*,#537,.F.);
#449=ORIENTED_EDGE('',*,*,#582,.F.);
#450=ORIENTED_EDGE('',*,*,#589,.F.);
#451=ORIENTED_EDGE('',*,*,#584,.F.);
#452=ORIENTED_EDGE('',*,*,#535,.F.);
#453=ORIENTED_EDGE('',*,*,#483,.F.);
#454=ORIENTED_EDGE('',*,*,#590,.F.);
#455=ORIENTED_EDGE('',*,*,#583,.F.);
#456=ORIENTED_EDGE('',*,*,#500,.T.);
#457=ORIENTED_EDGE('',*,*,#479,.F.);
#458=ORIENTED_EDGE('',*,*,#540,.T.);
#459=ORIENTED_EDGE('',*,*,#629,.T.);
#460=ORIENTED_EDGE('',*,*,#624,.F.);
#461=ORIENTED_EDGE('',*,*,#525,.F.);
#462=ORIENTED_EDGE('',*,*,#570,.T.);
#463=ORIENTED_EDGE('',*,*,#627,.F.);
#464=ORIENTED_EDGE('',*,*,#496,.T.);
#465=ORIENTED_EDGE('',*,*,#559,.F.);
#466=ORIENTED_EDGE('',*,*,#523,.T.);
#467=ORIENTED_EDGE('',*,*,#622,.T.);
#468=ORIENTED_EDGE('',*,*,#494,.T.);
#469=ORIENTED_EDGE('',*,*,#473,.F.);
#470=ORIENTED_EDGE('',*,*,#541,.F.);
#471=ORIENTED_EDGE('',*,*,#493,.T.);
#472=EDGE_CURVE('',#644,#645,#764,.T.);
#473=EDGE_CURVE('',#645,#646,#765,.T.);
#474=EDGE_CURVE('',#646,#647,#766,.T.);
#475=EDGE_CURVE('',#648,#647,#52,.T.);
#476=EDGE_CURVE('',#649,#648,#767,.T.);
#477=EDGE_CURVE('',#644,#649,#768,.T.);
#478=EDGE_CURVE('',#650,#651,#769,.T.);
#479=EDGE_CURVE('',#651,#652,#770,.T.);
#480=EDGE_CURVE('',#652,#653,#771,.T.);
#481=EDGE_CURVE('',#654,#653,#53,.T.);
#482=EDGE_CURVE('',#655,#654,#772,.T.);
#483=EDGE_CURVE('',#655,#656,#773,.F.);
#484=EDGE_CURVE('',#656,#657,#774,.T.);
#485=EDGE_CURVE('',#657,#658,#775,.T.);
#486=EDGE_CURVE('',#658,#659,#776,.F.);
#487=EDGE_CURVE('',#660,#659,#777,.T.);
#488=EDGE_CURVE('',#660,#661,#778,.T.);
#489=EDGE_CURVE('',#661,#662,#779,.T.);
#490=EDGE_CURVE('',#662,#663,#780,.T.);
#491=EDGE_CURVE('',#663,#664,#54,.T.);
#492=EDGE_CURVE('',#665,#664,#781,.T.);
#493=EDGE_CURVE('',#650,#665,#782,.T.);
#494=EDGE_CURVE('',#665,#646,#783,.T.);
#495=EDGE_CURVE('',#647,#664,#784,.T.);
#496=EDGE_CURVE('',#666,#667,#785,.T.);
#497=EDGE_CURVE('',#666,#668,#786,.T.);
#498=EDGE_CURVE('',#668,#669,#787,.T.);
#499=EDGE_CURVE('',#667,#669,#788,.T.);
#500=EDGE_CURVE('',#670,#652,#789,.T.);
#501=EDGE_CURVE('',#670,#671,#790,.T.);
#502=EDGE_CURVE('',#671,#653,#791,.T.);
#503=EDGE_CURVE('',#672,#672,#55,.T.);
#504=EDGE_CURVE('',#673,#673,#56,.F.);
#505=EDGE_CURVE('',#674,#674,#57,.T.);
#506=EDGE_CURVE('',#675,#675,#58,.T.);
#507=EDGE_CURVE('',#676,#676,#59,.T.);
#508=EDGE_CURVE('',#677,#677,#60,.T.);
#509=EDGE_CURVE('',#678,#678,#61,.T.);
#510=EDGE_CURVE('',#679,#679,#62,.T.);
#511=EDGE_CURVE('',#680,#681,#792,.T.);
#512=EDGE_CURVE('',#681,#682,#63,.T.);
#513=EDGE_CURVE('',#682,#683,#793,.T.);
#514=EDGE_CURVE('',#683,#684,#64,.T.);
#515=EDGE_CURVE('',#684,#685,#794,.F.);
#516=EDGE_CURVE('',#685,#686,#65,.T.);
#517=EDGE_CURVE('',#686,#687,#795,.F.);
#518=EDGE_CURVE('',#687,#680,#66,.T.);
#519=EDGE_CURVE('',#688,#688,#67,.T.);
#520=EDGE_CURVE('',#689,#689,#68,.T.);
#521=EDGE_CURVE('',#690,#690,#69,.T.);
#522=EDGE_CURVE('',#691,#691,#70,.T.);
#523=EDGE_CURVE('',#692,#693,#796,.T.);
#524=EDGE_CURVE('',#692,#694,#797,.T.);
#525=EDGE_CURVE('',#694,#695,#798,.T.);
#526=EDGE_CURVE('',#695,#696,#799,.T.);
#527=EDGE_CURVE('',#697,#696,#800,.T.);
#528=EDGE_CURVE('',#697,#698,#71,.F.);
#529=EDGE_CURVE('',#698,#699,#72,.T.);
#530=EDGE_CURVE('',#699,#700,#73,.F.);
#531=EDGE_CURVE('',#700,#701,#801,.T.);
#532=EDGE_CURVE('',#702,#701,#74,.T.);
#533=EDGE_CURVE('',#703,#702,#802,.T.);
#534=EDGE_CURVE('',#657,#703,#75,.T.);
#535=EDGE_CURVE('',#656,#704,#76,.F.);
#536=EDGE_CURVE('',#705,#704,#77,.F.);
#537=EDGE_CURVE('',#705,#706,#78,.F.);
#538=EDGE_CURVE('',#707,#706,#803,.T.);
#539=EDGE_CURVE('',#708,#707,#804,.T.);
#540=EDGE_CURVE('',#651,#708,#805,.T.);
#541=EDGE_CURVE('',#650,#645,#806,.T.);
#542=EDGE_CURVE('',#709,#644,#807,.T.);
#543=EDGE_CURVE('',#709,#710,#79,.F.);
#544=EDGE_CURVE('',#710,#711,#80,.T.);
#545=EDGE_CURVE('',#711,#661,#81,.F.);
#546=EDGE_CURVE('',#712,#660,#82,.T.);
#547=EDGE_CURVE('',#712,#713,#808,.T.);
#548=EDGE_CURVE('',#714,#713,#83,.T.);
#549=EDGE_CURVE('',#714,#715,#809,.T.);
#550=EDGE_CURVE('',#715,#716,#84,.F.);
#551=EDGE_CURVE('',#716,#717,#85,.T.);
#552=EDGE_CURVE('',#717,#718,#86,.F.);
#553=EDGE_CURVE('',#718,#719,#810,.T.);
#554=EDGE_CURVE('',#693,#719,#811,.T.);
#555=EDGE_CURVE('',#720,#720,#87,.T.);
#556=EDGE_CURVE('',#721,#721,#88,.T.);
#557=EDGE_CURVE('',#722,#722,#89,.T.);
#558=EDGE_CURVE('',#723,#723,#90,.T.);
#559=EDGE_CURVE('',#692,#667,#812,.T.);
#560=EDGE_CURVE('',#724,#669,#91,.T.);
#561=EDGE_CURVE('',#725,#724,#813,.T.);
#562=EDGE_CURVE('',#725,#715,#814,.F.);
#563=EDGE_CURVE('',#714,#726,#815,.T.);
#564=EDGE_CURVE('',#726,#727,#816,.T.);
#565=EDGE_CURVE('',#701,#727,#817,.T.);
#566=EDGE_CURVE('',#700,#728,#818,.T.);
#567=EDGE_CURVE('',#728,#729,#819,.T.);
#568=EDGE_CURVE('',#729,#730,#92,.T.);
#569=EDGE_CURVE('',#731,#730,#820,.T.);
#570=EDGE_CURVE('',#694,#731,#821,.T.);
#571=EDGE_CURVE('',#713,#732,#822,.T.);
#572=EDGE_CURVE('',#732,#726,#93,.F.);
#573=EDGE_CURVE('',#712,#733,#823,.T.);
#574=EDGE_CURVE('',#733,#732,#824,.T.);
#575=EDGE_CURVE('',#659,#733,#94,.F.);
#576=EDGE_CURVE('',#703,#734,#825,.T.);
#577=EDGE_CURVE('',#734,#658,#95,.F.);
#578=EDGE_CURVE('',#702,#735,#826,.T.);
#579=EDGE_CURVE('',#735,#734,#827,.F.);
#580=EDGE_CURVE('',#727,#735,#96,.F.);
#581=EDGE_CURVE('',#736,#737,#97,.T.);
#582=EDGE_CURVE('',#736,#705,#828,.F.);
#583=EDGE_CURVE('',#704,#737,#829,.T.);
#584=EDGE_CURVE('',#706,#738,#830,.F.);
#585=EDGE_CURVE('',#739,#738,#831,.T.);
#586=EDGE_CURVE('',#707,#739,#832,.T.);
#587=EDGE_CURVE('',#740,#654,#833,.T.);
#588=EDGE_CURVE('',#740,#739,#834,.T.);
#589=EDGE_CURVE('',#738,#736,#98,.T.);
#590=EDGE_CURVE('',#737,#655,#99,.T.);
#591=EDGE_CURVE('',#741,#741,#100,.T.);
#592=EDGE_CURVE('',#742,#742,#101,.T.);
#593=EDGE_CURVE('',#743,#743,#102,.T.);
#594=EDGE_CURVE('',#744,#745,#103,.T.);
#595=EDGE_CURVE('',#745,#717,#835,.F.);
#596=EDGE_CURVE('',#716,#744,#836,.T.);
#597=EDGE_CURVE('',#718,#746,#837,.F.);
#598=EDGE_CURVE('',#746,#747,#838,.T.);
#599=EDGE_CURVE('',#719,#747,#839,.T.);
#600=EDGE_CURVE('',#748,#724,#840,.T.);
#601=EDGE_CURVE('',#747,#748,#841,.T.);
#602=EDGE_CURVE('',#746,#745,#104,.T.);
#603=EDGE_CURVE('',#744,#725,#105,.T.);
#604=EDGE_CURVE('',#662,#749,#106,.T.);
#605=EDGE_CURVE('',#750,#749,#107,.T.);
#606=EDGE_CURVE('',#750,#751,#108,.T.);
#607=EDGE_CURVE('',#751,#649,#842,.T.);
#608=EDGE_CURVE('',#648,#663,#843,.T.);
#609=EDGE_CURVE('',#751,#709,#844,.F.);
#610=EDGE_CURVE('',#710,#750,#845,.T.);
#611=EDGE_CURVE('',#749,#711,#846,.F.);
#612=EDGE_CURVE('',#728,#752,#109,.T.);
#613=EDGE_CURVE('',#753,#752,#110,.T.);
#614=EDGE_CURVE('',#753,#754,#111,.T.);
#615=EDGE_CURVE('',#754,#755,#847,.T.);
#616=EDGE_CURVE('',#755,#756,#848,.T.);
#617=EDGE_CURVE('',#756,#729,#849,.T.);
#618=EDGE_CURVE('',#754,#697,#850,.F.);
#619=EDGE_CURVE('',#696,#755,#851,.T.);
#620=EDGE_CURVE('',#752,#699,#852,.F.);
#621=EDGE_CURVE('',#698,#753,#853,.T.);
#622=EDGE_CURVE('',#693,#666,#854,.T.);
#623=EDGE_CURVE('',#668,#748,#112,.F.);
#624=EDGE_CURVE('',#695,#757,#855,.T.);
#625=EDGE_CURVE('',#757,#758,#856,.T.);
#626=EDGE_CURVE('',#758,#756,#113,.T.);
#627=EDGE_CURVE('',#757,#731,#857,.T.);
#628=EDGE_CURVE('',#758,#730,#858,.T.);
#629=EDGE_CURVE('',#708,#670,#859,.T.);
#630=EDGE_CURVE('',#740,#671,#114,.T.);
#631=EDGE_CURVE('',#759,#759,#115,.T.);
#632=EDGE_CURVE('',#760,#760,#116,.T.);
#633=EDGE_CURVE('',#761,#761,#117,.T.);
#634=EDGE_CURVE('',#762,#762,#118,.T.);
#635=EDGE_CURVE('',#763,#763,#119,.T.);
#636=EDGE_CURVE('',#726,#685,#120,.T.);
#637=EDGE_CURVE('',#686,#732,#121,.T.);
#638=EDGE_CURVE('',#687,#733,#122,.T.);
#639=EDGE_CURVE('',#727,#684,#123,.T.);
#640=EDGE_CURVE('',#680,#659,#124,.T.);
#641=EDGE_CURVE('',#735,#683,#125,.T.);
#642=EDGE_CURVE('',#681,#658,#126,.T.);
#643=EDGE_CURVE('',#734,#682,#127,.T.);
#644=VERTEX_POINT('',#1832);
#645=VERTEX_POINT('',#1833);
#646=VERTEX_POINT('',#1835);
#647=VERTEX_POINT('',#1837);
#648=VERTEX_POINT('',#1839);
#649=VERTEX_POINT('',#1841);
#650=VERTEX_POINT('',#1845);
#651=VERTEX_POINT('',#1846);
#652=VERTEX_POINT('',#1848);
#653=VERTEX_POINT('',#1850);
#654=VERTEX_POINT('',#1852);
#655=VERTEX_POINT('',#1854);
#656=VERTEX_POINT('',#1856);
#657=VERTEX_POINT('',#1858);
#658=VERTEX_POINT('',#1860);
#659=VERTEX_POINT('',#1862);
#660=VERTEX_POINT('',#1864);
#661=VERTEX_POINT('',#1866);
#662=VERTEX_POINT('',#1868);
#663=VERTEX_POINT('',#1870);
#664=VERTEX_POINT('',#1872);
#665=VERTEX_POINT('',#1874);
#666=VERTEX_POINT('',#1881);
#667=VERTEX_POINT('',#1882);
#668=VERTEX_POINT('',#1884);
#669=VERTEX_POINT('',#1886);
#670=VERTEX_POINT('',#1890);
#671=VERTEX_POINT('',#1892);
#672=VERTEX_POINT('',#1896);
#673=VERTEX_POINT('',#1898);
#674=VERTEX_POINT('',#1901);
#675=VERTEX_POINT('',#1903);
#676=VERTEX_POINT('',#1906);
#677=VERTEX_POINT('',#1908);
#678=VERTEX_POINT('',#1911);
#679=VERTEX_POINT('',#1913);
#680=VERTEX_POINT('',#1916);
#681=VERTEX_POINT('',#1917);
#682=VERTEX_POINT('',#1919);
#683=VERTEX_POINT('',#1921);
#684=VERTEX_POINT('',#1923);
#685=VERTEX_POINT('',#1925);
#686=VERTEX_POINT('',#1927);
#687=VERTEX_POINT('',#1929);
#688=VERTEX_POINT('',#1932);
#689=VERTEX_POINT('',#1934);
#690=VERTEX_POINT('',#1936);
#691=VERTEX_POINT('',#1938);
#692=VERTEX_POINT('',#1941);
#693=VERTEX_POINT('',#1942);
#694=VERTEX_POINT('',#1944);
#695=VERTEX_POINT('',#1946);
#696=VERTEX_POINT('',#1948);
#697=VERTEX_POINT('',#1950);
#698=VERTEX_POINT('',#1952);
#699=VERTEX_POINT('',#1954);
#700=VERTEX_POINT('',#1956);
#701=VERTEX_POINT('',#1958);
#702=VERTEX_POINT('',#1960);
#703=VERTEX_POINT('',#1962);
#704=VERTEX_POINT('',#1965);
#705=VERTEX_POINT('',#1967);
#706=VERTEX_POINT('',#1969);
#707=VERTEX_POINT('',#1971);
#708=VERTEX_POINT('',#1973);
#709=VERTEX_POINT('',#1977);
#710=VERTEX_POINT('',#1979);
#711=VERTEX_POINT('',#1981);
#712=VERTEX_POINT('',#1984);
#713=VERTEX_POINT('',#1986);
#714=VERTEX_POINT('',#1988);
#715=VERTEX_POINT('',#1990);
#716=VERTEX_POINT('',#1992);
#717=VERTEX_POINT('',#1994);
#718=VERTEX_POINT('',#1996);
#719=VERTEX_POINT('',#1998);
#720=VERTEX_POINT('',#2001);
#721=VERTEX_POINT('',#2003);
#722=VERTEX_POINT('',#2005);
#723=VERTEX_POINT('',#2007);
#724=VERTEX_POINT('',#2011);
#725=VERTEX_POINT('',#2013);
#726=VERTEX_POINT('',#2016);
#727=VERTEX_POINT('',#2018);
#728=VERTEX_POINT('',#2021);
#729=VERTEX_POINT('',#2023);
#730=VERTEX_POINT('',#2025);
#731=VERTEX_POINT('',#2027);
#732=VERTEX_POINT('',#2031);
#733=VERTEX_POINT('',#2035);
#734=VERTEX_POINT('',#2041);
#735=VERTEX_POINT('',#2045);
#736=VERTEX_POINT('',#2051);
#737=VERTEX_POINT('',#2052);
#738=VERTEX_POINT('',#2057);
#739=VERTEX_POINT('',#2059);
#740=VERTEX_POINT('',#2063);
#741=VERTEX_POINT('',#2069);
#742=VERTEX_POINT('',#2073);
#743=VERTEX_POINT('',#2077);
#744=VERTEX_POINT('',#2081);
#745=VERTEX_POINT('',#2082);
#746=VERTEX_POINT('',#2087);
#747=VERTEX_POINT('',#2089);
#748=VERTEX_POINT('',#2093);
#749=VERTEX_POINT('',#2099);
#750=VERTEX_POINT('',#2101);
#751=VERTEX_POINT('',#2103);
#752=VERTEX_POINT('',#2113);
#753=VERTEX_POINT('',#2115);
#754=VERTEX_POINT('',#2117);
#755=VERTEX_POINT('',#2119);
#756=VERTEX_POINT('',#2121);
#757=VERTEX_POINT('',#2134);
#758=VERTEX_POINT('',#2136);
#759=VERTEX_POINT('',#2146);
#760=VERTEX_POINT('',#2154);
#761=VERTEX_POINT('',#2158);
#762=VERTEX_POINT('',#2162);
#763=VERTEX_POINT('',#2166);
#764=LINE('',#1831,#860);
#765=LINE('',#1834,#861);
#766=LINE('',#1836,#862);
#767=LINE('',#1840,#863);
#768=LINE('',#1842,#864);
#769=LINE('',#1844,#865);
#770=LINE('',#1847,#866);
#771=LINE('',#1849,#867);
#772=LINE('',#1853,#868);
#773=LINE('',#1855,#869);
#774=LINE('',#1857,#870);
#775=LINE('',#1859,#871);
#776=LINE('',#1861,#872);
#777=LINE('',#1863,#873);
#778=LINE('',#1865,#874);
#779=LINE('',#1867,#875);
#780=LINE('',#1869,#876);
#781=LINE('',#1873,#877);
#782=LINE('',#1875,#878);
#783=LINE('',#1877,#879);
#784=LINE('',#1878,#880);
#785=LINE('',#1880,#881);
#786=LINE('',#1883,#882);
#787=LINE('',#1885,#883);
#788=LINE('',#1887,#884);
#789=LINE('',#1889,#885);
#790=LINE('',#1891,#886);
#791=LINE('',#1893,#887);
#792=LINE('',#1915,#888);
#793=LINE('',#1920,#889);
#794=LINE('',#1924,#890);
#795=LINE('',#1928,#891);
#796=LINE('',#1940,#892);
#797=LINE('',#1943,#893);
#798=LINE('',#1945,#894);
#799=LINE('',#1947,#895);
#800=LINE('',#1949,#896);
#801=LINE('',#1957,#897);
#802=LINE('',#1961,#898);
#803=LINE('',#1970,#899);
#804=LINE('',#1972,#900);
#805=LINE('',#1974,#901);
#806=LINE('',#1975,#902);
#807=LINE('',#1976,#903);
#808=LINE('',#1985,#904);
#809=LINE('',#1989,#905);
#810=LINE('',#1997,#906);
#811=LINE('',#1999,#907);
#812=LINE('',#2009,#908);
#813=LINE('',#2012,#909);
#814=LINE('',#2014,#910);
#815=LINE('',#2015,#911);
#816=LINE('',#2017,#912);
#817=LINE('',#2019,#913);
#818=LINE('',#2020,#914);
#819=LINE('',#2022,#915);
#820=LINE('',#2026,#916);
#821=LINE('',#2028,#917);
#822=LINE('',#2030,#918);
#823=LINE('',#2034,#919);
#824=LINE('',#2036,#920);
#825=LINE('',#2040,#921);
#826=LINE('',#2044,#922);
#827=LINE('',#2046,#923);
#828=LINE('',#2053,#924);
#829=LINE('',#2054,#925);
#830=LINE('',#2056,#926);
#831=LINE('',#2058,#927);
#832=LINE('',#2060,#928);
#833=LINE('',#2062,#929);
#834=LINE('',#2064,#930);
#835=LINE('',#2083,#931);
#836=LINE('',#2084,#932);
#837=LINE('',#2086,#933);
#838=LINE('',#2088,#934);
#839=LINE('',#2090,#935);
#840=LINE('',#2092,#936);
#841=LINE('',#2094,#937);
#842=LINE('',#2104,#938);
#843=LINE('',#2105,#939);
#844=LINE('',#2107,#940);
#845=LINE('',#2109,#941);
#846=LINE('',#2110,#942);
#847=LINE('',#2118,#943);
#848=LINE('',#2120,#944);
#849=LINE('',#2122,#945);
#850=LINE('',#2124,#946);
#851=LINE('',#2125,#947);
#852=LINE('',#2127,#948);
#853=LINE('',#2128,#949);
#854=LINE('',#2130,#950);
#855=LINE('',#2133,#951);
#856=LINE('',#2135,#952);
#857=LINE('',#2139,#953);
#858=LINE('',#2140,#954);
#859=LINE('',#2142,#955);
#860=VECTOR('',#1435,1.);
#861=VECTOR('',#1436,1.);
#862=VECTOR('',#1437,1.);
#863=VECTOR('',#1440,1.);
#864=VECTOR('',#1441,1.);
#865=VECTOR('',#1444,1.);
#866=VECTOR('',#1445,1.);
#867=VECTOR('',#1446,1.);
#868=VECTOR('',#1449,1.);
#869=VECTOR('',#1450,1.);
#870=VECTOR('',#1451,1.);
#871=VECTOR('',#1452,1.);
#872=VECTOR('',#1453,1.);
#873=VECTOR('',#1454,1.);
#874=VECTOR('',#1455,1.);
#875=VECTOR('',#1456,1.);
#876=VECTOR('',#1457,1.);
#877=VECTOR('',#1460,1.);
#878=VECTOR('',#1461,1.);
#879=VECTOR('',#1464,1.);
#880=VECTOR('',#1465,1.);
#881=VECTOR('',#1468,1.);
#882=VECTOR('',#1469,1.);
#883=VECTOR('',#1470,1.);
#884=VECTOR('',#1471,1.);
#885=VECTOR('',#1474,1.);
#886=VECTOR('',#1475,1.);
#887=VECTOR('',#1476,1.);
#888=VECTOR('',#1503,1.);
#889=VECTOR('',#1506,1.);
#890=VECTOR('',#1509,1.);
#891=VECTOR('',#1512,1.);
#892=VECTOR('',#1525,1.);
#893=VECTOR('',#1526,1.);
#894=VECTOR('',#1527,1.);
#895=VECTOR('',#1528,1.);
#896=VECTOR('',#1529,1.);
#897=VECTOR('',#1536,1.);
#898=VECTOR('',#1539,1.);
#899=VECTOR('',#1548,1.);
#900=VECTOR('',#1549,1.);
#901=VECTOR('',#1550,1.);
#902=VECTOR('',#1551,1.);
#903=VECTOR('',#1552,1.);
#904=VECTOR('',#1561,1.);
#905=VECTOR('',#1564,1.);
#906=VECTOR('',#1571,1.);
#907=VECTOR('',#1572,1.);
#908=VECTOR('',#1583,1.);
#909=VECTOR('',#1586,1.);
#910=VECTOR('',#1587,1.);
#911=VECTOR('',#1588,1.);
#912=VECTOR('',#1589,1.);
#913=VECTOR('',#1590,1.);
#914=VECTOR('',#1591,1.);
#915=VECTOR('',#1592,1.);
#916=VECTOR('',#1595,1.);
#917=VECTOR('',#1596,1.);
#918=VECTOR('',#1599,1.);
#919=VECTOR('',#1604,1.);
#920=VECTOR('',#1605,1.);
#921=VECTOR('',#1612,1.);
#922=VECTOR('',#1617,1.);
#923=VECTOR('',#1618,1.);
#924=VECTOR('',#1627,1.);
#925=VECTOR('',#1628,1.);
#926=VECTOR('',#1631,1.);
#927=VECTOR('',#1632,1.);
#928=VECTOR('',#1633,1.);
#929=VECTOR('',#1636,1.);
#930=VECTOR('',#1637,1.);
#931=VECTOR('',#1664,1.);
#932=VECTOR('',#1665,1.);
#933=VECTOR('',#1668,1.);
#934=VECTOR('',#1669,1.);
#935=VECTOR('',#1670,1.);
#936=VECTOR('',#1673,1.);
#937=VECTOR('',#1674,1.);
#938=VECTOR('',#1687,1.);
#939=VECTOR('',#1688,1.);
#940=VECTOR('',#1691,1.);
#941=VECTOR('',#1694,1.);
#942=VECTOR('',#1695,1.);
#943=VECTOR('',#1704,1.);
#944=VECTOR('',#1705,1.);
#945=VECTOR('',#1706,1.);
#946=VECTOR('',#1709,1.);
#947=VECTOR('',#1710,1.);
#948=VECTOR('',#1713,1.);
#949=VECTOR('',#1714,1.);
#950=VECTOR('',#1717,1.);
#951=VECTOR('',#1722,1.);
#952=VECTOR('',#1723,1.);
#953=VECTOR('',#1728,1.);
#954=VECTOR('',#1729,1.);
#955=VECTOR('',#1732,1.);
#956=EDGE_LOOP('',(#128,#129,#130,#131,#132,#133));
#957=EDGE_LOOP('',(#134,#135,#136,#137,#138,#139,#140,#141,#142,#143,#144,
#145,#146,#147,#148,#149));
#958=EDGE_LOOP('',(#150,#151,#152,#153));
#959=EDGE_LOOP('',(#154,#155,#156,#157));
#960=EDGE_LOOP('',(#158,#159,#160,#161));
#961=EDGE_LOOP('',(#162));
#962=EDGE_LOOP('',(#163));
#963=EDGE_LOOP('',(#164));
#964=EDGE_LOOP('',(#165));
#965=EDGE_LOOP('',(#166));
#966=EDGE_LOOP('',(#167));
#967=EDGE_LOOP('',(#168));
#968=EDGE_LOOP('',(#169));
#969=EDGE_LOOP('',(#170,#171,#172,#173,#174,#175,#176,#177));
#970=EDGE_LOOP('',(#178));
#971=EDGE_LOOP('',(#179));
#972=EDGE_LOOP('',(#180));
#973=EDGE_LOOP('',(#181));
#974=EDGE_LOOP('',(#182,#183,#184,#185,#186,#187,#188,#189,#190,#191,#192,
#193,#194,#195,#196,#197,#198,#199,#200,#201,#202,#203,#204,#205,#206,#207,
#208,#209,#210,#211,#212,#213,#214,#215,#216,#217));
#975=EDGE_LOOP('',(#218));
#976=EDGE_LOOP('',(#219));
#977=EDGE_LOOP('',(#220));
#978=EDGE_LOOP('',(#221));
#979=EDGE_LOOP('',(#222,#223,#224,#225,#226,#227,#228,#229,#230,#231,#232,
#233,#234,#235,#236,#237));
#980=EDGE_LOOP('',(#238,#239,#240,#241));
#981=EDGE_LOOP('',(#242,#243,#244,#245));
#982=EDGE_LOOP('',(#246,#247,#248,#249));
#983=EDGE_LOOP('',(#250,#251,#252,#253));
#984=EDGE_LOOP('',(#254,#255,#256,#257));
#985=EDGE_LOOP('',(#258,#259,#260,#261));
#986=EDGE_LOOP('',(#262,#263,#264,#265));
#987=EDGE_LOOP('',(#266,#267,#268,#269));
#988=EDGE_LOOP('',(#270,#271,#272,#273,#274,#275,#276));
#989=EDGE_LOOP('',(#277));
#990=EDGE_LOOP('',(#278));
#991=EDGE_LOOP('',(#279));
#992=EDGE_LOOP('',(#280));
#993=EDGE_LOOP('',(#281));
#994=EDGE_LOOP('',(#282));
#995=EDGE_LOOP('',(#283));
#996=EDGE_LOOP('',(#284));
#997=EDGE_LOOP('',(#285));
#998=EDGE_LOOP('',(#286));
#999=EDGE_LOOP('',(#287,#288,#289,#290));
#1000=EDGE_LOOP('',(#291,#292,#293,#294));
#1001=EDGE_LOOP('',(#295));
#1002=EDGE_LOOP('',(#296,#297,#298,#299,#300,#301,#302));
#1003=EDGE_LOOP('',(#303,#304,#305,#306,#307,#308,#309));
#1004=EDGE_LOOP('',(#310));
#1005=EDGE_LOOP('',(#311,#312,#313,#314));
#1006=EDGE_LOOP('',(#315,#316,#317,#318));
#1007=EDGE_LOOP('',(#319,#320,#321,#322,#323,#324,#325));
#1008=EDGE_LOOP('',(#326));
#1009=EDGE_LOOP('',(#327,#328,#329,#330));
#1010=EDGE_LOOP('',(#331,#332,#333,#334));
#1011=EDGE_LOOP('',(#335,#336,#337,#338,#339,#340));
#1012=EDGE_LOOP('',(#341,#342,#343,#344,#345,#346));
#1013=EDGE_LOOP('',(#347,#348,#349,#350));
#1014=EDGE_LOOP('',(#351,#352,#353,#354,#355,#356));
#1015=EDGE_LOOP('',(#357));
#1016=EDGE_LOOP('',(#358));
#1017=EDGE_LOOP('',(#359));
#1018=EDGE_LOOP('',(#360,#361,#362,#363));
#1019=EDGE_LOOP('',(#364,#365,#366,#367));
#1020=EDGE_LOOP('',(#368,#369,#370,#371));
#1021=EDGE_LOOP('',(#372,#373,#374,#375));
#1022=EDGE_LOOP('',(#376));
#1023=EDGE_LOOP('',(#377));
#1024=EDGE_LOOP('',(#378));
#1025=EDGE_LOOP('',(#379));
#1026=EDGE_LOOP('',(#380));
#1027=EDGE_LOOP('',(#381));
#1028=EDGE_LOOP('',(#382));
#1029=EDGE_LOOP('',(#383));
#1030=EDGE_LOOP('',(#384));
#1031=EDGE_LOOP('',(#385));
#1032=EDGE_LOOP('',(#386));
#1033=EDGE_LOOP('',(#387));
#1034=EDGE_LOOP('',(#388));
#1035=EDGE_LOOP('',(#389));
#1036=EDGE_LOOP('',(#390));
#1037=EDGE_LOOP('',(#391));
#1038=EDGE_LOOP('',(#392,#393,#394,#395));
#1039=EDGE_LOOP('',(#396,#397,#398,#399));
#1040=EDGE_LOOP('',(#400,#401,#402,#403));
#1041=EDGE_LOOP('',(#404,#405,#406,#407));
#1042=EDGE_LOOP('',(#408,#409,#410,#411));
#1043=EDGE_LOOP('',(#412,#413,#414,#415));
#1044=EDGE_LOOP('',(#416,#417,#418,#419));
#1045=EDGE_LOOP('',(#420,#421,#422,#423));
#1046=EDGE_LOOP('',(#424,#425,#426,#427));
#1047=EDGE_LOOP('',(#428,#429,#430,#431));
#1048=EDGE_LOOP('',(#432,#433,#434,#435));
#1049=EDGE_LOOP('',(#436,#437,#438,#439));
#1050=EDGE_LOOP('',(#440,#441,#442,#443));
#1051=EDGE_LOOP('',(#444,#445,#446,#447));
#1052=EDGE_LOOP('',(#448,#449,#450,#451));
#1053=EDGE_LOOP('',(#452,#453,#454,#455));
#1054=EDGE_LOOP('',(#456,#457,#458,#459));
#1055=EDGE_LOOP('',(#460,#461,#462,#463));
#1056=EDGE_LOOP('',(#464,#465,#466,#467));
#1057=EDGE_LOOP('',(#468,#469,#470,#471));
#1058=FACE_BOUND('',#956,.T.);
#1059=FACE_BOUND('',#957,.T.);
#1060=FACE_BOUND('',#958,.T.);
#1061=FACE_BOUND('',#959,.T.);
#1062=FACE_BOUND('',#960,.T.);
#1063=FACE_BOUND('',#961,.T.);
#1064=FACE_BOUND('',#962,.T.);
#1065=FACE_BOUND('',#963,.T.);
#1066=FACE_BOUND('',#964,.T.);
#1067=FACE_BOUND('',#965,.T.);
#1068=FACE_BOUND('',#966,.T.);
#1069=FACE_BOUND('',#967,.T.);
#1070=FACE_BOUND('',#968,.T.);
#1071=FACE_BOUND('',#969,.T.);
#1072=FACE_BOUND('',#970,.T.);
#1073=FACE_BOUND('',#971,.T.);
#1074=FACE_BOUND('',#972,.T.);
#1075=FACE_BOUND('',#973,.T.);
#1076=FACE_BOUND('',#974,.T.);
#1077=FACE_BOUND('',#975,.T.);
#1078=FACE_BOUND('',#976,.T.);
#1079=FACE_BOUND('',#977,.T.);
#1080=FACE_BOUND('',#978,.T.);
#1081=FACE_BOUND('',#979,.T.);
#1082=FACE_BOUND('',#980,.T.);
#1083=FACE_BOUND('',#981,.T.);
#1084=FACE_BOUND('',#982,.T.);
#1085=FACE_BOUND('',#983,.T.);
#1086=FACE_BOUND('',#984,.T.);
#1087=FACE_BOUND('',#985,.T.);
#1088=FACE_BOUND('',#986,.T.);
#1089=FACE_BOUND('',#987,.T.);
#1090=FACE_BOUND('',#988,.T.);
#1091=FACE_BOUND('',#989,.T.);
#1092=FACE_BOUND('',#990,.T.);
#1093=FACE_BOUND('',#991,.T.);
#1094=FACE_BOUND('',#992,.T.);
#1095=FACE_BOUND('',#993,.T.);
#1096=FACE_BOUND('',#994,.T.);
#1097=FACE_BOUND('',#995,.T.);
#1098=FACE_BOUND('',#996,.T.);
#1099=FACE_BOUND('',#997,.T.);
#1100=FACE_BOUND('',#998,.T.);
#1101=FACE_BOUND('',#999,.T.);
#1102=FACE_BOUND('',#1000,.T.);
#1103=FACE_BOUND('',#1001,.T.);
#1104=FACE_BOUND('',#1002,.T.);
#1105=FACE_BOUND('',#1003,.T.);
#1106=FACE_BOUND('',#1004,.T.);
#1107=FACE_BOUND('',#1005,.T.);
#1108=FACE_BOUND('',#1006,.T.);
#1109=FACE_BOUND('',#1007,.T.);
#1110=FACE_BOUND('',#1008,.T.);
#1111=FACE_BOUND('',#1009,.T.);
#1112=FACE_BOUND('',#1010,.T.);
#1113=FACE_BOUND('',#1011,.T.);
#1114=FACE_BOUND('',#1012,.T.);
#1115=FACE_BOUND('',#1013,.T.);
#1116=FACE_BOUND('',#1014,.T.);
#1117=FACE_BOUND('',#1015,.T.);
#1118=FACE_BOUND('',#1016,.T.);
#1119=FACE_BOUND('',#1017,.T.);
#1120=FACE_BOUND('',#1018,.T.);
#1121=FACE_BOUND('',#1019,.T.);
#1122=FACE_BOUND('',#1020,.T.);
#1123=FACE_BOUND('',#1021,.T.);
#1124=FACE_BOUND('',#1022,.T.);
#1125=FACE_BOUND('',#1023,.T.);
#1126=FACE_BOUND('',#1024,.T.);
#1127=FACE_BOUND('',#1025,.T.);
#1128=FACE_BOUND('',#1026,.T.);
#1129=FACE_BOUND('',#1027,.T.);
#1130=FACE_BOUND('',#1028,.T.);
#1131=FACE_BOUND('',#1029,.T.);
#1132=FACE_BOUND('',#1030,.T.);
#1133=FACE_BOUND('',#1031,.T.);
#1134=FACE_BOUND('',#1032,.T.);
#1135=FACE_BOUND('',#1033,.T.);
#1136=FACE_BOUND('',#1034,.T.);
#1137=FACE_BOUND('',#1035,.T.);
#1138=FACE_BOUND('',#1036,.T.);
#1139=FACE_BOUND('',#1037,.T.);
#1140=FACE_BOUND('',#1038,.T.);
#1141=FACE_BOUND('',#1039,.T.);
#1142=FACE_BOUND('',#1040,.T.);
#1143=FACE_BOUND('',#1041,.T.);
#1144=FACE_BOUND('',#1042,.T.);
#1145=FACE_BOUND('',#1043,.T.);
#1146=FACE_BOUND('',#1044,.T.);
#1147=FACE_BOUND('',#1045,.T.);
#1148=FACE_BOUND('',#1046,.T.);
#1149=FACE_BOUND('',#1047,.T.);
#1150=FACE_BOUND('',#1048,.T.);
#1151=FACE_BOUND('',#1049,.T.);
#1152=FACE_BOUND('',#1050,.T.);
#1153=FACE_BOUND('',#1051,.T.);
#1154=FACE_BOUND('',#1052,.T.);
#1155=FACE_BOUND('',#1053,.T.);
#1156=FACE_BOUND('',#1054,.T.);
#1157=FACE_BOUND('',#1055,.T.);
#1158=FACE_BOUND('',#1056,.T.);
#1159=FACE_BOUND('',#1057,.T.);
#1160=PLANE('',#1281);
#1161=PLANE('',#1283);
#1162=PLANE('',#1286);
#1163=PLANE('',#1287);
#1164=PLANE('',#1288);
#1165=PLANE('',#1301);
#1166=PLANE('',#1310);
#1167=PLANE('',#1331);
#1168=PLANE('',#1336);
#1169=PLANE('',#1341);
#1170=PLANE('',#1346);
#1171=PLANE('',#1347);
#1172=PLANE('',#1352);
#1173=PLANE('',#1355);
#1174=PLANE('',#1358);
#1175=PLANE('',#1361);
#1176=PLANE('',#1362);
#1177=PLANE('',#1365);
#1178=PLANE('',#1369);
#1179=PLANE('',#1371);
#1180=PLANE('',#1375);
#1181=PLANE('',#1377);
#1182=PLANE('',#1379);
#1183=PLANE('',#1381);
#1184=PLANE('',#1382);
#1185=PLANE('',#1386);
#1186=PLANE('',#1393);
#1187=PLANE('',#1396);
#1188=PLANE('',#1399);
#1189=PLANE('',#1402);
#1190=PLANE('',#1427);
#1191=PLANE('',#1428);
#1192=PLANE('',#1429);
#1193=PLANE('',#1430);
#1194=ADVANCED_FACE('',(#1058),#1160,.T.);
#1195=ADVANCED_FACE('',(#1059),#1161,.T.);
#1196=ADVANCED_FACE('',(#1060),#1162,.F.);
#1197=ADVANCED_FACE('',(#1061),#1163,.F.);
#1198=ADVANCED_FACE('',(#1062),#1164,.F.);
#1199=ADVANCED_FACE('',(#1063,#1064),#16,.F.);
#1200=ADVANCED_FACE('',(#1065,#1066),#17,.F.);
#1201=ADVANCED_FACE('',(#1067,#1068),#18,.F.);
#1202=ADVANCED_FACE('',(#1069,#1070),#19,.F.);
#1203=ADVANCED_FACE('',(#1071,#1072,#1073,#1074,#1075),#1165,.T.);
#1204=ADVANCED_FACE('',(#1076,#1077,#1078,#1079,#1080),#1166,.F.);
#1205=ADVANCED_FACE('',(#1081),#1167,.F.);
#1206=ADVANCED_FACE('',(#1082),#20,.T.);
#1207=ADVANCED_FACE('',(#1083),#1168,.F.);
#1208=ADVANCED_FACE('',(#1084),#21,.T.);
#1209=ADVANCED_FACE('',(#1085),#22,.T.);
#1210=ADVANCED_FACE('',(#1086),#1169,.T.);
#1211=ADVANCED_FACE('',(#1087),#23,.T.);
#1212=ADVANCED_FACE('',(#1088),#24,.T.);
#1213=ADVANCED_FACE('',(#1089),#1170,.T.);
#1214=ADVANCED_FACE('',(#1090,#1091),#1171,.F.);
#1215=ADVANCED_FACE('',(#1092,#1093),#25,.T.);
#1216=ADVANCED_FACE('',(#1094),#1172,.F.);
#1217=ADVANCED_FACE('',(#1095,#1096),#26,.T.);
#1218=ADVANCED_FACE('',(#1097),#1173,.F.);
#1219=ADVANCED_FACE('',(#1098,#1099),#27,.T.);
#1220=ADVANCED_FACE('',(#1100),#1174,.F.);
#1221=ADVANCED_FACE('',(#1101),#28,.T.);
#1222=ADVANCED_FACE('',(#1102),#1175,.F.);
#1223=ADVANCED_FACE('',(#1103,#1104),#1176,.F.);
#1224=ADVANCED_FACE('',(#1105,#1106),#1177,.F.);
#1225=ADVANCED_FACE('',(#1107),#1178,.T.);
#1226=ADVANCED_FACE('',(#1108),#29,.T.);
#1227=ADVANCED_FACE('',(#1109,#1110),#1179,.F.);
#1228=ADVANCED_FACE('',(#1111),#1180,.T.);
#1229=ADVANCED_FACE('',(#1112),#30,.T.);
#1230=ADVANCED_FACE('',(#1113),#1181,.T.);
#1231=ADVANCED_FACE('',(#1114),#1182,.F.);
#1232=ADVANCED_FACE('',(#1115),#1183,.F.);
#1233=ADVANCED_FACE('',(#1116),#1184,.T.);
#1234=ADVANCED_FACE('',(#1117,#1118),#31,.T.);
#1235=ADVANCED_FACE('',(#1119),#1185,.F.);
#1236=ADVANCED_FACE('',(#1120),#32,.F.);
#1237=ADVANCED_FACE('',(#1121),#33,.F.);
#1238=ADVANCED_FACE('',(#1122),#34,.F.);
#1239=ADVANCED_FACE('',(#1123),#35,.F.);
#1240=ADVANCED_FACE('',(#1124,#1125),#36,.F.);
#1241=ADVANCED_FACE('',(#1126,#1127),#1186,.T.);
#1242=ADVANCED_FACE('',(#1128,#1129),#37,.F.);
#1243=ADVANCED_FACE('',(#1130,#1131),#1187,.T.);
#1244=ADVANCED_FACE('',(#1132,#1133),#38,.F.);
#1245=ADVANCED_FACE('',(#1134,#1135),#1188,.T.);
#1246=ADVANCED_FACE('',(#1136,#1137),#39,.F.);
#1247=ADVANCED_FACE('',(#1138,#1139),#1189,.T.);
#1248=ADVANCED_FACE('',(#1140),#12,.T.);
#1249=ADVANCED_FACE('',(#1141),#40,.T.);
#1250=ADVANCED_FACE('',(#1142),#41,.T.);
#1251=ADVANCED_FACE('',(#1143),#13,.T.);
#1252=ADVANCED_FACE('',(#1144),#14,.T.);
#1253=ADVANCED_FACE('',(#1145),#42,.T.);
#1254=ADVANCED_FACE('',(#1146),#43,.T.);
#1255=ADVANCED_FACE('',(#1147),#15,.T.);
#1256=ADVANCED_FACE('',(#1148),#44,.F.);
#1257=ADVANCED_FACE('',(#1149),#45,.F.);
#1258=ADVANCED_FACE('',(#1150),#46,.F.);
#1259=ADVANCED_FACE('',(#1151),#47,.F.);
#1260=ADVANCED_FACE('',(#1152),#48,.F.);
#1261=ADVANCED_FACE('',(#1153),#49,.F.);
#1262=ADVANCED_FACE('',(#1154),#50,.F.);
#1263=ADVANCED_FACE('',(#1155),#51,.F.);
#1264=ADVANCED_FACE('',(#1156),#1190,.T.);
#1265=ADVANCED_FACE('',(#1157),#1191,.F.);
#1266=ADVANCED_FACE('',(#1158),#1192,.T.);
#1267=ADVANCED_FACE('',(#1159),#1193,.T.);
#1268=CLOSED_SHELL('',(#1194,#1195,#1196,#1197,#1198,#1199,#1200,#1201,
#1202,#1203,#1204,#1205,#1206,#1207,#1208,#1209,#1210,#1211,#1212,#1213,
#1214,#1215,#1216,#1217,#1218,#1219,#1220,#1221,#1222,#1223,#1224,#1225,
#1226,#1227,#1228,#1229,#1230,#1231,#1232,#1233,#1234,#1235,#1236,#1237,
#1238,#1239,#1240,#1241,#1242,#1243,#1244,#1245,#1246,#1247,#1248,#1249,
#1250,#1251,#1252,#1253,#1254,#1255,#1256,#1257,#1258,#1259,#1260,#1261,
#1262,#1263,#1264,#1265,#1266,#1267));
#1269=STYLED_ITEM('',(#1270),#1277);
#1270=PRESENTATION_STYLE_ASSIGNMENT((#1271));
#1271=SURFACE_STYLE_USAGE(.BOTH.,#1272);
#1272=SURFACE_SIDE_STYLE('',(#1273));
#1273=SURFACE_STYLE_FILL_AREA(#1274);
#1274=FILL_AREA_STYLE('',(#1275));
#1275=FILL_AREA_STYLE_COLOUR('',#1276);
#1276=COLOUR_RGB('',0.917647058823529,0.917647058823529,0.917647058823529);
#1277=MANIFOLD_SOLID_BREP('XY Top Clam',#1268);
#1278=SHAPE_DEFINITION_REPRESENTATION(#2202,#1279);
#1279=SHAPE_REPRESENTATION('XY Top Clam',(#1280),#2197);
#1280=AXIS2_PLACEMENT_3D('',#1829,#1431,#1432);
#1281=AXIS2_PLACEMENT_3D('',#1830,#1433,#1434);
#1282=AXIS2_PLACEMENT_3D('',#1838,#1438,#1439);
#1283=AXIS2_PLACEMENT_3D('',#1843,#1442,#1443);
#1284=AXIS2_PLACEMENT_3D('',#1851,#1447,#1448);
#1285=AXIS2_PLACEMENT_3D('',#1871,#1458,#1459);
#1286=AXIS2_PLACEMENT_3D('',#1876,#1462,#1463);
#1287=AXIS2_PLACEMENT_3D('',#1879,#1466,#1467);
#1288=AXIS2_PLACEMENT_3D('',#1888,#1472,#1473);
#1289=AXIS2_PLACEMENT_3D('',#1894,#1477,#1478);
#1290=AXIS2_PLACEMENT_3D('',#1895,#1479,#1480);
#1291=AXIS2_PLACEMENT_3D('',#1897,#1481,#1482);
#1292=AXIS2_PLACEMENT_3D('',#1899,#1483,#1484);
#1293=AXIS2_PLACEMENT_3D('',#1900,#1485,#1486);
#1294=AXIS2_PLACEMENT_3D('',#1902,#1487,#1488);
#1295=AXIS2_PLACEMENT_3D('',#1904,#1489,#1490);
#1296=AXIS2_PLACEMENT_3D('',#1905,#1491,#1492);
#1297=AXIS2_PLACEMENT_3D('',#1907,#1493,#1494);
#1298=AXIS2_PLACEMENT_3D('',#1909,#1495,#1496);
#1299=AXIS2_PLACEMENT_3D('',#1910,#1497,#1498);
#1300=AXIS2_PLACEMENT_3D('',#1912,#1499,#1500);
#1301=AXIS2_PLACEMENT_3D('',#1914,#1501,#1502);
#1302=AXIS2_PLACEMENT_3D('',#1918,#1504,#1505);
#1303=AXIS2_PLACEMENT_3D('',#1922,#1507,#1508);
#1304=AXIS2_PLACEMENT_3D('',#1926,#1510,#1511);
#1305=AXIS2_PLACEMENT_3D('',#1930,#1513,#1514);
#1306=AXIS2_PLACEMENT_3D('',#1931,#1515,#1516);
#1307=AXIS2_PLACEMENT_3D('',#1933,#1517,#1518);
#1308=AXIS2_PLACEMENT_3D('',#1935,#1519,#1520);
#1309=AXIS2_PLACEMENT_3D('',#1937,#1521,#1522);
#1310=AXIS2_PLACEMENT_3D('',#1939,#1523,#1524);
#1311=AXIS2_PLACEMENT_3D('',#1951,#1530,#1531);
#1312=AXIS2_PLACEMENT_3D('',#1953,#1532,#1533);
#1313=AXIS2_PLACEMENT_3D('',#1955,#1534,#1535);
#1314=AXIS2_PLACEMENT_3D('',#1959,#1537,#1538);
#1315=AXIS2_PLACEMENT_3D('',#1963,#1540,#1541);
#1316=AXIS2_PLACEMENT_3D('',#1964,#1542,#1543);
#1317=AXIS2_PLACEMENT_3D('',#1966,#1544,#1545);
#1318=AXIS2_PLACEMENT_3D('',#1968,#1546,#1547);
#1319=AXIS2_PLACEMENT_3D('',#1978,#1553,#1554);
#1320=AXIS2_PLACEMENT_3D('',#1980,#1555,#1556);
#1321=AXIS2_PLACEMENT_3D('',#1982,#1557,#1558);
#1322=AXIS2_PLACEMENT_3D('',#1983,#1559,#1560);
#1323=AXIS2_PLACEMENT_3D('',#1987,#1562,#1563);
#1324=AXIS2_PLACEMENT_3D('',#1991,#1565,#1566);
#1325=AXIS2_PLACEMENT_3D('',#1993,#1567,#1568);
#1326=AXIS2_PLACEMENT_3D('',#1995,#1569,#1570);
#1327=AXIS2_PLACEMENT_3D('',#2000,#1573,#1574);
#1328=AXIS2_PLACEMENT_3D('',#2002,#1575,#1576);
#1329=AXIS2_PLACEMENT_3D('',#2004,#1577,#1578);
#1330=AXIS2_PLACEMENT_3D('',#2006,#1579,#1580);
#1331=AXIS2_PLACEMENT_3D('',#2008,#1581,#1582);
#1332=AXIS2_PLACEMENT_3D('',#2010,#1584,#1585);
#1333=AXIS2_PLACEMENT_3D('',#2024,#1593,#1594);
#1334=AXIS2_PLACEMENT_3D('',#2029,#1597,#1598);
#1335=AXIS2_PLACEMENT_3D('',#2032,#1600,#1601);
#1336=AXIS2_PLACEMENT_3D('',#2033,#1602,#1603);
#1337=AXIS2_PLACEMENT_3D('',#2037,#1606,#1607);
#1338=AXIS2_PLACEMENT_3D('',#2038,#1608,#1609);
#1339=AXIS2_PLACEMENT_3D('',#2039,#1610,#1611);
#1340=AXIS2_PLACEMENT_3D('',#2042,#1613,#1614);
#1341=AXIS2_PLACEMENT_3D('',#2043,#1615,#1616);
#1342=AXIS2_PLACEMENT_3D('',#2047,#1619,#1620);
#1343=AXIS2_PLACEMENT_3D('',#2048,#1621,#1622);
#1344=AXIS2_PLACEMENT_3D('',#2049,#1623,#1624);
#1345=AXIS2_PLACEMENT_3D('',#2050,#1625,#1626);
#1346=AXIS2_PLACEMENT_3D('',#2055,#1629,#1630);
#1347=AXIS2_PLACEMENT_3D('',#2061,#1634,#1635);
#1348=AXIS2_PLACEMENT_3D('',#2065,#1638,#1639);
#1349=AXIS2_PLACEMENT_3D('',#2066,#1640,#1641);
#1350=AXIS2_PLACEMENT_3D('',#2067,#1642,#1643);
#1351=AXIS2_PLACEMENT_3D('',#2068,#1644,#1645);
#1352=AXIS2_PLACEMENT_3D('',#2070,#1646,#1647);
#1353=AXIS2_PLACEMENT_3D('',#2071,#1648,#1649);
#1354=AXIS2_PLACEMENT_3D('',#2072,#1650,#1651);
#1355=AXIS2_PLACEMENT_3D('',#2074,#1652,#1653);
#1356=AXIS2_PLACEMENT_3D('',#2075,#1654,#1655);
#1357=AXIS2_PLACEMENT_3D('',#2076,#1656,#1657);
#1358=AXIS2_PLACEMENT_3D('',#2078,#1658,#1659);
#1359=AXIS2_PLACEMENT_3D('',#2079,#1660,#1661);
#1360=AXIS2_PLACEMENT_3D('',#2080,#1662,#1663);
#1361=AXIS2_PLACEMENT_3D('',#2085,#1666,#1667);
#1362=AXIS2_PLACEMENT_3D('',#2091,#1671,#1672);
#1363=AXIS2_PLACEMENT_3D('',#2095,#1675,#1676);
#1364=AXIS2_PLACEMENT_3D('',#2096,#1677,#1678);
#1365=AXIS2_PLACEMENT_3D('',#2097,#1679,#1680);
#1366=AXIS2_PLACEMENT_3D('',#2098,#1681,#1682);
#1367=AXIS2_PLACEMENT_3D('',#2100,#1683,#1684);
#1368=AXIS2_PLACEMENT_3D('',#2102,#1685,#1686);
#1369=AXIS2_PLACEMENT_3D('',#2106,#1689,#1690);
#1370=AXIS2_PLACEMENT_3D('',#2108,#1692,#1693);
#1371=AXIS2_PLACEMENT_3D('',#2111,#1696,#1697);
#1372=AXIS2_PLACEMENT_3D('',#2112,#1698,#1699);
#1373=AXIS2_PLACEMENT_3D('',#2114,#1700,#1701);
#1374=AXIS2_PLACEMENT_3D('',#2116,#1702,#1703);
#1375=AXIS2_PLACEMENT_3D('',#2123,#1707,#1708);
#1376=AXIS2_PLACEMENT_3D('',#2126,#1711,#1712);
#1377=AXIS2_PLACEMENT_3D('',#2129,#1715,#1716);
#1378=AXIS2_PLACEMENT_3D('',#2131,#1718,#1719);
#1379=AXIS2_PLACEMENT_3D('',#2132,#1720,#1721);
#1380=AXIS2_PLACEMENT_3D('',#2137,#1724,#1725);
#1381=AXIS2_PLACEMENT_3D('',#2138,#1726,#1727);
#1382=AXIS2_PLACEMENT_3D('',#2141,#1730,#1731);
#1383=AXIS2_PLACEMENT_3D('',#2143,#1733,#1734);
#1384=AXIS2_PLACEMENT_3D('',#2144,#1735,#1736);
#1385=AXIS2_PLACEMENT_3D('',#2145,#1737,#1738);
#1386=AXIS2_PLACEMENT_3D('',#2147,#1739,#1740);
#1387=AXIS2_PLACEMENT_3D('',#2148,#1741,#1742);
#1388=AXIS2_PLACEMENT_3D('',#2149,#1743,#1744);
#1389=AXIS2_PLACEMENT_3D('',#2150,#1745,#1746);
#1390=AXIS2_PLACEMENT_3D('',#2151,#1747,#1748);
#1391=AXIS2_PLACEMENT_3D('',#2152,#1749,#1750);
#1392=AXIS2_PLACEMENT_3D('',#2153,#1751,#1752);
#1393=AXIS2_PLACEMENT_3D('',#2155,#1753,#1754);
#1394=AXIS2_PLACEMENT_3D('',#2156,#1755,#1756);
#1395=AXIS2_PLACEMENT_3D('',#2157,#1757,#1758);
#1396=AXIS2_PLACEMENT_3D('',#2159,#1759,#1760);
#1397=AXIS2_PLACEMENT_3D('',#2160,#1761,#1762);
#1398=AXIS2_PLACEMENT_3D('',#2161,#1763,#1764);
#1399=AXIS2_PLACEMENT_3D('',#2163,#1765,#1766);
#1400=AXIS2_PLACEMENT_3D('',#2164,#1767,#1768);
#1401=AXIS2_PLACEMENT_3D('',#2165,#1769,#1770);
#1402=AXIS2_PLACEMENT_3D('',#2167,#1771,#1772);
#1403=AXIS2_PLACEMENT_3D('',#2168,#1773,#1774);
#1404=AXIS2_PLACEMENT_3D('',#2169,#1775,#1776);
#1405=AXIS2_PLACEMENT_3D('',#2170,#1777,#1778);
#1406=AXIS2_PLACEMENT_3D('',#2171,#1779,#1780);
#1407=AXIS2_PLACEMENT_3D('',#2172,#1781,#1782);
#1408=AXIS2_PLACEMENT_3D('',#2173,#1783,#1784);
#1409=AXIS2_PLACEMENT_3D('',#2174,#1785,#1786);
#1410=AXIS2_PLACEMENT_3D('',#2175,#1787,#1788);
#1411=AXIS2_PLACEMENT_3D('',#2176,#1789,#1790);
#1412=AXIS2_PLACEMENT_3D('',#2177,#1791,#1792);
#1413=AXIS2_PLACEMENT_3D('',#2178,#1793,#1794);
#1414=AXIS2_PLACEMENT_3D('',#2179,#1795,#1796);
#1415=AXIS2_PLACEMENT_3D('',#2180,#1797,#1798);
#1416=AXIS2_PLACEMENT_3D('',#2181,#1799,#1800);
#1417=AXIS2_PLACEMENT_3D('',#2182,#1801,#1802);
#1418=AXIS2_PLACEMENT_3D('',#2183,#1803,#1804);
#1419=AXIS2_PLACEMENT_3D('',#2184,#1805,#1806);
#1420=AXIS2_PLACEMENT_3D('',#2185,#1807,#1808);
#1421=AXIS2_PLACEMENT_3D('',#2186,#1809,#1810);
#1422=AXIS2_PLACEMENT_3D('',#2187,#1811,#1812);
#1423=AXIS2_PLACEMENT_3D('',#2188,#1813,#1814);
#1424=AXIS2_PLACEMENT_3D('',#2189,#1815,#1816);
#1425=AXIS2_PLACEMENT_3D('',#2190,#1817,#1818);
#1426=AXIS2_PLACEMENT_3D('',#2191,#1819,#1820);
#1427=AXIS2_PLACEMENT_3D('',#2192,#1821,#1822);
#1428=AXIS2_PLACEMENT_3D('',#2193,#1823,#1824);
#1429=AXIS2_PLACEMENT_3D('',#2194,#1825,#1826);
#1430=AXIS2_PLACEMENT_3D('',#2195,#1827,#1828);
#1431=DIRECTION('',(0.,0.,1.));
#1432=DIRECTION('',(1.,0.,0.));
#1433=DIRECTION('',(1.,0.,0.));
#1434=DIRECTION('',(0.,-1.,0.));
#1435=DIRECTION('',(0.,0.,1.));
#1436=DIRECTION('',(0.,-1.,0.));
#1437=DIRECTION('',(0.,0.,-1.));
#1438=DIRECTION('',(1.,0.,0.));
#1439=DIRECTION('',(0.,-1.,0.));
#1440=DIRECTION('',(0.,0.,1.));
#1441=DIRECTION('',(0.,-1.,0.));
#1442=DIRECTION('',(-1.,0.,0.));
#1443=DIRECTION('',(0.,1.,0.));
#1444=DIRECTION('',(0.,0.,1.));
#1445=DIRECTION('',(0.,-1.,0.));
#1446=DIRECTION('',(0.,0.,1.));
#1447=DIRECTION('',(-1.,0.,0.));
#1448=DIRECTION('',(0.,-1.,0.));
#1449=DIRECTION('',(0.,0.,-1.));
#1450=DIRECTION('',(0.,-1.,0.));
#1451=DIRECTION('',(0.,0.,1.));
#1452=DIRECTION('',(0.,1.,0.));
#1453=DIRECTION('',(0.,0.,1.));
#1454=DIRECTION('',(0.,1.,0.));
#1455=DIRECTION('',(0.,0.,1.));
#1456=DIRECTION('',(0.,-1.,0.));
#1457=DIRECTION('',(0.,0.,1.));
#1458=DIRECTION('',(1.,0.,0.));
#1459=DIRECTION('',(0.,-1.,0.));
#1460=DIRECTION('',(0.,0.,-1.));
#1461=DIRECTION('',(0.,-1.,0.));
#1462=DIRECTION('',(0.,1.,0.));
#1463=DIRECTION('',(1.,0.,0.));
#1464=DIRECTION('',(1.,0.,0.));
#1465=DIRECTION('',(-1.,0.,0.));
#1466=DIRECTION('',(0.,1.,0.));
#1467=DIRECTION('',(1.,0.,0.));
#1468=DIRECTION('',(1.,0.,0.));
#1469=DIRECTION('',(0.,0.,-1.));
#1470=DIRECTION('',(1.,0.,0.));
#1471=DIRECTION('',(0.,0.,-1.));
#1472=DIRECTION('',(0.,1.,0.));
#1473=DIRECTION('',(1.,0.,0.));
#1474=DIRECTION('',(-1.,0.,0.));
#1475=DIRECTION('',(0.,0.,1.));
#1476=DIRECTION('',(-1.,0.,0.));
#1477=DIRECTION('',(0.,-1.,0.));
#1478=DIRECTION('',(-1.,0.,0.));
#1479=DIRECTION('',(0.,-1.,0.));
#1480=DIRECTION('',(-1.,0.,0.));
#1481=DIRECTION('',(0.,1.,0.));
#1482=DIRECTION('',(1.,0.,0.));
#1483=DIRECTION('',(0.,-1.,0.));
#1484=DIRECTION('',(-1.,0.,0.));
#1485=DIRECTION('',(0.,1.,0.));
#1486=DIRECTION('',(1.,0.,0.));
#1487=DIRECTION('',(0.,1.,0.));
#1488=DIRECTION('',(1.,0.,0.));
#1489=DIRECTION('',(0.,-1.,0.));
#1490=DIRECTION('',(-1.,0.,0.));
#1491=DIRECTION('',(0.,1.,0.));
#1492=DIRECTION('',(1.,0.,0.));
#1493=DIRECTION('',(0.,1.,0.));
#1494=DIRECTION('',(1.,0.,0.));
#1495=DIRECTION('',(0.,-1.,0.));
#1496=DIRECTION('',(-1.,0.,0.));
#1497=DIRECTION('',(0.,1.,0.));
#1498=DIRECTION('',(1.,0.,0.));
#1499=DIRECTION('',(0.,1.,0.));
#1500=DIRECTION('',(1.,0.,0.));
#1501=DIRECTION('',(0.,1.,0.));
#1502=DIRECTION('',(1.,0.,0.));
#1503=DIRECTION('',(0.,0.,1.));
#1504=DIRECTION('',(0.,1.,0.));
#1505=DIRECTION('',(1.,0.,0.));
#1506=DIRECTION('',(1.,0.,0.));
#1507=DIRECTION('',(0.,1.,0.));
#1508=DIRECTION('',(1.,0.,0.));
#1509=DIRECTION('',(0.,0.,1.));
#1510=DIRECTION('',(0.,1.,0.));
#1511=DIRECTION('',(1.,0.,0.));
#1512=DIRECTION('',(1.,0.,0.));
#1513=DIRECTION('',(0.,1.,0.));
#1514=DIRECTION('',(1.,0.,0.));
#1515=DIRECTION('',(0.,1.,0.));
#1516=DIRECTION('',(1.,0.,0.));
#1517=DIRECTION('',(0.,1.,0.));
#1518=DIRECTION('',(1.,0.,0.));
#1519=DIRECTION('',(0.,1.,0.));
#1520=DIRECTION('',(1.,0.,0.));
#1521=DIRECTION('',(0.,1.,0.));
#1522=DIRECTION('',(1.,0.,0.));
#1523=DIRECTION('',(0.,1.,0.));
#1524=DIRECTION('',(1.,0.,0.));
#1525=DIRECTION('',(-1.,0.,0.));
#1526=DIRECTION('',(0.,0.,1.));
#1527=DIRECTION('',(-1.,0.,0.));
#1528=DIRECTION('',(0.,0.,1.));
#1529=DIRECTION('',(-1.,0.,0.));
#1530=DIRECTION('',(0.,1.,0.));
#1531=DIRECTION('',(1.,0.,0.));
#1532=DIRECTION('',(0.,1.,0.));
#1533=DIRECTION('',(1.,0.,0.));
#1534=DIRECTION('',(0.,1.,0.));
#1535=DIRECTION('',(1.,0.,0.));
#1536=DIRECTION('',(0.,0.,1.));
#1537=DIRECTION('',(0.,1.,0.));
#1538=DIRECTION('',(1.,0.,0.));
#1539=DIRECTION('',(1.,0.,0.));
#1540=DIRECTION('',(0.,1.,0.));
#1541=DIRECTION('',(1.,0.,0.));
#1542=DIRECTION('',(0.,1.,0.));
#1543=DIRECTION('',(1.,0.,0.));
#1544=DIRECTION('',(0.,1.,0.));
#1545=DIRECTION('',(1.,0.,0.));
#1546=DIRECTION('',(0.,1.,0.));
#1547=DIRECTION('',(1.,0.,0.));
#1548=DIRECTION('',(-1.,0.,0.));
#1549=DIRECTION('',(0.,0.,1.));
#1550=DIRECTION('',(1.,0.,0.));
#1551=DIRECTION('',(1.,0.,0.));
#1552=DIRECTION('',(1.,0.,0.));
#1553=DIRECTION('',(0.,1.,0.));
#1554=DIRECTION('',(1.,0.,0.));
#1555=DIRECTION('',(0.,1.,0.));
#1556=DIRECTION('',(1.,0.,0.));
#1557=DIRECTION('',(0.,1.,0.));
#1558=DIRECTION('',(1.,0.,0.));
#1559=DIRECTION('',(0.,1.,0.));
#1560=DIRECTION('',(1.,0.,0.));
#1561=DIRECTION('',(1.,0.,0.));
#1562=DIRECTION('',(0.,1.,0.));
#1563=DIRECTION('',(1.,0.,0.));
#1564=DIRECTION('',(0.,0.,1.));
#1565=DIRECTION('',(0.,1.,0.));
#1566=DIRECTION('',(1.,0.,0.));
#1567=DIRECTION('',(0.,1.,0.));
#1568=DIRECTION('',(1.,0.,0.));
#1569=DIRECTION('',(0.,1.,0.));
#1570=DIRECTION('',(1.,0.,0.));
#1571=DIRECTION('',(-1.,0.,0.));
#1572=DIRECTION('',(0.,0.,-1.));
#1573=DIRECTION('',(0.,1.,0.));
#1574=DIRECTION('',(1.,0.,0.));
#1575=DIRECTION('',(0.,1.,0.));
#1576=DIRECTION('',(1.,0.,0.));
#1577=DIRECTION('',(0.,1.,0.));
#1578=DIRECTION('',(1.,0.,0.));
#1579=DIRECTION('',(0.,1.,0.));
#1580=DIRECTION('',(1.,0.,0.));
#1581=DIRECTION('',(-1.,0.,0.));
#1582=DIRECTION('',(0.,1.,0.));
#1583=DIRECTION('',(0.,-1.,0.));
#1584=DIRECTION('',(1.,0.,0.));
#1585=DIRECTION('',(0.,-1.,0.));
#1586=DIRECTION('',(0.,0.,1.));
#1587=DIRECTION('',(0.,-1.,0.));
#1588=DIRECTION('',(0.,1.,0.));
#1589=DIRECTION('',(0.,0.,1.));
#1590=DIRECTION('',(0.,1.,0.));
#1591=DIRECTION('',(0.,-1.,0.));
#1592=DIRECTION('',(0.,0.,-1.));
#1593=DIRECTION('',(-1.,0.,0.));
#1594=DIRECTION('',(0.,-1.,0.));
#1595=DIRECTION('',(0.,0.,1.));
#1596=DIRECTION('',(0.,-1.,0.));
#1597=DIRECTION('',(0.,1.,0.));
#1598=DIRECTION('',(1.,0.,0.));
#1599=DIRECTION('',(0.,1.,0.));
#1600=DIRECTION('',(0.,1.,0.));
#1601=DIRECTION('',(1.,0.,0.));
#1602=DIRECTION('',(0.,0.,1.));
#1603=DIRECTION('',(0.,-1.,0.));
#1604=DIRECTION('',(0.,1.,0.));
#1605=DIRECTION('',(1.,0.,0.));
#1606=DIRECTION('',(0.,1.,0.));
#1607=DIRECTION('',(1.,0.,0.));
#1608=DIRECTION('',(0.,1.,0.));
#1609=DIRECTION('',(1.,0.,0.));
#1610=DIRECTION('',(0.,1.,0.));
#1611=DIRECTION('',(1.,0.,0.));
#1612=DIRECTION('',(0.,1.,0.));
#1613=DIRECTION('',(0.,1.,0.));
#1614=DIRECTION('',(1.,0.,0.));
#1615=DIRECTION('',(0.,0.,1.));
#1616=DIRECTION('',(0.,-1.,0.));
#1617=DIRECTION('',(0.,1.,0.));
#1618=DIRECTION('',(1.,0.,0.));
#1619=DIRECTION('',(0.,1.,0.));
#1620=DIRECTION('',(1.,0.,0.));
#1621=DIRECTION('',(0.,1.,0.));
#1622=DIRECTION('',(1.,0.,0.));
#1623=DIRECTION('',(0.,-1.,0.));
#1624=DIRECTION('',(-1.,0.,0.));
#1625=DIRECTION('',(0.,-1.,0.));
#1626=DIRECTION('',(-1.,0.,0.));
#1627=DIRECTION('',(0.,-1.,0.));
#1628=DIRECTION('',(0.,-1.,0.));
#1629=DIRECTION('',(0.,0.,1.));
#1630=DIRECTION('',(0.,-1.,0.));
#1631=DIRECTION('',(0.,1.,0.));
#1632=DIRECTION('',(-1.,0.,0.));
#1633=DIRECTION('',(0.,-1.,0.));
#1634=DIRECTION('',(0.,1.,0.));
#1635=DIRECTION('',(1.,0.,0.));
#1636=DIRECTION('',(-1.,0.,0.));
#1637=DIRECTION('',(0.,0.,1.));
#1638=DIRECTION('',(0.,1.,0.));
#1639=DIRECTION('',(1.,0.,0.));
#1640=DIRECTION('',(0.,1.,0.));
#1641=DIRECTION('',(1.,0.,0.));
#1642=DIRECTION('',(0.,-1.,0.));
#1643=DIRECTION('',(-1.,0.,0.));
#1644=DIRECTION('',(0.,1.,0.));
#1645=DIRECTION('',(1.,0.,0.));
#1646=DIRECTION('',(0.,1.,0.));
#1647=DIRECTION('',(1.,0.,0.));
#1648=DIRECTION('',(0.,-1.,0.));
#1649=DIRECTION('',(-1.,0.,0.));
#1650=DIRECTION('',(0.,1.,0.));
#1651=DIRECTION('',(1.,0.,0.));
#1652=DIRECTION('',(0.,1.,0.));
#1653=DIRECTION('',(1.,0.,0.));
#1654=DIRECTION('',(0.,-1.,0.));
#1655=DIRECTION('',(-1.,0.,0.));
#1656=DIRECTION('',(0.,1.,0.));
#1657=DIRECTION('',(1.,0.,0.));
#1658=DIRECTION('',(0.,1.,0.));
#1659=DIRECTION('',(1.,0.,0.));
#1660=DIRECTION('',(0.,-1.,0.));
#1661=DIRECTION('',(-1.,0.,0.));
#1662=DIRECTION('',(0.,1.,0.));
#1663=DIRECTION('',(1.,0.,0.));
#1664=DIRECTION('',(0.,-1.,0.));
#1665=DIRECTION('',(0.,-1.,0.));
#1666=DIRECTION('',(0.,0.,1.));
#1667=DIRECTION('',(0.,-1.,0.));
#1668=DIRECTION('',(0.,1.,0.));
#1669=DIRECTION('',(-1.,0.,0.));
#1670=DIRECTION('',(0.,-1.,0.));
#1671=DIRECTION('',(0.,1.,0.));
#1672=DIRECTION('',(1.,0.,0.));
#1673=DIRECTION('',(1.,0.,0.));
#1674=DIRECTION('',(0.,0.,1.));
#1675=DIRECTION('',(0.,1.,0.));
#1676=DIRECTION('',(1.,0.,0.));
#1677=DIRECTION('',(0.,1.,0.));
#1678=DIRECTION('',(1.,0.,0.));
#1679=DIRECTION('',(0.,1.,0.));
#1680=DIRECTION('',(1.,0.,0.));
#1681=DIRECTION('',(0.,1.,0.));
#1682=DIRECTION('',(1.,0.,0.));
#1683=DIRECTION('',(0.,1.,0.));
#1684=DIRECTION('',(1.,0.,0.));
#1685=DIRECTION('',(0.,1.,0.));
#1686=DIRECTION('',(1.,0.,0.));
#1687=DIRECTION('',(1.,0.,0.));
#1688=DIRECTION('',(-1.,0.,0.));
#1689=DIRECTION('',(0.,0.,-1.));
#1690=DIRECTION('',(0.,1.,0.));
#1691=DIRECTION('',(0.,-1.,0.));
#1692=DIRECTION('',(0.,-1.,0.));
#1693=DIRECTION('',(-1.,0.,0.));
#1694=DIRECTION('',(0.,-1.,0.));
#1695=DIRECTION('',(0.,-1.,0.));
#1696=DIRECTION('',(0.,1.,0.));
#1697=DIRECTION('',(1.,0.,0.));
#1698=DIRECTION('',(0.,1.,0.));
#1699=DIRECTION('',(1.,0.,0.));
#1700=DIRECTION('',(0.,1.,0.));
#1701=DIRECTION('',(1.,0.,0.));
#1702=DIRECTION('',(0.,1.,0.));
#1703=DIRECTION('',(1.,0.,0.));
#1704=DIRECTION('',(-1.,0.,0.));
#1705=DIRECTION('',(0.,0.,-1.));
#1706=DIRECTION('',(1.,0.,0.));
#1707=DIRECTION('',(0.,0.,1.));
#1708=DIRECTION('',(0.,-1.,0.));
#1709=DIRECTION('',(0.,-1.,0.));
#1710=DIRECTION('',(0.,-1.,0.));
#1711=DIRECTION('',(0.,-1.,0.));
#1712=DIRECTION('',(-1.,0.,0.));
#1713=DIRECTION('',(0.,-1.,0.));
#1714=DIRECTION('',(0.,-1.,0.));
#1715=DIRECTION('',(-1.,0.,0.));
#1716=DIRECTION('',(0.,1.,0.));
#1717=DIRECTION('',(0.,-1.,0.));
#1718=DIRECTION('',(1.,0.,0.));
#1719=DIRECTION('',(0.,-1.,0.));
#1720=DIRECTION('',(1.,0.,0.));
#1721=DIRECTION('',(0.,-1.,0.));
#1722=DIRECTION('',(0.,-1.,0.));
#1723=DIRECTION('',(0.,0.,1.));
#1724=DIRECTION('',(1.,0.,0.));
#1725=DIRECTION('',(0.,-1.,0.));
#1726=DIRECTION('',(0.,1.,0.));
#1727=DIRECTION('',(1.,0.,0.));
#1728=DIRECTION('',(1.,0.,0.));
#1729=DIRECTION('',(1.,0.,0.));
#1730=DIRECTION('',(1.,0.,0.));
#1731=DIRECTION('',(0.,-1.,0.));
#1732=DIRECTION('',(0.,-1.,0.));
#1733=DIRECTION('',(-1.,0.,0.));
#1734=DIRECTION('',(0.,-1.,0.));
#1735=DIRECTION('',(0.,-1.,0.));
#1736=DIRECTION('',(-1.,0.,0.));
#1737=DIRECTION('',(0.,1.,0.));
#1738=DIRECTION('',(1.,0.,0.));
#1739=DIRECTION('',(0.,1.,0.));
#1740=DIRECTION('',(1.,0.,0.));
#1741=DIRECTION('',(1.,0.,0.));
#1742=DIRECTION('',(0.,-1.,0.));
#1743=DIRECTION('',(1.,0.,0.));
#1744=DIRECTION('',(0.,-1.,0.));
#1745=DIRECTION('',(-1.,0.,0.));
#1746=DIRECTION('',(0.,1.,0.));
#1747=DIRECTION('',(-1.,0.,0.));
#1748=DIRECTION('',(0.,1.,0.));
#1749=DIRECTION('',(0.,1.,0.));
#1750=DIRECTION('',(1.,0.,0.));
#1751=DIRECTION('',(0.,1.,0.));
#1752=DIRECTION('',(1.,0.,0.));
#1753=DIRECTION('',(0.,1.,0.));
#1754=DIRECTION('',(1.,0.,0.));
#1755=DIRECTION('',(0.,1.,0.));
#1756=DIRECTION('',(1.,0.,0.));
#1757=DIRECTION('',(0.,1.,0.));
#1758=DIRECTION('',(1.,0.,0.));
#1759=DIRECTION('',(0.,1.,0.));
#1760=DIRECTION('',(1.,0.,0.));
#1761=DIRECTION('',(0.,1.,0.));
#1762=DIRECTION('',(1.,0.,0.));
#1763=DIRECTION('',(0.,1.,0.));
#1764=DIRECTION('',(1.,0.,0.));
#1765=DIRECTION('',(0.,1.,0.));
#1766=DIRECTION('',(1.,0.,0.));
#1767=DIRECTION('',(0.,1.,0.));
#1768=DIRECTION('',(1.,0.,0.));
#1769=DIRECTION('',(0.,1.,0.));
#1770=DIRECTION('',(1.,0.,0.));
#1771=DIRECTION('',(0.,1.,0.));
#1772=DIRECTION('',(1.,0.,0.));
#1773=DIRECTION('',(0.,1.,0.));
#1774=DIRECTION('',(1.,0.,0.));
#1775=DIRECTION('',(0.,0.,1.));
#1776=DIRECTION('',(0.,-1.,0.));
#1777=DIRECTION('',(-1.,0.,0.));
#1778=DIRECTION('',(0.,1.,0.));
#1779=DIRECTION('',(-1.,0.,0.));
#1780=DIRECTION('',(0.,1.,0.));
#1781=DIRECTION('',(-1.,0.,-2.08166817117217E-14));
#1782=DIRECTION('',(-2.08166817117217E-14,0.,1.));
#1783=DIRECTION('',(0.,0.,-1.));
#1784=DIRECTION('',(0.,1.,0.));
#1785=DIRECTION('',(0.,0.,1.));
#1786=DIRECTION('',(0.,-1.,0.));
#1787=DIRECTION('',(0.,1.,0.));
#1788=DIRECTION('',(1.,0.,0.));
#1789=DIRECTION('',(0.,0.,1.));
#1790=DIRECTION('',(0.,-1.,0.));
#1791=DIRECTION('',(0.,1.,0.));
#1792=DIRECTION('',(1.,0.,0.));
#1793=DIRECTION('',(-1.,0.,0.));
#1794=DIRECTION('',(0.,1.,0.));
#1795=DIRECTION('',(0.,0.,1.));
#1796=DIRECTION('',(0.,-1.,0.));
#1797=DIRECTION('',(0.,0.,1.));
#1798=DIRECTION('',(0.,-1.,0.));
#1799=DIRECTION('',(1.,0.,0.));
#1800=DIRECTION('',(0.,-1.,0.));
#1801=DIRECTION('',(-1.,0.,0.));
#1802=DIRECTION('',(0.,1.,0.));
#1803=DIRECTION('',(0.,1.,0.));
#1804=DIRECTION('',(1.,0.,0.));
#1805=DIRECTION('',(0.,-1.,0.));
#1806=DIRECTION('',(-1.,0.,0.));
#1807=DIRECTION('',(0.,-1.,0.));
#1808=DIRECTION('',(-1.,0.,0.));
#1809=DIRECTION('',(0.,-1.,0.));
#1810=DIRECTION('',(-1.,0.,0.));
#1811=DIRECTION('',(0.,-1.,0.));
#1812=DIRECTION('',(-1.,0.,0.));
#1813=DIRECTION('',(0.,-1.,0.));
#1814=DIRECTION('',(-1.,0.,0.));
#1815=DIRECTION('',(0.,-1.,0.));
#1816=DIRECTION('',(-1.,0.,0.));
#1817=DIRECTION('',(0.,-1.,0.));
#1818=DIRECTION('',(-1.,0.,0.));
#1819=DIRECTION('',(0.,-1.,0.));
#1820=DIRECTION('',(-1.,0.,0.));
#1821=DIRECTION('',(0.,0.,-1.));
#1822=DIRECTION('',(0.,1.,0.));
#1823=DIRECTION('',(0.,0.,1.));
#1824=DIRECTION('',(0.,-1.,0.));
#1825=DIRECTION('',(0.,0.,1.));
#1826=DIRECTION('',(0.,-1.,0.));
#1827=DIRECTION('',(0.,0.,1.));
#1828=DIRECTION('',(0.,-1.,0.));
#1829=CARTESIAN_POINT('',(0.,0.,0.));
#1830=CARTESIAN_POINT('',(-0.017,0.0127599625,0.28175));
#1831=CARTESIAN_POINT('',(-0.017,0.0127579625,0.28175));
#1832=CARTESIAN_POINT('',(-0.017,0.0127579625,0.28075));
#1833=CARTESIAN_POINT('',(-0.017,0.0127579625,0.30115));
#1834=CARTESIAN_POINT('',(-0.017,0.00160796178105215,0.30115));
#1835=CARTESIAN_POINT('',(-0.017,0.00160796178105215,0.30115));
#1836=CARTESIAN_POINT('',(-0.017,0.00160796178105215,0.30115));
#1837=CARTESIAN_POINT('',(-0.017,0.00160796178105213,0.298866198487096));
#1838=CARTESIAN_POINT('',(-0.017,-0.000642038218947861,0.29145));
#1839=CARTESIAN_POINT('',(-0.017,0.00160796178105213,0.284033801512904));
#1840=CARTESIAN_POINT('',(-0.017,0.00160796178105215,0.28175));
#1841=CARTESIAN_POINT('',(-0.017,0.00160796178105215,0.28075));
#1842=CARTESIAN_POINT('',(-0.017,0.0127599625,0.28075));
#1843=CARTESIAN_POINT('',(-0.045,0.0127579625,0.30875));
#1844=CARTESIAN_POINT('',(-0.045,0.0127579625,0.30875));
#1845=CARTESIAN_POINT('',(-0.045,0.0127579625,0.30115));
#1846=CARTESIAN_POINT('',(-0.045,0.0127579625,0.31635));
#1847=CARTESIAN_POINT('',(-0.045,0.0127599625,0.31635));
#1848=CARTESIAN_POINT('',(-0.045,0.00160796178105215,0.31635));
#1849=CARTESIAN_POINT('',(-0.045,0.00160796178105215,0.31635));
#1850=CARTESIAN_POINT('',(-0.045,0.00160796178105214,0.318633801512904));
#1851=CARTESIAN_POINT('',(-0.045,-0.000642038218947859,0.32605));
#1852=CARTESIAN_POINT('',(-0.045,0.00160796178105213,0.333466198487096));
#1853=CARTESIAN_POINT('',(-0.045,0.00160796178105215,0.32605));
#1854=CARTESIAN_POINT('',(-0.045,0.00160796178105215,0.336813508326896));
#1855=CARTESIAN_POINT('',(-0.045,0.00718296214052608,0.336813508326896));
#1856=CARTESIAN_POINT('',(-0.045,0.0127579625,0.336813508326896));
#1857=CARTESIAN_POINT('',(-0.045,0.0127579625,0.30875));
#1858=CARTESIAN_POINT('',(-0.045,0.0127579625,0.33875));
#1859=CARTESIAN_POINT('',(-0.045,0.0127579625,0.33875));
#1860=CARTESIAN_POINT('',(-0.045,0.0147579625,0.33875));
#1861=CARTESIAN_POINT('',(-0.045,0.0147579625,0.30875));
#1862=CARTESIAN_POINT('',(-0.045,0.0147579625,0.27875));
#1863=CARTESIAN_POINT('',(-0.045,0.0127579625,0.27875));
#1864=CARTESIAN_POINT('',(-0.045,0.0127579625,0.27875));
#1865=CARTESIAN_POINT('',(-0.045,0.0127579625,0.30875));
#1866=CARTESIAN_POINT('',(-0.045,0.0127579625,0.280686491673103));
#1867=CARTESIAN_POINT('',(-0.045,0.00718296214052608,0.280686491673103));
#1868=CARTESIAN_POINT('',(-0.045,0.00160796178105215,0.280686491673103));
#1869=CARTESIAN_POINT('',(-0.045,0.00160796178105215,0.28175));
#1870=CARTESIAN_POINT('',(-0.045,0.00160796178105213,0.284033801512904));
#1871=CARTESIAN_POINT('',(-0.045,-0.000642038218947861,0.29145));
#1872=CARTESIAN_POINT('',(-0.045,0.00160796178105213,0.298866198487096));
#1873=CARTESIAN_POINT('',(-0.045,0.00160796178105215,0.30115));
#1874=CARTESIAN_POINT('',(-0.045,0.00160796178105215,0.30115));
#1875=CARTESIAN_POINT('',(-0.045,0.00160796178105215,0.30115));
#1876=CARTESIAN_POINT('',(-2.77555756156289E-17,0.00160796178105215,0.30875));
#1877=CARTESIAN_POINT('',(-2.77555756156289E-17,0.00160796178105215,0.30115));
#1878=CARTESIAN_POINT('',(-0.017,0.00160796178105213,0.298866198487096));
#1879=CARTESIAN_POINT('',(-2.77555756156289E-17,0.00160796178105215,0.30875));
#1880=CARTESIAN_POINT('',(-2.77555756156289E-17,0.00160796178105215,0.30115));
#1881=CARTESIAN_POINT('',(0.017,0.00160796178105215,0.30115));
#1882=CARTESIAN_POINT('',(0.045,0.00160796178105215,0.30115));
#1883=CARTESIAN_POINT('',(0.017,0.00160796178105215,0.30115));
#1884=CARTESIAN_POINT('',(0.017,0.00160796178105213,0.298866198487096));
#1885=CARTESIAN_POINT('',(0.016998,0.00160796178105213,0.298866198487096));
#1886=CARTESIAN_POINT('',(0.045,0.00160796178105213,0.298866198487096));
#1887=CARTESIAN_POINT('',(0.045,0.00160796178105215,0.30115));
#1888=CARTESIAN_POINT('',(-2.77555756156289E-17,0.00160796178105215,0.30875));
#1889=CARTESIAN_POINT('',(-2.77555756156289E-17,0.00160796178105215,0.31635));
#1890=CARTESIAN_POINT('',(-0.017,0.00160796178105215,0.31635));
#1891=CARTESIAN_POINT('',(-0.017,0.00160796178105215,0.31635));
#1892=CARTESIAN_POINT('',(-0.017,0.00160796178105214,0.318633801512904));
#1893=CARTESIAN_POINT('',(-0.017,0.00160796178105214,0.318633801512904));
#1894=CARTESIAN_POINT('',(-0.04,0.0127599625,0.33875));
#1895=CARTESIAN_POINT('',(-0.04,0.00160796178105215,0.33875));
#1896=CARTESIAN_POINT('',(-0.0416,0.00160796178105215,0.33875));
#1897=CARTESIAN_POINT('',(-0.04,0.0132579625,0.33875));
#1898=CARTESIAN_POINT('',(-0.0384,0.0132579625,0.33875));
#1899=CARTESIAN_POINT('',(0.04,0.0127599625,0.27875));
#1900=CARTESIAN_POINT('',(0.04,0.00160796178105215,0.27875));
#1901=CARTESIAN_POINT('',(0.0416,0.00160796178105215,0.27875));
#1902=CARTESIAN_POINT('',(0.04,0.0132579625,0.27875));
#1903=CARTESIAN_POINT('',(0.0416,0.0132579625,0.27875));
#1904=CARTESIAN_POINT('',(-0.04,0.0127599625,0.27875));
#1905=CARTESIAN_POINT('',(-0.04,0.00160796178105215,0.27875));
#1906=CARTESIAN_POINT('',(-0.0384,0.00160796178105215,0.27875));
#1907=CARTESIAN_POINT('',(-0.04,0.0132579625,0.27875));
#1908=CARTESIAN_POINT('',(-0.0384,0.0132579625,0.27875));
#1909=CARTESIAN_POINT('',(0.04,0.0127599625,0.33875));
#1910=CARTESIAN_POINT('',(0.04,0.00160796178105215,0.33875));
#1911=CARTESIAN_POINT('',(0.0416,0.00160796178105215,0.33875));
#1912=CARTESIAN_POINT('',(0.04,0.0132579625,0.33875));
#1913=CARTESIAN_POINT('',(0.0416,0.0132579625,0.33875));
#1914=CARTESIAN_POINT('',(-2.46519641781718E-17,0.0157579625,0.30875));
#1915=CARTESIAN_POINT('',(-0.044,0.0157579625,0.30875));
#1916=CARTESIAN_POINT('',(-0.044,0.0157579625,0.27875));
#1917=CARTESIAN_POINT('',(-0.044,0.0157579625,0.33875));
#1918=CARTESIAN_POINT('',(-0.04,0.0157579625,0.33875));
#1919=CARTESIAN_POINT('',(-0.04,0.0157579625,0.34275));
#1920=CARTESIAN_POINT('',(-2.46519641781718E-17,0.0157579625,0.34275));
#1921=CARTESIAN_POINT('',(0.04,0.0157579625,0.34275));
#1922=CARTESIAN_POINT('',(0.04,0.0157579625,0.33875));
#1923=CARTESIAN_POINT('',(0.044,0.0157579625,0.33875));
#1924=CARTESIAN_POINT('',(0.044,0.0157579625,0.27875));
#1925=CARTESIAN_POINT('',(0.044,0.0157579625,0.27875));
#1926=CARTESIAN_POINT('',(0.04,0.0157579625,0.27875));
#1927=CARTESIAN_POINT('',(0.04,0.0157579625,0.27475));
#1928=CARTESIAN_POINT('',(-0.04,0.0157579625,0.27475));
#1929=CARTESIAN_POINT('',(-0.04,0.0157579625,0.27475));
#1930=CARTESIAN_POINT('',(-0.04,0.0157579625,0.27875));
#1931=CARTESIAN_POINT('',(-0.04,0.0157579625,0.27875));
#1932=CARTESIAN_POINT('',(-0.037,0.0157579625,0.27875));
#1933=CARTESIAN_POINT('',(0.04,0.0157579625,0.27875));
#1934=CARTESIAN_POINT('',(0.043,0.0157579625,0.27875));
#1935=CARTESIAN_POINT('',(0.04,0.0157579625,0.33875));
#1936=CARTESIAN_POINT('',(0.043,0.0157579625,0.33875));
#1937=CARTESIAN_POINT('',(-0.04,0.0157579625,0.33875));
#1938=CARTESIAN_POINT('',(-0.037,0.0157579625,0.33875));
#1939=CARTESIAN_POINT('',(-2.46519641781718E-17,0.0127579625,0.30875));
#1940=CARTESIAN_POINT('',(0.031,0.0127579625,0.30115));
#1941=CARTESIAN_POINT('',(0.045,0.0127579625,0.30115));
#1942=CARTESIAN_POINT('',(0.017,0.0127579625,0.30115));
#1943=CARTESIAN_POINT('',(0.045,0.0127579625,0.30875));
#1944=CARTESIAN_POINT('',(0.045,0.0127579625,0.31635));
#1945=CARTESIAN_POINT('',(0.031,0.0127579625,0.31635));
#1946=CARTESIAN_POINT('',(0.017,0.0127579625,0.31635));
#1947=CARTESIAN_POINT('',(0.017,0.0127579625,0.31635));
#1948=CARTESIAN_POINT('',(0.017,0.0127579625,0.33675));
#1949=CARTESIAN_POINT('',(0.0270638593383654,0.0127579625,0.33675));
#1950=CARTESIAN_POINT('',(0.0345,0.0127579625,0.33675));
#1951=CARTESIAN_POINT('',(0.0345,0.0127579625,0.33875));
#1952=CARTESIAN_POINT('',(0.0365,0.0127579625,0.33875));
#1953=CARTESIAN_POINT('',(0.04,0.0127579625,0.33875));
#1954=CARTESIAN_POINT('',(0.0435,0.0127579625,0.33875));
#1955=CARTESIAN_POINT('',(0.0455,0.0127579625,0.33875));
#1956=CARTESIAN_POINT('',(0.045,0.0127579625,0.336813508326896));
#1957=CARTESIAN_POINT('',(0.045,0.0127579625,0.30875));
#1958=CARTESIAN_POINT('',(0.045,0.0127579625,0.33875));
#1959=CARTESIAN_POINT('',(0.04,0.0127579625,0.33875));
#1960=CARTESIAN_POINT('',(0.04,0.0127579625,0.34375));
#1961=CARTESIAN_POINT('',(-2.08166817117217E-17,0.0127579625,0.34375));
#1962=CARTESIAN_POINT('',(-0.04,0.0127579625,0.34375));
#1963=CARTESIAN_POINT('',(-0.04,0.0127579625,0.33875));
#1964=CARTESIAN_POINT('',(-0.0455,0.0127579625,0.33875));
#1965=CARTESIAN_POINT('',(-0.0435,0.0127579625,0.33875));
#1966=CARTESIAN_POINT('',(-0.04,0.0127579625,0.33875));
#1967=CARTESIAN_POINT('',(-0.0365,0.0127579625,0.33875));
#1968=CARTESIAN_POINT('',(-0.0345,0.0127579625,0.33875));
#1969=CARTESIAN_POINT('',(-0.0345,0.0127579625,0.33675));
#1970=CARTESIAN_POINT('',(-0.0270638593383654,0.0127579625,0.33675));
#1971=CARTESIAN_POINT('',(-0.017,0.0127579625,0.33675));
#1972=CARTESIAN_POINT('',(-0.017,0.0127579625,0.31635));
#1973=CARTESIAN_POINT('',(-0.017,0.0127579625,0.31635));
#1974=CARTESIAN_POINT('',(-0.031,0.0127579625,0.31635));
#1975=CARTESIAN_POINT('',(-0.031,0.0127579625,0.30115));
#1976=CARTESIAN_POINT('',(-0.0270638593383654,0.0127579625,0.28075));
#1977=CARTESIAN_POINT('',(-0.0345,0.0127579625,0.28075));
#1978=CARTESIAN_POINT('',(-0.0345,0.0127579625,0.27875));
#1979=CARTESIAN_POINT('',(-0.0365,0.0127579625,0.27875));
#1980=CARTESIAN_POINT('',(-0.04,0.0127579625,0.27875));
#1981=CARTESIAN_POINT('',(-0.0435,0.0127579625,0.27875));
#1982=CARTESIAN_POINT('',(-0.0455,0.0127579625,0.27875));
#1983=CARTESIAN_POINT('',(-0.04,0.0127579625,0.27875));
#1984=CARTESIAN_POINT('',(-0.04,0.0127579625,0.27375));
#1985=CARTESIAN_POINT('',(-1.38777878078145E-17,0.0127579625,0.27375));
#1986=CARTESIAN_POINT('',(0.04,0.0127579625,0.27375));
#1987=CARTESIAN_POINT('',(0.04,0.0127579625,0.27875));
#1988=CARTESIAN_POINT('',(0.045,0.0127579625,0.27875));
#1989=CARTESIAN_POINT('',(0.045,0.0127579625,0.30875));
#1990=CARTESIAN_POINT('',(0.045,0.0127579625,0.280686491673103));
#1991=CARTESIAN_POINT('',(0.0455,0.0127579625,0.27875));
#1992=CARTESIAN_POINT('',(0.0435,0.0127579625,0.27875));
#1993=CARTESIAN_POINT('',(0.04,0.0127579625,0.27875));
#1994=CARTESIAN_POINT('',(0.0365,0.0127579625,0.27875));
#1995=CARTESIAN_POINT('',(0.0345,0.0127579625,0.27875));
#1996=CARTESIAN_POINT('',(0.0345,0.0127579625,0.28075));
#1997=CARTESIAN_POINT('',(0.0270638593383654,0.0127579625,0.28075));
#1998=CARTESIAN_POINT('',(0.017,0.0127579625,0.28075));
#1999=CARTESIAN_POINT('',(0.017,0.0127579625,0.30115));
#2000=CARTESIAN_POINT('',(0.0095,0.0127579625,0.31825));
#2001=CARTESIAN_POINT('',(0.0115,0.0127579625,0.31825));
#2002=CARTESIAN_POINT('',(0.0095,0.0127579625,0.29925));
#2003=CARTESIAN_POINT('',(0.0115,0.0127579625,0.29925));
#2004=CARTESIAN_POINT('',(-0.0095,0.0127579625,0.29925));
#2005=CARTESIAN_POINT('',(-0.0075,0.0127579625,0.29925));
#2006=CARTESIAN_POINT('',(-0.0095,0.0127579625,0.31825));
#2007=CARTESIAN_POINT('',(-0.0075,0.0127579625,0.31825));
#2008=CARTESIAN_POINT('',(0.045,0.0127579625,0.30875));
#2009=CARTESIAN_POINT('',(0.045,0.00160796178105215,0.30115));
#2010=CARTESIAN_POINT('',(0.045,-0.000642038218947861,0.29145));
#2011=CARTESIAN_POINT('',(0.045,0.00160796178105213,0.284033801512904));
#2012=CARTESIAN_POINT('',(0.045,0.00160796178105215,0.28175));
#2013=CARTESIAN_POINT('',(0.045,0.00160796178105215,0.280686491673103));
#2014=CARTESIAN_POINT('',(0.045,0.00718296214052608,0.280686491673103));
#2015=CARTESIAN_POINT('',(0.045,0.0127579625,0.27875));
#2016=CARTESIAN_POINT('',(0.045,0.0147579625,0.27875));
#2017=CARTESIAN_POINT('',(0.045,0.0147579625,0.33875));
#2018=CARTESIAN_POINT('',(0.045,0.0147579625,0.33875));
#2019=CARTESIAN_POINT('',(0.045,0.0127579625,0.33875));
#2020=CARTESIAN_POINT('',(0.045,0.00718296214052608,0.336813508326896));
#2021=CARTESIAN_POINT('',(0.045,0.00160796178105215,0.336813508326896));
#2022=CARTESIAN_POINT('',(0.045,0.00160796178105215,0.33575));
#2023=CARTESIAN_POINT('',(0.045,0.00160796178105213,0.333466198487096));
#2024=CARTESIAN_POINT('',(0.045,-0.000642038218947859,0.32605));
#2025=CARTESIAN_POINT('',(0.045,0.00160796178105214,0.318633801512904));
#2026=CARTESIAN_POINT('',(0.045,0.00160796178105215,0.31635));
#2027=CARTESIAN_POINT('',(0.045,0.00160796178105215,0.31635));
#2028=CARTESIAN_POINT('',(0.045,0.0127599625,0.31635));
#2029=CARTESIAN_POINT('',(0.04,0.0127579625,0.27875));
#2030=CARTESIAN_POINT('',(0.04,0.0127579625,0.27375));
#2031=CARTESIAN_POINT('',(0.04,0.0147579625,0.27375));
#2032=CARTESIAN_POINT('',(0.04,0.0147579625,0.27875));
#2033=CARTESIAN_POINT('',(-1.38777878078145E-17,0.0127579625,0.27375));
#2034=CARTESIAN_POINT('',(-0.04,0.0127579625,0.27375));
#2035=CARTESIAN_POINT('',(-0.04,0.0147579625,0.27375));
#2036=CARTESIAN_POINT('',(0.04,0.0147579625,0.27375));
#2037=CARTESIAN_POINT('',(-0.04,0.0127579625,0.27875));
#2038=CARTESIAN_POINT('',(-0.04,0.0147579625,0.27875));
#2039=CARTESIAN_POINT('',(-0.04,0.0127579625,0.33875));
#2040=CARTESIAN_POINT('',(-0.04,0.0127579625,0.34375));
#2041=CARTESIAN_POINT('',(-0.04,0.0147579625,0.34375));
#2042=CARTESIAN_POINT('',(-0.04,0.0147579625,0.33875));
#2043=CARTESIAN_POINT('',(-2.08166817117217E-17,0.0127579625,0.34375));
#2044=CARTESIAN_POINT('',(0.04,0.0127579625,0.34375));
#2045=CARTESIAN_POINT('',(0.04,0.0147579625,0.34375));
#2046=CARTESIAN_POINT('',(-2.08166817117217E-17,0.0147579625,0.34375));
#2047=CARTESIAN_POINT('',(0.04,0.0127579625,0.33875));
#2048=CARTESIAN_POINT('',(0.04,0.0147579625,0.33875));
#2049=CARTESIAN_POINT('',(-0.04,0.0127599625,0.33875));
#2050=CARTESIAN_POINT('',(-0.04,0.00160796178105215,0.33875));
#2051=CARTESIAN_POINT('',(-0.0365,0.00160796178105215,0.33875));
#2052=CARTESIAN_POINT('',(-0.0435,0.00160796178105215,0.33875));
#2053=CARTESIAN_POINT('',(-0.0365,0.0127599625,0.33875));
#2054=CARTESIAN_POINT('',(-0.0435,0.0127599625,0.33875));
#2055=CARTESIAN_POINT('',(-0.0270638593383654,0.0127599625,0.33675));
#2056=CARTESIAN_POINT('',(-0.0345,0.00160796178105215,0.33675));
#2057=CARTESIAN_POINT('',(-0.0345,0.00160796178105215,0.33675));
#2058=CARTESIAN_POINT('',(-0.0270638593383654,0.00160796178105215,0.33675));
#2059=CARTESIAN_POINT('',(-0.017,0.00160796178105215,0.33675));
#2060=CARTESIAN_POINT('',(-0.017,0.0127599625,0.33675));
#2061=CARTESIAN_POINT('',(-2.77555756156289E-17,0.00160796178105215,0.30875));
#2062=CARTESIAN_POINT('',(-0.017,0.00160796178105213,0.333466198487096));
#2063=CARTESIAN_POINT('',(-0.017,0.00160796178105213,0.333466198487096));
#2064=CARTESIAN_POINT('',(-0.017,0.00160796178105215,0.32605));
#2065=CARTESIAN_POINT('',(-0.0345,0.00160796178105215,0.33875));
#2066=CARTESIAN_POINT('',(-0.0455,0.00160796178105215,0.33875));
#2067=CARTESIAN_POINT('',(0.0095,0.0127599625,0.29925));
#2068=CARTESIAN_POINT('',(0.0095,0.00160796178105215,0.29925));
#2069=CARTESIAN_POINT('',(0.0115,0.00160796178105215,0.29925));
#2070=CARTESIAN_POINT('',(-2.77555756156289E-17,0.00160796178105215,0.30875));
#2071=CARTESIAN_POINT('',(-0.0095,0.0127599625,0.29925));
#2072=CARTESIAN_POINT('',(-0.0095,0.00160796178105215,0.29925));
#2073=CARTESIAN_POINT('',(-0.0075,0.00160796178105215,0.29925));
#2074=CARTESIAN_POINT('',(-2.77555756156289E-17,0.00160796178105215,0.30875));
#2075=CARTESIAN_POINT('',(-0.0095,0.0127599625,0.31825));
#2076=CARTESIAN_POINT('',(-0.0095,0.00160796178105215,0.31825));
#2077=CARTESIAN_POINT('',(-0.0075,0.00160796178105215,0.31825));
#2078=CARTESIAN_POINT('',(-2.77555756156289E-17,0.00160796178105215,0.30875));
#2079=CARTESIAN_POINT('',(0.04,0.0127599625,0.27875));
#2080=CARTESIAN_POINT('',(0.04,0.00160796178105215,0.27875));
#2081=CARTESIAN_POINT('',(0.0435,0.00160796178105215,0.27875));
#2082=CARTESIAN_POINT('',(0.0365,0.00160796178105215,0.27875));
#2083=CARTESIAN_POINT('',(0.0365,0.0127599625,0.27875));
#2084=CARTESIAN_POINT('',(0.0435,0.0127599625,0.27875));
#2085=CARTESIAN_POINT('',(0.0270638593383654,0.0127599625,0.28075));
#2086=CARTESIAN_POINT('',(0.0345,0.00160796178105215,0.28075));
#2087=CARTESIAN_POINT('',(0.0345,0.00160796178105215,0.28075));
#2088=CARTESIAN_POINT('',(0.0270638593383654,0.00160796178105215,0.28075));
#2089=CARTESIAN_POINT('',(0.017,0.00160796178105215,0.28075));
#2090=CARTESIAN_POINT('',(0.017,0.0127599625,0.28075));
#2091=CARTESIAN_POINT('',(-2.77555756156289E-17,0.00160796178105215,0.30875));
#2092=CARTESIAN_POINT('',(0.016998,0.00160796178105213,0.284033801512904));
#2093=CARTESIAN_POINT('',(0.017,0.00160796178105213,0.284033801512904));
#2094=CARTESIAN_POINT('',(0.017,0.00160796178105215,0.28175));
#2095=CARTESIAN_POINT('',(0.0345,0.00160796178105215,0.27875));
#2096=CARTESIAN_POINT('',(0.0455,0.00160796178105215,0.27875));
#2097=CARTESIAN_POINT('',(-2.77555756156289E-17,0.00160796178105215,0.30875));
#2098=CARTESIAN_POINT('',(-0.0455,0.00160796178105215,0.27875));
#2099=CARTESIAN_POINT('',(-0.0435,0.00160796178105215,0.27875));
#2100=CARTESIAN_POINT('',(-0.04,0.00160796178105215,0.27875));
#2101=CARTESIAN_POINT('',(-0.0365,0.00160796178105215,0.27875));
#2102=CARTESIAN_POINT('',(-0.0345,0.00160796178105215,0.27875));
#2103=CARTESIAN_POINT('',(-0.0345,0.00160796178105215,0.28075));
#2104=CARTESIAN_POINT('',(-0.0270638593383654,0.00160796178105215,0.28075));
#2105=CARTESIAN_POINT('',(-0.017,0.00160796178105213,0.284033801512904));
#2106=CARTESIAN_POINT('',(-0.0270638593383654,0.0127599625,0.28075));
#2107=CARTESIAN_POINT('',(-0.0345,0.0127599625,0.28075));
#2108=CARTESIAN_POINT('',(-0.04,0.0127599625,0.27875));
#2109=CARTESIAN_POINT('',(-0.0365,0.0127599625,0.27875));
#2110=CARTESIAN_POINT('',(-0.0435,0.0127599625,0.27875));
#2111=CARTESIAN_POINT('',(-2.77555756156289E-17,0.00160796178105215,0.30875));
#2112=CARTESIAN_POINT('',(0.0455,0.00160796178105215,0.33875));
#2113=CARTESIAN_POINT('',(0.0435,0.00160796178105215,0.33875));
#2114=CARTESIAN_POINT('',(0.04,0.00160796178105215,0.33875));
#2115=CARTESIAN_POINT('',(0.0365,0.00160796178105215,0.33875));
#2116=CARTESIAN_POINT('',(0.0345,0.00160796178105215,0.33875));
#2117=CARTESIAN_POINT('',(0.0345,0.00160796178105215,0.33675));
#2118=CARTESIAN_POINT('',(0.0270638593383654,0.00160796178105215,0.33675));
#2119=CARTESIAN_POINT('',(0.017,0.00160796178105215,0.33675));
#2120=CARTESIAN_POINT('',(0.017,0.00160796178105215,0.33575));
#2121=CARTESIAN_POINT('',(0.017,0.00160796178105213,0.333466198487096));
#2122=CARTESIAN_POINT('',(0.016998,0.00160796178105213,0.333466198487096));
#2123=CARTESIAN_POINT('',(0.0270638593383654,0.0127599625,0.33675));
#2124=CARTESIAN_POINT('',(0.0345,0.0127599625,0.33675));
#2125=CARTESIAN_POINT('',(0.017,0.0127599625,0.33675));
#2126=CARTESIAN_POINT('',(0.04,0.0127599625,0.33875));
#2127=CARTESIAN_POINT('',(0.0435,0.0127599625,0.33875));
#2128=CARTESIAN_POINT('',(0.0365,0.0127599625,0.33875));
#2129=CARTESIAN_POINT('',(0.017,0.0127599625,0.30115));
#2130=CARTESIAN_POINT('',(0.017,0.00160796178105215,0.30115));
#2131=CARTESIAN_POINT('',(0.017,-0.000642038218947861,0.29145));
#2132=CARTESIAN_POINT('',(0.017,0.0127599625,0.31635));
#2133=CARTESIAN_POINT('',(0.017,0.0127599625,0.31635));
#2134=CARTESIAN_POINT('',(0.017,0.00160796178105215,0.31635));
#2135=CARTESIAN_POINT('',(0.017,0.00160796178105215,0.31635));
#2136=CARTESIAN_POINT('',(0.017,0.00160796178105214,0.318633801512904));
#2137=CARTESIAN_POINT('',(0.017,-0.000642038218947859,0.32605));
#2138=CARTESIAN_POINT('',(-2.77555756156289E-17,0.00160796178105215,0.30875));
#2139=CARTESIAN_POINT('',(-2.77555756156289E-17,0.00160796178105215,0.31635));
#2140=CARTESIAN_POINT('',(0.016998,0.00160796178105214,0.318633801512904));
#2141=CARTESIAN_POINT('',(-0.017,0.0127599625,0.31635));
#2142=CARTESIAN_POINT('',(-0.017,0.0127599625,0.31635));
#2143=CARTESIAN_POINT('',(-0.017,-0.000642038218947859,0.32605));
#2144=CARTESIAN_POINT('',(0.0095,0.0127599625,0.31825));
#2145=CARTESIAN_POINT('',(0.0095,0.00160796178105215,0.31825));
#2146=CARTESIAN_POINT('',(0.0115,0.00160796178105215,0.31825));
#2147=CARTESIAN_POINT('',(-2.77555756156289E-17,0.00160796178105215,0.30875));
#2148=CARTESIAN_POINT('',(0.016998,-0.000642038218947859,0.32605));
#2149=CARTESIAN_POINT('',(0.016998,-0.000642038218947861,0.29145));
#2150=CARTESIAN_POINT('',(-0.017,-0.000642038218947859,0.32605));
#2151=CARTESIAN_POINT('',(-0.017,-0.000642038218947861,0.29145));
#2152=CARTESIAN_POINT('',(0.04,0.0132579625,0.33875));
#2153=CARTESIAN_POINT('',(0.04,0.0132579625,0.33875));
#2154=CARTESIAN_POINT('',(0.043,0.0132579625,0.33875));
#2155=CARTESIAN_POINT('',(-4.16333634234433E-17,0.0132579625,0.30875));
#2156=CARTESIAN_POINT('',(-0.04,0.0132579625,0.27875));
#2157=CARTESIAN_POINT('',(-0.04,0.0132579625,0.27875));
#2158=CARTESIAN_POINT('',(-0.037,0.0132579625,0.27875));
#2159=CARTESIAN_POINT('',(-4.16333634234433E-17,0.0132579625,0.30875));
#2160=CARTESIAN_POINT('',(0.04,0.0132579625,0.27875));
#2161=CARTESIAN_POINT('',(0.04,0.0132579625,0.27875));
#2162=CARTESIAN_POINT('',(0.043,0.0132579625,0.27875));
#2163=CARTESIAN_POINT('',(-4.16333634234433E-17,0.0132579625,0.30875));
#2164=CARTESIAN_POINT('',(-0.04,0.0132579625,0.33875));
#2165=CARTESIAN_POINT('',(-0.04,0.0132579625,0.33875));
#2166=CARTESIAN_POINT('',(-0.037,0.0132579625,0.33875));
#2167=CARTESIAN_POINT('',(-4.16333634234433E-17,0.0132579625,0.30875));
#2168=CARTESIAN_POINT('',(0.04,0.0147579625,0.27875));
#2169=CARTESIAN_POINT('',(0.044,0.0147579625,0.27875));
#2170=CARTESIAN_POINT('',(0.04,0.0147579625,0.27475));
#2171=CARTESIAN_POINT('',(-1.38777878078145E-17,0.0147579625,0.27475));
#2172=CARTESIAN_POINT('',(-0.04,0.0147579625,0.27475));
#2173=CARTESIAN_POINT('',(0.044,0.0147579625,0.30875));
#2174=CARTESIAN_POINT('',(0.044,0.0147579625,0.33875));
#2175=CARTESIAN_POINT('',(-0.04,0.0147579625,0.27875));
#2176=CARTESIAN_POINT('',(-0.044,0.0147579625,0.27875));
#2177=CARTESIAN_POINT('',(0.04,0.0147579625,0.33875));
#2178=CARTESIAN_POINT('',(0.04,0.0147579625,0.34275));
#2179=CARTESIAN_POINT('',(-0.044,0.0147579625,0.30875));
#2180=CARTESIAN_POINT('',(-0.044,0.0147579625,0.33875));
#2181=CARTESIAN_POINT('',(-2.46519641781718E-17,0.0147579625,0.34275));
#2182=CARTESIAN_POINT('',(-0.04,0.0147579625,0.34275));
#2183=CARTESIAN_POINT('',(-0.04,0.0147579625,0.33875));
#2184=CARTESIAN_POINT('',(-0.0345,0.0127599625,0.27875));
#2185=CARTESIAN_POINT('',(-0.0455,0.0127599625,0.27875));
#2186=CARTESIAN_POINT('',(0.0345,0.0127599625,0.27875));
#2187=CARTESIAN_POINT('',(0.0455,0.0127599625,0.27875));
#2188=CARTESIAN_POINT('',(0.0455,0.0127599625,0.33875));
#2189=CARTESIAN_POINT('',(0.0345,0.0127599625,0.33875));
#2190=CARTESIAN_POINT('',(-0.0345,0.0127599625,0.33875));
#2191=CARTESIAN_POINT('',(-0.0455,0.0127599625,0.33875));
#2192=CARTESIAN_POINT('',(-0.031,0.0127599625,0.31635));
#2193=CARTESIAN_POINT('',(0.031,0.0127599625,0.31635));
#2194=CARTESIAN_POINT('',(0.031,0.00160796178105215,0.30115));
#2195=CARTESIAN_POINT('',(-0.031,0.00160796178105215,0.30115));
#2196=MECHANICAL_DESIGN_GEOMETRIC_PRESENTATION_REPRESENTATION('',(#1269),
#2197);
#2197=(
GEOMETRIC_REPRESENTATION_CONTEXT(3)
GLOBAL_UNCERTAINTY_ASSIGNED_CONTEXT((#2198))
GLOBAL_UNIT_ASSIGNED_CONTEXT((#2201,#2200,#2199))
REPRESENTATION_CONTEXT('XY Top Clam','TOP_LEVEL_ASSEMBLY_PART')
);
#2198=UNCERTAINTY_MEASURE_WITH_UNIT(LENGTH_MEASURE(1.E-8),#2201,
'DISTANCE_ACCURACY_VALUE','Maximum Tolerance applied to model');
#2199=(
NAMED_UNIT(*)
SI_UNIT($,.STERADIAN.)
SOLID_ANGLE_UNIT()
);
#2200=(
NAMED_UNIT(*)
PLANE_ANGLE_UNIT()
SI_UNIT($,.RADIAN.)
);
#2201=(
LENGTH_UNIT()
NAMED_UNIT(*)
SI_UNIT($,.METRE.)
);
#2202=PRODUCT_DEFINITION_SHAPE('','',#2203);
#2203=PRODUCT_DEFINITION('','',#2205,#2204);
#2204=PRODUCT_DEFINITION_CONTEXT('',#2211,'design');
#2205=PRODUCT_DEFINITION_FORMATION_WITH_SPECIFIED_SOURCE('','',#2207,
 .NOT_KNOWN.);
#2206=PRODUCT_RELATED_PRODUCT_CATEGORY('','',(#2207));
#2207=PRODUCT('XY Top Clam','XY Top Clam','XY Top Clam',(#2209));
#2208=PRODUCT_CATEGORY('','');
#2209=PRODUCT_CONTEXT('',#2211,'mechanical');
#2210=APPLICATION_PROTOCOL_DEFINITION('international standard',
'ap242_managed_model_based_3d_engineering',2020,#2211);
#2211=APPLICATION_CONTEXT('managed model based 3d engineering');
ENDSEC;
END-ISO-10303-21;
